<svg width="215" height="720" viewBox="0 0 215 720" fill="none" xmlns="http://www.w3.org/2000/svg">
<path opacity="0.3" fill-rule="evenodd" clip-rule="evenodd" d="M203.018 0.0273438V0.183022L200.549 0.282857L200.549 0.286885L200.549 0.306373L200.553 0.390759C200.556 0.46708 200.56 0.583367 200.566 0.738668L203.028 0.649028L203.034 0.80506C203.044 1.09146 203.059 1.52082 203.078 2.0865C203.084 2.29119 203.092 2.51374 203.099 2.75381L200.635 2.82938C200.645 3.15467 200.656 3.50989 200.667 3.89433L203.131 3.82371L203.138 4.06352C203.154 4.63569 203.172 5.27132 203.189 5.96814L200.724 6.03035C200.733 6.36853 200.741 6.72069 200.75 7.08659L203.216 7.02808L203.217 7.06276C203.232 7.71832 203.248 8.41881 203.264 9.16276L200.797 9.21439C200.805 9.55692 200.812 9.9085 200.819 10.269L203.286 10.2206C203.299 10.9018 203.312 11.6154 203.325 12.3603L200.858 12.4026C200.864 12.7328 200.869 13.0691 200.875 13.4113L203.342 13.3719C203.354 14.0887 203.365 14.8322 203.376 15.6015L200.908 15.635C200.912 15.9536 200.916 16.2766 200.92 16.604L203.389 16.5729C203.398 17.2947 203.406 18.0377 203.414 18.8014L200.946 18.8268C200.949 19.1704 200.953 19.5181 200.956 19.8699L203.425 19.8471C203.431 20.5426 203.437 21.2542 203.443 21.9815L200.973 21.9992L200.98 22.998L203.45 22.9827C203.454 23.7238 203.458 24.4804 203.461 25.2521L200.991 25.262C200.993 25.583 200.994 25.9066 200.995 26.2328L203.465 26.2251C203.467 26.9358 203.469 27.6587 203.47 28.3935L200.999 28.3961L201 28.8018L201 29.403L203.471 29.4027C203.471 30.1447 203.47 30.8984 203.469 31.6635L200.998 31.6587L200.997 32.1565L200.996 32.6265L203.467 32.6335C203.465 33.3491 203.462 34.0743 203.459 34.8089L200.987 34.7971C200.986 35.1303 200.984 35.4653 200.982 35.8023L203.454 35.8163C203.45 36.5593 203.445 37.3114 203.439 38.0726L200.967 38.0536C200.965 38.3791 200.962 38.7062 200.959 39.0349L203.431 39.0561C203.425 39.7718 203.418 40.4952 203.411 41.2261L200.938 41.2002L200.933 41.7069L200.928 42.1993L203.4 42.2274C203.392 42.965 203.383 43.7101 203.373 44.4624L200.9 44.4294C200.895 44.7698 200.891 45.1118 200.886 45.4552L203.359 45.4905C203.348 46.2039 203.338 46.9237 203.326 47.6496L200.853 47.6096L200.844 48.1363L200.836 48.601L203.31 48.6432C203.297 49.3746 203.284 50.1121 203.27 50.8556L200.797 50.8085L200.787 51.3168L200.777 51.8237L203.25 51.873C203.236 52.6043 203.22 53.3413 203.204 54.0837L200.731 54.0295C200.724 54.3564 200.716 54.6843 200.709 55.0132L203.182 55.0695C203.166 55.7948 203.149 56.5251 203.131 57.2603L200.657 57.1992L200.644 57.7198L200.632 58.2026L203.105 58.2659C203.087 59.0056 203.067 59.7501 203.046 60.4993L200.572 60.431C200.563 60.7659 200.554 61.1018 200.544 61.4386L203.018 61.5092C202.998 62.2288 202.976 62.9527 202.954 63.6807L200.48 63.6053L200.449 64.5984L202.924 64.676C202.901 65.4077 202.877 66.1435 202.852 66.8833L200.378 66.8007C200.367 67.1362 200.356 67.4725 200.344 67.8097L202.818 67.8945C202.793 68.6317 202.767 69.3727 202.74 70.1174L200.266 70.0275C200.254 70.3549 200.242 70.683 200.229 71.0118L202.704 71.104C202.677 71.8291 202.649 72.5576 202.621 73.2895L200.146 73.1923C200.133 73.5242 200.12 73.8568 200.106 74.1901L202.581 74.2895C202.552 75.0244 202.521 75.7626 202.49 76.504L200.015 76.3994L199.998 76.8142L199.972 77.4099L202.447 77.5169C202.415 78.2467 202.383 78.9795 202.35 79.7153L199.875 79.6032L199.851 80.1325L199.83 80.5919L202.304 80.7064C202.271 81.4344 202.236 82.1652 202.201 82.8987L199.726 82.7791L199.678 83.7786L202.152 83.9007C202.116 84.6366 202.079 85.3752 202.041 86.1164L199.566 85.9891C199.549 86.3252 199.531 86.6618 199.514 86.9989L201.988 87.1287L201.961 87.6557C201.931 88.2075 201.902 88.7607 201.872 89.3151L199.397 89.18C199.379 89.5098 199.361 89.8401 199.342 90.1708L201.817 90.3084C201.776 91.0379 201.735 91.7695 201.693 92.5033L199.218 92.3603C199.199 92.693 199.18 93.0262 199.16 93.3598L201.634 93.5053C201.591 94.2411 201.547 94.979 201.502 95.7189L199.028 95.5679L198.966 96.5756L201.44 96.7292C201.395 97.4548 201.349 98.1824 201.302 98.9116L198.828 98.7525L198.789 99.3611L198.764 99.744L201.238 99.9057C201.19 100.636 201.142 101.367 201.092 102.1L198.618 101.933L198.55 102.931L201.024 103.101C200.974 103.836 200.922 104.573 200.87 105.311L198.396 105.135C198.373 105.47 198.349 105.805 198.324 106.14L200.798 106.318C200.745 107.045 200.692 107.772 200.638 108.501L198.165 108.317C198.14 108.647 198.115 108.978 198.09 109.308L200.563 109.495C200.508 110.225 200.452 110.956 200.395 111.688L197.922 111.495C197.896 111.827 197.87 112.16 197.844 112.492L200.316 112.688C200.258 113.421 200.199 114.156 200.139 114.892L197.667 114.69L197.614 115.34L197.585 115.692L200.057 115.896C199.997 116.624 199.935 117.352 199.873 118.082L197.401 117.871L197.341 118.577L197.316 118.862L199.788 119.075C199.725 119.805 199.661 120.535 199.596 121.266L197.125 121.046C197.095 121.377 197.065 121.708 197.035 122.04L199.506 122.263C199.44 122.995 199.373 123.728 199.305 124.462L196.835 124.232C196.804 124.565 196.773 124.897 196.741 125.23L199.212 125.463C199.143 126.191 199.074 126.92 199.003 127.65L196.533 127.411L196.472 128.037L196.437 128.401L198.906 128.643C198.835 129.372 198.763 130.101 198.689 130.83L196.22 130.581C196.186 130.912 196.153 131.243 196.119 131.574L198.588 131.826C198.514 132.556 198.438 133.287 198.361 134.018L195.893 133.759L195.788 134.754L198.256 135.016C198.179 135.745 198.1 136.474 198.021 137.204L195.553 136.934L195.504 137.385L195.445 137.923L197.912 138.196C197.832 138.923 197.75 139.651 197.668 140.38L195.201 140.1C195.163 140.43 195.126 140.76 195.088 141.09L197.554 141.373C197.471 142.102 197.386 142.83 197.3 143.559L194.835 143.269C194.796 143.599 194.756 143.929 194.717 144.26L197.182 144.554C197.096 145.282 197.008 146.01 196.919 146.739L194.454 146.437C194.414 146.767 194.373 147.096 194.332 147.425L196.797 147.73C196.707 148.457 196.616 149.184 196.523 149.911L194.06 149.598C194.018 149.927 193.976 150.256 193.934 150.586L196.397 150.902C196.304 151.629 196.209 152.356 196.113 153.082L193.651 152.758C193.608 153.087 193.564 153.416 193.52 153.745L195.982 154.073C195.885 154.8 195.787 155.526 195.688 156.252L193.227 155.916L193.092 156.902L195.552 157.243C195.452 157.969 195.35 158.694 195.247 159.42L192.788 159.071C192.741 159.399 192.695 159.728 192.648 160.056L195.106 160.409C195.003 161.134 194.897 161.859 194.791 162.583L192.333 162.222C192.285 162.55 192.237 162.877 192.188 163.205L194.645 163.57C194.538 164.294 194.429 165.018 194.319 165.741L191.863 165.367C191.813 165.695 191.762 166.022 191.712 166.35L194.167 166.729C194.056 167.454 193.943 168.178 193.829 168.902L191.374 168.514C191.323 168.842 191.271 169.169 191.218 169.497L193.672 169.888C193.557 170.612 193.44 171.334 193.322 172.056L190.87 171.655C190.816 171.982 190.763 172.308 190.709 172.634L193.16 173.04C193.041 173.761 192.92 174.482 192.798 175.201L190.348 174.786C190.293 175.112 190.238 175.438 190.182 175.763L192.631 176.183C192.507 176.907 192.382 177.63 192.255 178.352L189.807 177.922C189.75 178.248 189.692 178.575 189.634 178.901L192.081 179.336C191.953 180.057 191.824 180.777 191.693 181.496L189.248 181.051C189.189 181.376 189.129 181.701 189.069 182.026L191.514 182.476C191.382 183.194 191.248 183.911 191.113 184.627L188.671 184.166C188.61 184.49 188.548 184.814 188.487 185.137L190.928 185.602C190.791 186.324 190.652 187.044 190.512 187.763L188.072 187.286C188.009 187.612 187.945 187.937 187.88 188.262L190.319 188.743C190.177 189.462 190.034 190.179 189.889 190.895L187.453 190.402L187.371 190.805C187.332 190.994 187.294 191.183 187.255 191.372L189.69 191.87C189.544 192.585 189.396 193.298 189.247 194.01L186.814 193.499C186.747 193.821 186.679 194.142 186.611 194.463L189.043 194.979C188.89 195.696 188.737 196.412 188.581 197.127L186.152 196.599L186.065 197.001L186.005 197.275L185.94 197.57L188.368 198.103C188.21 198.819 188.052 199.532 187.891 200.244L185.466 199.698L185.418 199.914C185.361 200.163 185.305 200.412 185.248 200.661L187.671 201.214C187.509 201.924 187.346 202.632 187.181 203.339L184.76 202.773C184.738 202.868 184.716 202.963 184.694 203.058L184.645 203.266L184.536 203.73L186.954 204.301C186.786 205.014 186.616 205.725 186.444 206.434L184.029 205.849L183.936 206.229C183.889 206.424 183.841 206.618 183.793 206.813L186.207 207.405C186.032 208.116 185.856 208.825 185.678 209.532L183.269 208.926C183.188 209.245 183.108 209.564 183.027 209.882L185.435 210.494C185.255 211.199 185.074 211.902 184.891 212.602L182.487 211.974C182.405 212.29 182.322 212.606 182.239 212.921L184.641 213.555C184.454 214.263 184.265 214.968 184.074 215.671L181.677 215.021C181.646 215.134 181.616 215.246 181.585 215.358C181.565 215.434 181.544 215.509 181.524 215.584L181.416 215.978L183.811 216.635C183.618 217.34 183.422 218.043 183.225 218.743L180.835 218.07C180.746 218.386 180.656 218.701 180.567 219.016L182.955 219.696C182.756 220.394 182.555 221.089 182.352 221.781L179.969 221.084L179.88 221.39L179.83 221.56L179.748 221.837L179.694 222.018L182.074 222.723C181.866 223.425 181.656 224.124 181.444 224.821L179.07 224.098C178.974 224.414 178.877 224.729 178.78 225.043L181.152 225.774C180.937 226.472 180.719 227.166 180.5 227.858L178.135 227.108C178.036 227.42 177.937 227.731 177.838 228.041L180.2 228.798C179.979 229.487 179.756 230.172 179.531 230.854L177.176 230.077C177.074 230.384 176.973 230.69 176.871 230.996L179.223 231.781C178.99 232.477 178.755 233.17 178.518 233.859L176.174 233.053C176.123 233.202 176.072 233.35 176.021 233.498C175.964 233.66 175.908 233.822 175.852 233.983L178.192 234.798C177.953 235.485 177.711 236.168 177.467 236.848L175.135 236.012C175.026 236.317 174.916 236.622 174.805 236.926L177.133 237.772C176.888 238.448 176.639 239.12 176.389 239.788L174.07 238.92L173.984 239.151L173.901 239.37L173.723 239.841L176.039 240.717C175.775 241.412 175.511 242.103 175.247 242.788L172.938 241.897C172.818 242.206 172.699 242.514 172.579 242.821L174.885 243.719C174.62 244.4 174.354 245.075 174.088 245.746L171.788 244.833C171.668 245.135 171.548 245.437 171.428 245.738L173.724 246.657C173.457 247.324 173.189 247.985 172.92 248.641L170.631 247.706C170.51 248.003 170.389 248.298 170.267 248.593L172.553 249.535C172.27 250.223 171.985 250.905 171.7 251.582L169.422 250.624C169.293 250.929 169.165 251.233 169.036 251.536L171.311 252.502C171.025 253.174 170.739 253.841 170.452 254.503L168.185 253.521C168.107 253.701 168.03 253.88 167.952 254.058L167.797 254.413L170.06 255.402C169.772 256.06 169.484 256.712 169.195 257.359L166.94 256.353C166.809 256.646 166.679 256.938 166.548 257.229L168.799 258.242C168.494 258.918 168.188 259.589 167.882 260.255L165.64 259.224C165.502 259.524 165.364 259.823 165.226 260.12L167.464 261.159C167.157 261.819 166.849 262.474 166.541 263.124L164.313 262.068C164.247 262.207 164.181 262.346 164.115 262.485C164.042 262.638 163.969 262.791 163.896 262.943L166.12 264.007C165.811 264.652 165.501 265.292 165.191 265.926L162.977 264.845L162.873 265.058C162.819 265.168 162.766 265.277 162.712 265.386C162.656 265.5 162.601 265.613 162.545 265.726L164.754 266.815C164.428 267.476 164.1 268.132 163.772 268.783L161.574 267.675L161.407 268.005C161.315 268.188 161.223 268.369 161.131 268.551L163.325 269.666C162.996 270.311 162.666 270.951 162.336 271.586L160.153 270.452C160.005 270.738 159.856 271.023 159.708 271.306L161.885 272.448C161.551 273.086 161.215 273.718 160.879 274.345L158.712 273.185C158.556 273.476 158.4 273.767 158.243 274.057L160.404 275.226C160.055 275.869 159.706 276.507 159.355 277.139L157.207 275.952C157.128 276.095 157.049 276.238 156.969 276.38C156.891 276.521 156.813 276.662 156.734 276.802L158.877 277.998C158.527 278.625 158.175 279.247 157.823 279.864L155.692 278.65C155.608 278.798 155.524 278.945 155.439 279.092C155.365 279.221 155.291 279.35 155.217 279.479L157.342 280.702C156.975 281.337 156.608 281.967 156.24 282.592L154.129 281.35C153.962 281.632 153.796 281.914 153.63 282.194L155.735 283.444C155.364 284.067 154.992 284.684 154.62 285.297L152.529 284.027L152.409 284.224L152.25 284.485C152.2 284.566 152.151 284.647 152.101 284.728L152.027 284.85L154.112 286.128C153.736 286.74 153.359 287.346 152.982 287.948L150.911 286.651C150.736 286.93 150.561 287.209 150.386 287.486L152.45 288.791C152.06 289.407 151.668 290.017 151.277 290.623L149.227 289.299C149.051 289.571 148.875 289.842 148.699 290.112L150.742 291.445C150.349 292.045 149.956 292.641 149.561 293.231L147.533 291.88C147.355 292.148 147.176 292.415 146.998 292.68L149.019 294.039C148.61 294.647 148.2 295.249 147.789 295.845L145.783 294.468C145.598 294.736 145.414 295.004 145.229 295.27L147.228 296.656C146.816 297.248 146.404 297.835 145.99 298.418L144.007 297.014C143.822 297.276 143.636 297.537 143.45 297.797L145.427 299.209C145.004 299.8 144.58 300.385 144.155 300.966L142.195 299.537C142.002 299.801 141.809 300.064 141.616 300.327L143.569 301.764C143.14 302.346 142.709 302.924 142.278 303.497L140.341 302.043L140.195 302.237L140.09 302.376L139.921 302.6L139.759 302.815L141.689 304.276C141.253 304.851 140.816 305.422 140.378 305.988L138.463 304.51C138.263 304.769 138.062 305.028 137.862 305.286L139.769 306.771C139.323 307.343 138.875 307.911 138.427 308.474L136.535 306.973C136.334 307.227 136.132 307.48 135.93 307.732L137.816 309.24C137.365 309.802 136.914 310.36 136.462 310.913L134.592 309.391L134.372 309.661L134.221 309.845L133.97 310.152L135.833 311.681C135.371 312.243 134.908 312.801 134.445 313.355L132.596 311.811C132.388 312.061 132.179 312.31 131.97 312.558L133.812 314.108C133.348 314.658 132.883 315.205 132.417 315.749L130.589 314.186C130.501 314.29 130.412 314.393 130.324 314.496C130.199 314.642 130.073 314.788 129.948 314.934L131.769 316.503C131.293 317.054 130.817 317.602 130.34 318.147L128.532 316.566C128.317 316.812 128.102 317.058 127.886 317.302L129.689 318.888C129.211 319.43 128.732 319.969 128.253 320.505L126.463 318.909C126.332 319.055 126.202 319.202 126.071 319.348L125.807 319.643L127.591 321.244C127.103 321.786 126.615 322.326 126.126 322.863L124.353 321.251C124.133 321.494 123.912 321.736 123.691 321.978L125.459 323.593C124.969 324.128 124.478 324.661 123.987 325.191L122.23 323.567C122.007 323.809 121.783 324.05 121.56 324.291L123.312 325.919C122.815 326.454 122.317 326.986 121.818 327.517L120.075 325.882C119.85 326.122 119.624 326.362 119.398 326.602L121.138 328.24C120.638 328.77 120.138 329.297 119.638 329.824L117.906 328.18C117.679 328.419 117.451 328.658 117.223 328.898L118.952 330.544C118.447 331.074 117.941 331.602 117.435 332.129L115.713 330.477L115.351 330.854L115.025 331.193L116.745 332.847C116.238 333.373 115.731 333.898 115.223 334.423L113.509 332.766L113.077 333.211L112.816 333.481L114.528 335.14C114.217 335.461 113.905 335.782 113.594 336.103C113.395 336.308 113.196 336.513 112.997 336.717L111.288 335.056L110.785 335.573L110.592 335.772L112.299 337.434C111.983 337.759 111.667 338.083 111.35 338.408L110.768 339.005L110.763 339.01L109.057 337.347L108.359 338.064L110.064 339.727L109.508 340.297L109.507 340.298L109.454 340.352L108.525 341.305L106.819 339.642L106.118 340.361L107.824 342.023C107.512 342.343 107.2 342.664 106.888 342.984C106.686 343.192 106.483 343.4 106.281 343.608L104.574 341.946L103.873 342.667L105.581 344.327C105.068 344.855 104.555 345.384 104.042 345.914L102.331 344.257C102.097 344.498 101.863 344.74 101.629 344.982L103.341 346.638C102.828 347.17 102.314 347.703 101.799 348.237L100.082 346.585C99.849 346.828 99.6158 347.07 99.3826 347.313L101.102 348.963C100.592 349.496 100.082 350.03 99.5712 350.566L97.8454 348.921L97.5568 349.224L97.3421 349.45L97.146 349.656L98.8748 351.298C98.3639 351.836 97.853 352.377 97.342 352.92L95.6058 351.284C95.3743 351.53 95.1428 351.776 94.9112 352.023L96.651 353.655C96.146 354.194 95.641 354.735 95.136 355.279L93.3876 353.654L93.1104 353.952C92.9718 354.102 92.8332 354.251 92.6946 354.401L94.4472 356.023C93.942 356.569 93.4369 357.119 92.9318 357.672L91.1693 356.059C90.9403 356.309 90.7112 356.56 90.4821 356.812L92.2493 358.42C91.7523 358.967 91.2553 359.517 90.7585 360.07L88.9804 358.472L88.8114 358.66L88.5602 358.94L88.2977 359.233L90.0809 360.827C89.584 361.384 89.0873 361.944 88.5907 362.508L86.7957 360.924L86.5895 361.158C86.5172 361.24 86.4449 361.322 86.3726 361.405C86.2876 361.501 86.2026 361.598 86.1176 361.695L87.9183 363.274C87.4317 363.83 86.9453 364.389 86.4591 364.953L84.646 363.386L84.4058 363.664L84.2122 363.889L83.9772 364.163L85.7962 365.724C85.3102 366.291 84.8243 366.862 84.3388 367.438L82.5064 365.889L82.3513 366.073L82.1692 366.289C82.0588 366.42 81.9485 366.551 81.8382 366.683L83.6768 368.226C83.2029 368.791 82.7293 369.361 82.256 369.936L80.4037 368.406C80.1866 368.669 79.9694 368.933 79.7523 369.198L81.611 370.721C81.1381 371.299 80.6655 371.882 80.1933 372.469L78.3203 370.96C78.1035 371.229 77.8867 371.5 77.67 371.771L79.5496 373.273C79.0874 373.852 78.6257 374.436 78.1643 375.025L76.2703 373.537C76.0599 373.805 75.8495 374.074 75.6393 374.344L77.5399 375.825C77.0822 376.413 76.6249 377.007 76.1681 377.605L74.2527 376.14C74.0428 376.414 73.833 376.689 73.6233 376.966L75.5454 378.424C75.0949 379.019 74.6448 379.619 74.1952 380.224L72.2583 378.782L72.0722 379.032L71.84 379.345L71.6504 379.602L73.5939 381.037C73.1532 381.635 72.713 382.238 72.2732 382.846L70.3149 381.427C70.1128 381.706 69.9108 381.986 69.7089 382.268L71.6739 383.679C71.2346 384.292 70.7958 384.91 70.3576 385.533L68.3779 384.139C68.1831 384.416 67.9884 384.693 67.7939 384.972L69.7802 386.359C69.3578 386.965 68.936 387.576 68.5147 388.193L66.5142 386.823C66.3205 387.106 66.127 387.39 65.9335 387.675L67.9406 389.037C67.5199 389.658 67.0997 390.285 66.68 390.917L64.6587 389.572C64.5526 389.732 64.4466 389.891 64.3406 390.052C64.2538 390.183 64.1671 390.314 64.0805 390.445L66.1082 391.782C65.7032 392.398 65.2987 393.018 64.8948 393.645L62.8534 392.325C62.6687 392.611 62.4841 392.898 62.2997 393.186L64.3473 394.497C63.9461 395.125 63.5454 395.758 63.1453 396.396L61.0843 395.102C60.9004 395.395 60.7167 395.689 60.5331 395.984L62.6002 397.27C62.2036 397.909 61.8076 398.553 61.4122 399.203L59.3319 397.934C59.232 398.098 59.1322 398.262 59.0324 398.427C58.9569 398.551 58.8815 398.676 58.8061 398.801L60.8921 400.061C60.5111 400.693 60.1306 401.33 59.7507 401.972L57.6522 400.729C57.4777 401.024 57.3032 401.32 57.129 401.617L59.2331 402.852C58.8538 403.499 58.4752 404.152 58.0971 404.81L55.9808 403.592C55.8071 403.894 55.6336 404.197 55.4602 404.501L57.5821 405.711C57.2176 406.351 56.8537 406.997 56.4904 407.648L54.3571 406.455C54.192 406.75 54.027 407.047 53.8622 407.344L56.0007 408.529C55.6419 409.178 55.2837 409.832 54.9261 410.491L52.7764 409.324C52.683 409.496 52.5895 409.668 52.4961 409.841L52.4049 410.01L52.2842 410.234L54.4389 411.394C54.0819 412.058 53.7256 412.727 53.3699 413.403L51.2044 412.26C51.0444 412.563 50.8845 412.867 50.7248 413.173L52.895 414.308C52.5566 414.956 52.2188 415.609 51.8816 416.267L49.7013 415.148C49.5466 415.45 49.3919 415.753 49.2374 416.057L51.4222 417.168C51.0856 417.831 50.7496 418.499 50.4143 419.172L48.2197 418.077C48.0658 418.386 47.9121 418.695 47.7585 419.006L49.9574 420.093C49.6227 420.771 49.2885 421.454 48.9551 422.143L46.7467 421.072C46.6008 421.373 46.4549 421.675 46.3092 421.979L48.5216 423.042C48.2051 423.701 47.8892 424.366 47.5738 425.035L45.3527 423.987C45.2081 424.293 45.0636 424.601 44.9193 424.91L47.1442 425.95C46.8295 426.624 46.5154 427.303 46.2018 427.987L43.9684 426.961C43.8246 427.275 43.681 427.589 43.5375 427.904L45.7747 428.922C45.4618 429.611 45.1495 430.304 44.8378 431.003L42.5925 430C42.5174 430.169 42.4424 430.337 42.3674 430.506L42.2539 430.761L42.1854 430.916L44.4342 431.912C44.139 432.579 43.8443 433.251 43.5502 433.929L41.2939 432.947C41.1591 433.257 41.0244 433.568 40.8898 433.88L43.1495 434.855C42.856 435.536 42.563 436.222 42.2706 436.913L40.0037 435.953C39.9129 436.168 39.8221 436.383 39.7314 436.598L39.6022 436.905L41.8724 437.859C41.5806 438.554 41.2894 439.255 40.9989 439.96L38.7216 439.021L38.5221 439.506L38.4321 439.725L38.3294 439.977L40.6103 440.908C40.3311 441.593 40.0539 442.281 39.7787 442.973L37.4887 442.061C37.3623 442.378 37.2364 442.696 37.1109 443.014L39.4048 443.918C39.1317 444.612 38.8605 445.31 38.5913 446.011L36.2889 445.125C36.2453 445.238 36.2019 445.352 36.1584 445.465L36.0788 445.673L36.0048 445.867L35.9194 446.091L38.2256 446.968C37.9584 447.672 37.6932 448.378 37.43 449.088L35.1158 448.229C34.995 448.554 34.8746 448.88 34.7547 449.206L37.0723 450.058C36.8175 450.752 36.5645 451.45 36.3134 452.15L33.9885 451.315C33.8736 451.635 33.7592 451.955 33.6451 452.276L35.9732 453.104C35.7246 453.804 35.4778 454.508 35.2329 455.214L32.898 454.402C32.7857 454.726 32.6737 455.05 32.5622 455.374L34.9001 456.178C34.6569 456.886 34.4155 457.597 34.176 458.311L31.8317 457.523C31.762 457.73 31.6925 457.938 31.6231 458.145L31.5034 458.504L33.8505 459.285C33.6152 459.993 33.3816 460.704 33.1499 461.417L30.7968 460.651C30.6921 460.973 30.5877 461.295 30.4836 461.618L32.8392 462.377C32.6122 463.083 32.3869 463.79 32.1633 464.5L29.8022 463.756C29.6998 464.08 29.5977 464.406 29.4959 464.731L31.8594 465.47C31.6374 466.181 31.417 466.895 31.1983 467.612L28.8297 466.888C28.7295 467.215 28.6297 467.543 28.5302 467.872L30.9012 468.59C30.684 469.308 30.4685 470.028 30.2547 470.75L27.8789 470.046C27.7824 470.372 27.6863 470.698 27.5905 471.024L29.9684 471.722C29.7605 472.431 29.5542 473.142 29.3494 473.855L26.9671 473.17C26.8733 473.496 26.7799 473.822 26.6869 474.149L29.0712 474.828C28.8679 475.543 28.6661 476.259 28.4659 476.977L26.0774 476.311C25.9858 476.639 25.8945 476.968 25.8035 477.297L28.1938 477.958C27.995 478.678 27.7978 479.399 27.602 480.123L25.2078 479.474C25.1182 479.805 25.029 480.136 24.9401 480.467L27.3361 481.11C27.1439 481.827 26.9532 482.545 26.764 483.265L24.3643 482.634C24.2783 482.961 24.1926 483.289 24.1073 483.616L26.5086 484.242C26.3219 484.959 26.1367 485.677 25.9529 486.397L23.5482 485.783C23.4642 486.112 23.3804 486.441 23.297 486.77L25.7033 487.38C25.5208 488.101 25.3398 488.823 25.1602 489.548L22.7507 488.949C22.6686 489.28 22.5868 489.611 22.5053 489.943L24.9162 490.536C24.7379 491.261 24.561 491.988 24.3856 492.716L21.9716 492.134C21.8922 492.463 21.813 492.793 21.7342 493.123L24.1495 493.7C23.9777 494.419 23.8074 495.139 23.6383 495.861L21.2202 495.294C21.1429 495.623 21.0659 495.953 20.9892 496.283L23.4087 496.845C23.2409 497.568 23.0744 498.292 22.9093 499.016L20.4872 498.464L20.399 498.852C20.3531 499.054 20.3073 499.256 20.2616 499.458L22.6849 500.006C22.521 500.732 22.3584 501.459 22.1972 502.187L19.7713 501.649C19.6977 501.982 19.6243 502.314 19.5511 502.647L21.9781 503.18C21.8188 503.906 21.6608 504.632 21.5041 505.359L19.0748 504.836C19.0037 505.166 18.9328 505.496 18.8621 505.827L21.2925 506.346C21.1379 507.07 20.9845 507.795 20.8324 508.521L18.3998 508.011C18.3303 508.343 18.2611 508.674 18.1922 509.006L20.6258 509.512C20.4748 510.239 20.3251 510.966 20.1767 511.695L17.7409 511.198C17.6731 511.53 17.6056 511.863 17.5383 512.196L19.975 512.688C19.8276 513.418 19.6816 514.147 19.5367 514.878L17.098 514.394C17.0319 514.728 16.966 515.061 16.9004 515.395L19.34 515.875C19.1972 516.601 19.0557 517.327 18.9154 518.055L16.4739 517.583L16.3825 518.058L16.2825 518.58L18.7248 519.047C18.5856 519.775 18.4476 520.503 18.3107 521.233L15.8666 520.774L15.7926 521.168L15.6799 521.772L18.1248 522.227C17.989 522.957 17.8544 523.687 17.721 524.418L15.2743 523.971C15.2134 524.304 15.1527 524.637 15.0923 524.971L17.5397 525.414C17.4073 526.145 17.2762 526.877 17.1461 527.609L14.6971 527.173C14.6379 527.506 14.579 527.839 14.5204 528.172L16.9701 528.603C16.8415 529.333 16.7141 530.063 16.5878 530.793L14.1365 530.369C14.0789 530.703 14.0215 531.036 13.9643 531.369L16.4163 531.79C16.291 532.52 16.1669 533.251 16.0438 533.983L13.5904 533.57C13.5343 533.903 13.4783 534.237 13.4226 534.571L15.8767 534.98C15.7547 535.712 15.6338 536.443 15.5139 537.175L13.0585 536.773L12.9602 537.375L12.8951 537.775L15.3512 538.174C15.2324 538.906 15.1147 539.638 14.998 540.37L12.5406 539.979C12.4874 540.313 12.4344 540.647 12.3816 540.981L14.8396 541.369C14.724 542.102 14.6094 542.834 14.4959 543.567L12.0366 543.185C11.9848 543.519 11.9333 543.853 11.8819 544.188L14.3418 544.566C14.2292 545.298 14.1178 546.031 14.0073 546.763L11.5462 546.392C11.4959 546.726 11.4457 547.06 11.3958 547.394L13.8574 547.762C13.7479 548.495 13.6395 549.227 13.5321 549.96L11.0693 549.599L11.0283 549.878L10.9956 550.102L10.9229 550.601L13.3862 550.959C13.2794 551.694 13.1737 552.429 13.0689 553.163L10.6045 552.811C10.5567 553.146 10.5092 553.481 10.4618 553.816L12.9268 554.165C12.823 554.899 12.7202 555.633 12.6184 556.367L10.1524 556.025C10.106 556.359 10.0598 556.694 10.0138 557.028L12.4803 557.367C12.3794 558.101 12.2796 558.835 12.1808 559.568L9.71326 559.235C9.66818 559.569 9.62331 559.903 9.57865 560.237L12.0466 560.567C11.9486 561.3 11.8516 562.033 11.7556 562.766L9.28663 562.442C9.24256 562.778 9.1987 563.114 9.15505 563.45L11.6245 563.771C11.5287 564.508 11.434 565.244 11.3403 565.98L8.86993 565.665C8.82718 566.001 8.78464 566.336 8.7423 566.671L11.2131 566.983C11.1202 567.719 11.0284 568.454 10.9375 569.188L8.46578 568.882C8.42433 569.217 8.38308 569.551 8.34203 569.886L10.8141 570.189C10.7241 570.923 10.6351 571.657 10.547 572.389L8.07399 572.092L7.95406 573.093L10.4275 573.388C10.3396 574.125 10.2527 574.862 10.1668 575.598L7.69251 575.309L7.57509 576.318L10.0497 576.605C9.96433 577.343 9.8799 578.08 9.79642 578.817L7.32096 578.536L7.20733 579.542L9.68315 579.82C9.60052 580.556 9.51883 581.291 9.43807 582.025L6.96146 581.752C6.92463 582.087 6.88799 582.421 6.85155 582.755L9.3285 583.026C9.24858 583.759 9.16958 584.491 9.0915 585.222L6.61378 584.958C6.57786 585.294 6.54214 585.63 6.50661 585.965L8.98468 586.228C8.90627 586.969 8.8288 587.709 8.75226 588.449L6.27346 588.192C6.23855 588.529 6.20384 588.865 6.16932 589.202L8.64846 589.456C8.57275 590.194 8.49796 590.932 8.4241 591.668L5.94425 591.418C5.91056 591.754 5.87706 592.089 5.84375 592.424L8.32391 592.671C8.25086 593.406 8.17871 594.139 8.10746 594.872L5.62661 594.63C5.59412 594.964 5.56182 595.297 5.5297 595.631L8.01084 595.87C7.93973 596.608 7.86952 597.345 7.80021 598.081L5.31841 597.847C5.28649 598.185 5.25477 598.523 5.22324 598.861L7.70534 599.093C7.63617 599.834 7.56792 600.575 7.50056 601.313L5.01782 601.086C4.98711 601.423 4.95658 601.759 4.92624 602.095L7.40926 602.319C7.3427 603.057 7.27703 603.793 7.21225 604.527L4.72862 604.307C4.69908 604.642 4.66972 604.976 4.64054 605.31L7.12444 605.527C7.06044 606.26 6.99731 606.991 6.93505 607.721L4.45058 607.509C4.42179 607.846 4.39319 608.182 4.36477 608.519L6.8495 608.729C6.78656 609.474 6.72451 610.218 6.66336 610.96L4.17806 610.754C4.15018 611.092 4.12248 611.43 4.09496 611.767L6.5805 611.97C6.52013 612.71 6.46065 613.449 6.40203 614.185L3.91595 613.987C3.88923 614.322 3.86268 614.657 3.83631 614.992L6.32262 615.188C6.26478 615.923 6.20779 616.655 6.15166 617.386L3.66485 617.195C3.63926 617.528 3.61385 617.86 3.5886 618.192L6.07563 618.381L6.03364 618.936C5.99153 619.494 5.9499 620.051 5.90876 620.606L3.42125 620.422C3.39608 620.761 3.37109 621.1 3.34629 621.439L5.83401 621.621C5.7796 622.365 5.72605 623.106 5.67336 623.845L3.18518 623.667C3.16116 624.004 3.13732 624.34 3.11365 624.676L5.60204 624.851C5.55013 625.588 5.49906 626.322 5.44883 627.054L2.96 626.883C2.93711 627.217 2.91438 627.55 2.89183 627.882L5.38085 628.051C5.33091 628.788 5.2818 629.522 5.23353 630.254L2.74409 630.09C2.72155 630.431 2.6992 630.772 2.67702 631.112L5.16666 631.274C5.11802 632.021 5.07024 632.765 5.02331 633.507L2.53326 633.349C2.51187 633.687 2.49065 634.024 2.46961 634.36L4.95985 634.516C4.91369 635.255 4.86838 635.991 4.8239 636.724L2.33326 636.573C2.31299 636.907 2.29288 637.24 2.27295 637.573L4.76375 637.722C4.71999 638.453 4.67705 639.181 4.63492 639.906L2.14374 639.761C2.12378 640.104 2.104 640.446 2.0844 640.788L4.57576 640.931C4.53276 641.681 4.49064 642.428 4.44936 643.172L1.95763 643.034C1.93881 643.372 1.92017 643.71 1.9017 644.047L4.3936 644.184C4.35309 644.924 4.31342 645.661 4.27458 646.395L1.78233 646.263C1.76462 646.597 1.74709 646.93 1.72972 647.263L4.22212 647.393C4.18403 648.123 4.14675 648.85 4.11027 649.573L1.61753 649.447C1.60024 649.789 1.58313 650.131 1.5662 650.472L4.05909 650.596C4.0217 651.349 3.98517 652.098 3.94949 652.843L1.45626 652.723C1.44 653.062 1.4239 653.401 1.40799 653.738L3.90137 653.856C3.86646 654.597 3.83239 655.334 3.79915 656.067L1.30544 655.953C1.29028 656.287 1.2753 656.62 1.26047 656.951L3.75431 657.063C3.72173 657.793 3.68997 658.519 3.65901 659.24L1.16486 659.133C1.15 659.479 1.13533 659.824 1.12084 660.167L3.61513 660.272C3.58334 661.027 3.55244 661.776 3.52238 662.52L1.02779 662.42L0.987189 663.433L3.48191 663.532C3.45262 664.272 3.42417 665.006 3.39653 665.735L0.901521 665.64C0.888916 665.972 0.876481 666.303 0.864212 666.633L3.35935 666.726C3.33181 667.467 3.30512 668.203 3.27925 668.933L0.783834 668.845C0.771575 669.19 0.7595 669.534 0.747605 669.877L3.24315 669.963C3.21707 670.716 3.19187 671.462 3.16751 672.202L0.671699 672.12C0.660588 672.457 0.649652 672.793 0.638888 673.127L3.13482 673.207C3.11123 673.942 3.08847 674.669 3.06652 675.39L0.570327 675.314C0.56031 675.642 0.550461 675.969 0.540776 676.295L3.03708 676.369C3.01437 677.134 2.99257 677.891 2.97165 678.641L0.475081 678.571C0.465496 678.914 0.456093 679.255 0.44687 679.594L2.94355 679.662C2.92334 680.407 2.904 681.144 2.8855 681.873L0.388571 681.81C0.380123 682.142 0.371847 682.472 0.363741 682.801L2.86078 682.862C2.84252 683.604 2.82513 684.337 2.80857 685.062L0.3113 685.005C0.303306 685.353 0.295503 685.7 0.287888 686.044L2.78527 686.1C2.76859 686.856 2.75283 687.603 2.73793 688.339L0.240312 688.288C0.233503 688.624 0.226873 688.957 0.220418 689.288L2.71813 689.337C2.70434 690.047 2.69135 690.747 2.67913 691.436L2.67824 691.486L0.180308 691.442C0.174035 691.796 0.167962 692.146 0.162084 692.495L2.66012 692.537C2.64723 693.304 2.63528 694.058 2.62422 694.798L0.125961 694.761C0.120902 695.098 0.116027 695.433 0.111332 695.765L2.60969 695.8C2.59943 696.528 2.59003 697.243 2.58144 697.944L0.082881 697.914C0.0785151 698.268 0.0743542 698.619 0.0703917 698.966L2.56905 698.995C2.5603 699.767 2.55252 700.522 2.54565 701.258L0.0467782 701.235C0.0436225 701.57 0.0406532 701.902 0.0378623 702.23L2.53683 702.252C2.53053 702.998 2.52517 703.724 2.52063 704.431L0.0214725 704.414C0.0191493 704.772 0.0170398 705.125 0.015132 705.472L2.51439 705.486C2.51026 706.249 2.50711 706.987 2.5048 707.699L0.00534534 707.69L0.00263023 708.648L2.50217 708.654C2.50035 709.457 2.49961 710.226 2.49975 710.957L0 710.957C3.33786e-05 711.298 0.000257492 711.63 0.00065136 711.955L2.50049 711.952C2.50099 712.34 2.50174 712.717 2.5027 713.082C2.50369 713.458 2.5049 713.822 2.50629 714.172L0.0062623 714.182C0.00764799 714.54 0.00922585 714.885 0.0109558 715.217L2.51108 715.204C2.51545 716.026 2.52076 716.766 2.52638 717.42L0.0260463 717.441C0.0291147 717.804 0.0322857 718.141 0.0354595 718.453L2.53589 718.427L2.54155 718.948C2.54621 719.359 2.55073 719.71 2.55475 720H3.55485C3.55079 719.708 3.54621 719.353 3.54148 718.937L3.53584 718.417L11.5644 718.335L11.57 718.846C11.5752 719.31 11.5803 719.696 11.5846 720H12.5848C12.5804 719.694 12.5753 719.305 12.5699 718.835L12.5644 718.325L14.0347 718.31C14.0316 718.007 14.0285 717.678 14.0255 717.323L12.555 717.335C12.5495 716.692 12.5443 715.963 12.5399 715.152L14.0108 715.144C14.0091 714.818 14.0075 714.48 14.0062 714.128L12.5352 714.134C12.5338 713.787 12.5326 713.428 12.5317 713.056C12.5307 712.696 12.53 712.323 12.5295 711.94L14.0006 711.938C14.0003 711.619 14 711.291 14 710.956L12.5287 710.956C12.5286 710.233 12.5293 709.473 12.5311 708.677L14.0026 708.681L14.0033 708.387L14.0053 707.737L12.5337 707.732C12.536 707.027 12.5392 706.297 12.5432 705.541L14.0149 705.549C14.0168 705.206 14.0189 704.858 14.0212 704.505L12.5494 704.496C12.5539 703.796 12.5592 703.076 12.5655 702.337L14.0374 702.349C14.0401 702.026 14.043 701.698 14.0462 701.366L12.5742 701.353C12.581 700.623 12.5887 699.875 12.5974 699.109L14.0695 699.126C14.0734 698.783 14.0775 698.436 14.0818 698.086L12.6097 698.068C12.6182 697.373 12.6275 696.664 12.6377 695.942L14.1099 695.963C14.1146 695.635 14.1194 695.304 14.1244 694.971L12.6521 694.949C12.6631 694.214 12.6749 693.467 12.6877 692.706L14.1601 692.731C14.1659 692.387 14.1719 692.04 14.1781 691.69L12.7057 691.664L12.7066 691.614C12.7187 690.93 12.7316 690.236 12.7452 689.532L14.2178 689.561L14.2374 688.573L12.7649 688.543C12.7729 688.144 12.7813 687.742 12.7898 687.338C12.797 687.001 12.8043 686.662 12.8118 686.321L14.2845 686.354C14.292 686.013 14.2997 685.67 14.3076 685.325L12.8349 685.292C12.8514 684.573 12.8686 683.846 12.8867 683.11L14.3595 683.146L14.384 682.166L12.9113 682.128C12.9296 681.405 12.9488 680.674 12.9688 679.935L14.4417 679.975C14.4508 679.639 14.4601 679.302 14.4696 678.963L12.9967 678.922C13.0175 678.178 13.0391 677.426 13.0616 676.667L14.5346 676.711C14.5442 676.389 14.5539 676.066 14.5638 675.741L13.0909 675.696C13.1126 674.981 13.1352 674.259 13.1586 673.53L14.6316 673.578C14.6423 673.247 14.6531 672.915 14.6641 672.581L13.1911 672.533C13.2152 671.799 13.2402 671.058 13.2661 670.311L14.7392 670.362L14.7592 669.789L14.775 669.341L13.3019 669.289C13.3276 668.565 13.3541 667.834 13.3814 667.099L14.8545 667.154L14.8679 666.797L14.8914 666.172L13.4183 666.116C13.4457 665.392 13.474 664.664 13.503 663.93L14.9762 663.988C14.9894 663.655 15.0028 663.321 15.0164 662.985L13.5432 662.926C13.573 662.187 13.6037 661.444 13.6352 660.695L15.1084 660.757C15.1227 660.417 15.1373 660.076 15.1519 659.734L13.6787 659.671C13.7095 658.955 13.741 658.235 13.7733 657.51L15.2465 657.576L15.2718 657.012L15.291 656.589L13.8178 656.522C13.8508 655.795 13.8846 655.064 13.9192 654.328L15.3924 654.398C15.4082 654.064 15.4241 653.729 15.4402 653.394L13.967 653.323C14.0024 652.584 14.0386 651.841 14.0757 651.093L15.5489 651.167L15.5684 650.776L15.5997 650.153L14.1265 650.079C14.1627 649.362 14.1997 648.641 14.2375 647.916L15.7107 647.993C15.7278 647.664 15.7452 647.334 15.7627 647.004L14.2895 646.926C14.328 646.198 14.3674 645.467 14.4076 644.732L15.8808 644.813L15.9361 643.81L14.4629 643.728C14.5038 642.991 14.5456 642.25 14.5883 641.505L16.0614 641.59C16.0808 641.252 16.1004 640.913 16.1201 640.574L14.647 640.488C14.6888 639.769 14.7314 639.047 14.7748 638.322L16.2479 638.41L16.2765 637.934L16.3075 637.421L14.8344 637.332C14.8785 636.605 14.9235 635.875 14.9693 635.142L16.4423 635.234L16.4716 634.767L16.5053 634.234L15.0322 634.141C15.0788 633.405 15.1261 632.667 15.1744 631.926L16.6474 632.022C16.6693 631.686 16.6914 631.349 16.7137 631.012L15.2407 630.915C15.2886 630.189 15.3373 629.461 15.3868 628.73L16.8597 628.83C16.882 628.501 16.9045 628.172 16.9271 627.842L15.4542 627.741C15.504 627.015 15.5547 626.287 15.6062 625.556L17.079 625.66C17.1024 625.329 17.1259 624.997 17.1497 624.664L15.6769 624.559C15.7291 623.826 15.7822 623.091 15.8362 622.354L17.3089 622.462L17.383 621.456L15.9103 621.347C15.9511 620.796 15.9924 620.243 16.0342 619.69L16.0757 619.142L17.5483 619.254C17.5733 618.925 17.5984 618.597 17.6237 618.268L16.1511 618.155C16.2068 617.43 16.2633 616.704 16.3206 615.976L17.7931 616.092C17.8191 615.761 17.8453 615.43 17.8717 615.099L16.3993 614.981C16.4575 614.251 16.5164 613.519 16.5763 612.786L18.0486 612.906L18.1306 611.906L16.6584 611.784C16.7191 611.049 16.7806 610.312 16.843 609.573L18.315 609.698C18.3431 609.365 18.3714 609.033 18.3998 608.7L16.9278 608.574C16.9895 607.851 17.0521 607.126 17.1155 606.4L18.5874 606.529C18.6162 606.199 18.6452 605.869 18.6743 605.539L17.2025 605.409C17.2668 604.681 17.3318 603.952 17.3978 603.222L18.8695 603.355C18.8994 603.023 18.9296 602.691 18.9599 602.359L17.4883 602.225C17.5551 601.493 17.6227 600.76 17.6912 600.025L19.1626 600.162L19.1919 599.85L19.2566 599.161L17.7853 599.022C17.854 598.294 17.9235 597.564 17.994 596.832L19.4651 596.974L19.518 596.427L19.5607 595.987L18.0897 595.844C18.1603 595.118 18.2318 594.391 18.3042 593.663L19.775 593.81C19.8079 593.479 19.8409 593.149 19.8741 592.818L18.4034 592.67C18.4766 591.941 18.5507 591.211 18.6257 590.48L20.0962 590.631C20.1302 590.299 20.1645 589.967 20.1989 589.635L18.7285 589.482C18.8043 588.75 18.881 588.017 18.9586 587.283L20.4289 587.439L20.5345 586.445L19.0644 586.288C19.1418 585.564 19.22 584.839 19.2991 584.113L20.769 584.273L20.8239 583.772L20.8774 583.285L19.4076 583.123C19.4876 582.396 19.5684 581.669 19.6502 580.941L21.1197 581.106L21.1745 580.62L21.2317 580.114L19.7623 579.947C19.845 579.218 19.9285 578.489 20.013 577.758L21.4822 577.929L21.5332 577.489L21.5979 576.934L20.1289 576.762C20.2139 576.034 20.2999 575.305 20.3868 574.575L21.8556 574.751C21.8948 574.422 21.9342 574.093 21.9738 573.764L20.5051 573.587C20.5923 572.862 20.6804 572.137 20.7694 571.411L22.2378 571.591C22.2782 571.262 22.3188 570.932 22.3596 570.603L20.8914 570.421C20.9813 569.694 21.0722 568.968 21.164 568.24L22.6319 568.426C22.6736 568.096 22.7155 567.766 22.7576 567.435L21.2898 567.248C21.3825 566.52 21.4761 565.792 21.5707 565.064L23.0383 565.255C23.0812 564.924 23.1244 564.593 23.1678 564.263L21.7004 564.07C21.7953 563.346 21.8912 562.621 21.9881 561.896L23.4552 562.093C23.4991 561.764 23.5432 561.435 23.5876 561.106L22.1207 560.908C22.2183 560.184 22.317 559.459 22.4166 558.734L23.8832 558.936C23.9285 558.607 23.9739 558.278 24.0196 557.949L22.5531 557.745C22.6537 557.02 22.7552 556.295 22.8578 555.569L24.3239 555.776C24.3704 555.447 24.4172 555.118 24.4642 554.789L22.9982 554.58C23.1017 553.854 23.2061 553.128 23.3116 552.403L24.7772 552.616C24.8249 552.287 24.8729 551.959 24.9211 551.631L23.4556 551.416C23.5617 550.692 23.6687 549.969 23.7768 549.245L25.2419 549.465C25.2909 549.136 25.3402 548.808 25.3897 548.48L23.9248 548.259C24.0338 547.536 24.1439 546.812 24.2549 546.089L25.7194 546.314L25.8713 545.33L24.407 545.103C24.5191 544.38 24.6321 543.657 24.7462 542.934L26.2101 543.166C26.2619 542.838 26.3139 542.51 26.3662 542.182L24.9025 541.949C25.0175 541.226 25.1337 540.504 25.2508 539.781L26.7141 540.019C26.7673 539.691 26.8207 539.364 26.8744 539.036L25.4113 538.797C25.5295 538.074 25.6487 537.353 25.7691 536.631L27.2317 536.875C27.2863 536.548 27.3411 536.221 27.3962 535.894L25.9338 535.648C26.0551 534.926 26.1775 534.206 26.3009 533.485L27.7628 533.736C27.8189 533.409 27.8751 533.082 27.9316 532.756L26.47 532.503C26.5944 531.783 26.72 531.063 26.8466 530.344L28.3078 530.602L28.3968 530.098L28.481 529.624L27.02 529.364C27.1481 528.643 27.2774 527.922 27.4077 527.202L28.8681 527.467C28.9273 527.14 28.9867 526.814 29.0463 526.487L27.5862 526.22C27.7176 525.501 27.8501 524.781 27.9838 524.063L29.4433 524.335C29.504 524.009 29.5649 523.683 29.6261 523.357L28.1668 523.083C28.3015 522.366 28.4373 521.648 28.5743 520.932L30.033 521.211C30.0952 520.886 30.1576 520.561 30.2202 520.237L28.7619 519.955C28.8999 519.239 29.0391 518.524 29.1795 517.81L30.6372 518.096C30.7014 517.77 30.7658 517.444 30.8304 517.118L29.373 516.829C29.5154 516.111 29.6591 515.393 29.8039 514.676L31.2606 514.97C31.3264 514.645 31.3924 514.32 31.4586 513.995L30.0022 513.698C30.1481 512.982 30.2953 512.267 30.4436 511.552L31.8992 511.855L32.0119 511.314L32.1019 510.884L30.6466 510.579C30.7961 509.866 30.9467 509.153 31.0986 508.442L32.5531 508.752C32.622 508.43 32.6911 508.108 32.7606 507.786L31.3065 507.472C31.4603 506.758 31.6154 506.044 31.7718 505.332L33.225 505.651C33.2963 505.327 33.3679 505.002 33.4397 504.678L31.9868 504.356C32.1451 503.642 32.3046 502.928 32.4655 502.216L33.9174 502.544L34.0002 502.178C34.0457 501.977 34.0913 501.776 34.137 501.576L32.6855 501.245C32.8475 500.534 33.0108 499.824 33.1753 499.115L34.6258 499.452C34.7005 499.131 34.7754 498.81 34.8505 498.489L33.4005 498.15C33.5662 497.442 33.7332 496.736 33.9015 496.031L35.3505 496.378C35.4272 496.057 35.5041 495.736 35.5814 495.416L34.1328 495.067C34.3047 494.353 34.478 493.641 34.6526 492.931L36.1 493.287L36.177 492.974L36.268 492.606L36.3384 492.322L34.8915 491.963C35.0674 491.254 35.2446 490.546 35.4231 489.841L36.8688 490.207C36.9497 489.887 37.031 489.567 37.1125 489.248L35.6674 488.879C35.8472 488.175 36.0284 487.472 36.2109 486.771L37.6547 487.147C37.7005 486.971 37.7464 486.795 37.7924 486.62L37.9039 486.195L36.4607 485.816C36.6457 485.112 36.8321 484.409 37.0199 483.709L38.4617 484.096C38.5478 483.775 38.6342 483.454 38.7209 483.134L37.2798 482.744C37.471 482.037 37.6636 481.332 37.8577 480.63L39.2973 481.028C39.3853 480.709 39.4736 480.391 39.5622 480.074L38.1233 479.672C38.3188 478.971 38.5156 478.272 38.714 477.575L40.1513 477.984C40.2412 477.669 40.3314 477.354 40.4219 477.039L38.9854 476.626C39.1851 475.931 39.3862 475.237 39.5889 474.546L41.0237 474.968C41.1161 474.653 41.2088 474.338 41.3019 474.024L39.8679 473.599C40.0763 472.896 40.2861 472.194 40.4976 471.495L41.9297 471.928C42.0255 471.612 42.1216 471.296 42.2181 470.98L40.7869 470.543C40.9997 469.846 41.2142 469.151 41.4302 468.459L42.8593 468.905C42.9111 468.739 42.9629 468.574 43.0148 468.409C43.0611 468.261 43.1074 468.114 43.1539 467.967L41.7257 467.516C41.9431 466.826 42.1621 466.138 42.3826 465.453L43.8087 465.913C43.9086 465.603 44.0088 465.293 44.1094 464.984L42.6844 464.52C42.9094 463.828 43.1361 463.138 43.3645 462.451L44.7872 462.925C44.8918 462.611 44.9967 462.297 45.1019 461.984L43.6803 461.506C43.9126 460.814 44.1466 460.125 44.3824 459.438L45.8014 459.926L45.9253 459.567C45.991 459.377 46.0568 459.187 46.1227 458.997L44.7048 458.504C44.942 457.82 45.181 457.14 45.4216 456.462L46.8368 456.964C46.9457 456.658 47.055 456.352 47.1647 456.047L45.7508 455.539C45.9936 454.862 46.2381 454.188 46.4844 453.517L47.8954 454.035C47.9486 453.89 48.0019 453.746 48.0553 453.601C48.1166 453.435 48.178 453.269 48.2395 453.104L46.8299 452.58C47.084 451.895 47.34 451.213 47.5978 450.534L49.0043 451.07C49.121 450.763 49.2381 450.457 49.3555 450.152L47.9505 449.611C48.2099 448.936 48.4711 448.264 48.7343 447.595L50.1359 448.147C50.255 447.845 50.3744 447.544 50.4942 447.243L49.0942 446.685C49.3588 446.02 49.6254 445.358 49.8939 444.699L51.2903 445.269L51.3569 445.106L51.6643 444.358L50.2693 443.783C50.5516 443.098 50.8344 442.417 51.1177 441.742L52.5099 442.327C52.6382 442.021 52.7666 441.717 52.8952 441.413L51.5043 440.824C51.788 440.153 52.0723 439.487 52.357 438.826L53.745 439.425C53.801 439.295 53.857 439.165 53.913 439.036C53.986 438.867 54.0591 438.699 54.1322 438.531L52.7456 437.928C53.0307 437.271 53.3164 436.619 53.6026 435.972L54.9862 436.585C55.1159 436.292 55.2458 436 55.3758 435.709L53.9936 435.092C54.2955 434.415 54.598 433.743 54.901 433.076L56.2799 433.703C56.4171 433.402 56.5544 433.102 56.6918 432.802L55.3144 432.17C55.6179 431.508 55.9218 430.851 56.2263 430.199L57.6003 430.842C57.7382 430.547 57.8761 430.253 58.0142 429.961L56.6418 429.313C56.9467 428.666 57.2521 428.024 57.558 427.386L58.9269 428.044C59.0659 427.755 59.2049 427.467 59.3441 427.18L57.9769 426.517C58.299 425.852 58.6217 425.192 58.9449 424.537L60.3083 425.211C60.4547 424.915 60.6011 424.62 60.7476 424.326L59.386 423.647C59.7097 422.997 60.0339 422.352 60.3587 421.713L61.7163 422.403C61.8633 422.114 62.0104 421.826 62.1576 421.539L60.8018 420.844C61.1269 420.209 61.4526 419.579 61.7789 418.954L63.1305 419.661C63.2823 419.371 63.4342 419.082 63.5862 418.794L62.2365 418.081C62.5792 417.431 62.9225 416.786 63.2663 416.146L64.6115 416.87C64.7671 416.581 64.9228 416.293 65.0786 416.006L63.7355 415.277C64.0797 414.642 64.4246 414.012 64.7699 413.388L66.1084 414.129L66.262 413.852C66.3671 413.663 66.4722 413.474 66.5774 413.286L65.2412 412.539C65.5906 411.913 65.9406 411.292 66.2912 410.676L67.6226 411.435L67.7976 411.128C67.9035 410.943 68.0095 410.758 68.1155 410.574L66.7864 409.809C67.1498 409.177 67.5138 408.549 67.8783 407.927L69.2022 408.704L69.3033 408.532L69.4397 408.301C69.5255 408.155 69.6114 408.01 69.6972 407.865L68.3757 407.082C68.7406 406.465 69.1061 405.853 69.4722 405.246L70.7884 406.041C70.9539 405.767 71.1196 405.494 71.2853 405.223L69.9716 404.422C70.3512 403.798 70.7315 403.179 71.1123 402.566L72.4203 403.38C72.5937 403.101 72.7673 402.823 72.9409 402.547L71.6355 401.727C72.0194 401.114 72.4039 400.507 72.789 399.905L74.0886 400.737C74.2627 400.465 74.437 400.194 74.6113 399.925L73.3144 399.086C73.7018 398.486 74.0899 397.89 74.4785 397.299L75.7694 398.15C75.9512 397.875 76.1331 397.6 76.3151 397.326L75.027 396.469C75.4295 395.863 75.8325 395.262 76.2361 394.666L77.518 395.536C77.7005 395.267 77.8831 394.999 78.0658 394.732L76.7868 393.857C77.1908 393.265 77.5954 392.679 78.0006 392.098L79.2732 392.986C79.4568 392.723 79.6404 392.461 79.8242 392.2L78.5545 391.306C78.9748 390.708 79.3957 390.115 79.8171 389.527L81.0803 390.434C81.2708 390.169 81.4615 389.905 81.6523 389.641L80.3921 388.728C80.814 388.145 81.2365 387.566 81.6595 386.992L82.913 387.917L83.1319 387.621C83.2503 387.462 83.3687 387.302 83.4871 387.143L82.2366 386.212C82.6681 385.631 83.1002 385.055 83.5328 384.484L84.7767 385.428C84.9749 385.166 85.1732 384.906 85.3717 384.647L84.1309 383.697C84.5697 383.123 85.009 382.552 85.4489 381.987L86.683 382.948C86.7663 382.841 86.8496 382.734 86.933 382.628C87.0487 382.48 87.1644 382.332 87.2801 382.185L86.0491 381.218C86.4926 380.652 86.9367 380.091 87.3813 379.533L88.6058 380.512C88.8111 380.255 89.0166 379.999 89.2222 379.744L88.0008 378.76C88.4553 378.194 88.9104 377.633 89.3659 377.076L90.5807 378.072C90.6722 377.96 90.7638 377.849 90.8553 377.737L91.017 377.541L91.1993 377.32L89.9875 376.319C90.4437 375.766 90.9004 375.216 91.3576 374.67L92.5631 375.682C92.7749 375.429 92.9869 375.177 93.1991 374.926L91.9965 373.91C92.4653 373.354 92.9347 372.802 93.4044 372.254L94.6007 373.281C94.8133 373.033 95.0261 372.786 95.2389 372.54L94.0454 371.508C94.5158 370.963 94.9866 370.421 95.4579 369.883L96.6455 370.924L96.7823 370.768L96.9285 370.601C97.0504 370.463 97.1725 370.324 97.2945 370.186L96.1096 369.14C96.5911 368.594 97.073 368.05 97.5554 367.51L98.7347 368.564C98.9531 368.32 99.1717 368.076 99.3904 367.833L98.2136 366.774C98.6966 366.236 99.18 365.701 99.6637 365.169L100.835 366.236C101.056 365.993 101.277 365.751 101.498 365.51L100.329 364.44C100.821 363.901 101.314 363.365 101.807 362.831L102.971 363.909C103.116 363.752 103.26 363.596 103.405 363.44L103.642 363.185L102.48 362.105C102.914 361.637 103.349 361.17 103.784 360.706L103.962 360.516L105.12 361.603C105.345 361.363 105.57 361.123 105.796 360.884L104.639 359.795C105.14 359.262 105.642 358.732 106.144 358.203L107.297 359.298C107.524 359.058 107.752 358.819 107.98 358.58L106.828 357.482C107.331 356.955 107.834 356.429 108.337 355.904L109.485 357.006C109.714 356.767 109.943 356.529 110.172 356.291L109.025 355.188C109.532 354.659 110.041 354.132 110.549 353.606L111.694 354.713L112.386 353.997L111.242 352.889C111.751 352.364 112.261 351.839 112.77 351.315L113.912 352.425L114.607 351.71L113.466 350.599C113.978 350.073 114.49 349.547 115.003 349.021L116.143 350.133L116.842 349.416L115.702 348.304L116.719 347.261L117.241 346.726L118.382 347.838L119.082 347.119L117.942 346.008L117.951 345.998C118.462 345.474 118.973 344.95 119.484 344.425L120.625 345.536L121.327 344.814L120.185 343.704C120.7 343.175 121.214 342.646 121.729 342.115L122.872 343.222C123.106 342.98 123.34 342.739 123.574 342.497L122.43 341.391C122.943 340.861 123.456 340.329 123.969 339.796L125.115 340.898C125.349 340.655 125.582 340.412 125.816 340.169L124.669 339.069C125.183 338.534 125.696 337.998 126.209 337.46L127.359 338.555C127.592 338.311 127.825 338.066 128.058 337.82L126.907 336.727C127.417 336.191 127.927 335.653 128.436 335.113L129.59 336.2C129.822 335.954 130.054 335.707 130.286 335.459L129.13 334.375C129.64 333.833 130.149 333.288 130.658 332.741L131.818 333.818C132.049 333.569 132.281 333.32 132.512 333.07L131.35 331.995C131.853 331.452 132.356 330.905 132.859 330.356L134.026 331.423C134.255 331.172 134.484 330.92 134.713 330.668L133.544 329.605C134.047 329.053 134.55 328.498 135.052 327.94L136.226 328.994C136.454 328.739 136.682 328.484 136.91 328.228L135.734 327.179C136.228 326.626 136.722 326.07 137.215 325.51L138.397 326.55C138.503 326.43 138.609 326.309 138.715 326.189C138.834 326.053 138.954 325.916 139.073 325.78L137.888 324.744C138.382 324.181 138.875 323.614 139.367 323.044L140.557 324.069C140.782 323.808 141.007 323.546 141.231 323.283L140.038 322.263C140.52 321.7 141.002 321.133 141.484 320.562L142.683 321.571C142.903 321.309 143.123 321.047 143.343 320.784L142.14 319.78C142.622 319.205 143.102 318.626 143.582 318.042L144.791 319.034C144.906 318.895 145.02 318.755 145.135 318.615C145.186 318.552 145.237 318.489 145.289 318.426C145.342 318.361 145.395 318.296 145.449 318.23L144.237 317.244C144.707 316.668 145.176 316.088 145.645 315.503L146.863 316.477C146.981 316.33 147.099 316.182 147.217 316.034C147.313 315.914 147.408 315.794 147.503 315.674L146.282 314.705C146.749 314.118 147.215 313.527 147.68 312.93L148.908 313.887C149.121 313.613 149.333 313.339 149.545 313.064L148.314 312.114C148.771 311.524 149.227 310.929 149.683 310.329L150.92 311.266C151.126 310.994 151.332 310.721 151.538 310.447L150.297 309.516C150.747 308.918 151.196 308.314 151.645 307.706L152.893 308.624C153.098 308.345 153.302 308.066 153.507 307.785L152.256 306.873C152.7 306.266 153.143 305.654 153.585 305.037L154.842 305.935C155.04 305.659 155.237 305.381 155.434 305.103L154.174 304.21C154.606 303.602 155.036 302.988 155.467 302.369L156.734 303.248C156.93 302.965 157.126 302.68 157.323 302.394L156.053 301.522C156.482 300.898 156.911 300.269 157.339 299.634L158.615 300.493C158.707 300.356 158.799 300.218 158.892 300.081C158.989 299.935 159.087 299.788 159.185 299.642L157.905 298.789C158.317 298.172 158.728 297.55 159.139 296.923L160.424 297.761C160.511 297.629 160.597 297.496 160.684 297.363C160.785 297.207 160.886 297.052 160.986 296.896L159.698 296.063C160.107 295.431 160.516 294.793 160.924 294.149L162.219 294.968L162.292 294.852L162.417 294.653C162.537 294.463 162.657 294.272 162.777 294.08L161.479 293.268C161.874 292.64 162.267 292.006 162.659 291.367L163.963 292.166C164.141 291.876 164.319 291.584 164.496 291.292L163.19 290.499C163.579 289.86 163.967 289.215 164.354 288.565L165.665 289.345C165.773 289.163 165.881 288.981 165.989 288.799C166.058 288.682 166.126 288.566 166.195 288.449L164.881 287.675C165.265 287.024 165.648 286.367 166.031 285.704L167.351 286.463C167.519 286.171 167.687 285.878 167.854 285.584L166.532 284.83C166.899 284.187 167.266 283.538 167.632 282.884L168.959 283.625C169.126 283.326 169.293 283.026 169.46 282.724L168.13 281.989C168.495 281.33 168.859 280.666 169.222 279.995L170.557 280.718C170.723 280.411 170.888 280.103 171.054 279.794L169.716 279.078C170.067 278.426 170.416 277.768 170.764 277.104L172.107 277.808C172.264 277.508 172.421 277.207 172.578 276.905L171.233 276.207C171.577 275.547 171.919 274.882 172.261 274.21L173.61 274.896C173.69 274.739 173.77 274.581 173.85 274.423C173.926 274.273 174.002 274.123 174.077 273.972L172.727 273.292C173.068 272.616 173.408 271.935 173.747 271.248L175.102 271.916L175.266 271.583L175.342 271.427L175.437 271.234L175.557 270.988L174.2 270.325C174.523 269.666 174.844 269.002 175.165 268.333L176.526 268.984C176.579 268.873 176.632 268.761 176.686 268.649L176.777 268.457C176.84 268.326 176.902 268.194 176.964 268.063L175.601 267.417C175.921 266.743 176.24 266.064 176.558 265.379L177.925 266.013C177.99 265.875 178.054 265.736 178.118 265.597C178.199 265.422 178.28 265.247 178.36 265.071L176.992 264.442C177.309 263.753 177.626 263.058 177.941 262.358L179.314 262.976L179.404 262.776L179.562 262.424L179.726 262.056L178.352 261.444C178.651 260.774 178.949 260.099 179.247 259.419L180.624 260.021C180.76 259.711 180.896 259.399 181.031 259.086L179.652 258.489C179.949 257.804 180.245 257.115 180.541 256.42L181.923 257.007C182.058 256.69 182.192 256.371 182.327 256.052L180.943 255.47C181.237 254.77 181.531 254.066 181.824 253.356L183.211 253.927C183.338 253.619 183.465 253.311 183.591 253.001L182.203 252.433C182.48 251.756 182.757 251.074 183.032 250.387L184.423 250.944C184.549 250.63 184.675 250.315 184.8 250L183.407 249.447C183.682 248.755 183.956 248.059 184.23 247.358L185.625 247.901L185.72 247.658L185.79 247.478C185.86 247.298 185.929 247.118 185.999 246.937L184.602 246.398C184.875 245.692 185.147 244.982 185.418 244.266L186.817 244.795L186.903 244.569L187.003 244.305C187.063 244.145 187.123 243.986 187.182 243.826L185.781 243.302C186.043 242.604 186.302 241.902 186.559 241.196L187.964 241.707C188.081 241.384 188.198 241.061 188.314 240.737L186.907 240.232C187.161 239.524 187.413 238.812 187.663 238.096L189.073 238.587C189.187 238.26 189.301 237.932 189.413 237.604L188.001 237.119C188.248 236.402 188.492 235.681 188.734 234.958L190.15 235.43C190.213 235.243 190.275 235.054 190.338 234.866C190.382 234.731 190.427 234.596 190.471 234.461L189.054 233.994C189.288 233.286 189.519 232.575 189.748 231.861L191.169 232.317C191.274 231.99 191.378 231.663 191.482 231.336L190.06 230.886C190.287 230.169 190.512 229.45 190.734 228.727L192.159 229.166C192.216 228.982 192.273 228.797 192.33 228.612C192.374 228.466 192.419 228.32 192.463 228.174L191.037 227.74C191.256 227.02 191.473 226.297 191.689 225.571L193.118 225.994C193.214 225.669 193.31 225.343 193.406 225.016L191.975 224.598C192.185 223.883 192.392 223.165 192.598 222.445L194.031 222.853C194.124 222.524 194.218 222.195 194.31 221.865L192.876 221.461C193.08 220.739 193.281 220.014 193.481 219.287L194.917 219.681C195.008 219.349 195.099 219.017 195.189 218.684L193.752 218.294C193.948 217.57 194.143 216.844 194.335 216.116L195.775 216.496C195.861 216.168 195.948 215.839 196.033 215.511L194.593 215.135C194.781 214.414 194.967 213.692 195.152 212.967L196.594 213.334L196.704 212.903C196.751 212.716 196.799 212.528 196.846 212.341L195.402 211.978C195.585 211.252 195.766 210.523 195.945 209.793L197.39 210.147C197.472 209.814 197.554 209.481 197.634 209.147L196.188 208.796C196.365 208.068 196.539 207.339 196.712 206.608L198.16 206.95C198.238 206.62 198.316 206.29 198.393 205.959L196.944 205.621C197.113 204.896 197.281 204.17 197.447 203.442L198.898 203.773C198.973 203.441 199.049 203.109 199.124 202.776L197.672 202.449C197.837 201.72 198 200.989 198.161 200.257L199.614 200.576C199.687 200.242 199.76 199.908 199.833 199.573L198.379 199.257C198.538 198.526 198.696 197.793 198.851 197.059L200.306 197.368L200.409 196.884C200.445 196.714 200.48 196.544 200.516 196.373L199.06 196.068C199.213 195.34 199.364 194.611 199.514 193.881L200.971 194.179C201.039 193.846 201.107 193.513 201.174 193.179L199.717 192.884C199.865 192.153 200.011 191.42 200.156 190.686L201.615 190.975L201.703 190.53C201.739 190.343 201.776 190.157 201.812 189.97L200.353 189.685C200.496 188.951 200.638 188.216 200.779 187.48L202.239 187.758C202.303 187.426 202.366 187.093 202.428 186.76L200.967 186.484C201.105 185.754 201.241 185.023 201.376 184.29L202.838 184.559C202.9 184.225 202.961 183.891 203.022 183.557L201.559 183.291C201.692 182.558 201.824 181.824 201.955 181.089L203.419 181.349C203.478 181.014 203.537 180.679 203.596 180.343L202.132 180.086C202.261 179.351 202.389 178.614 202.515 177.877L203.981 178.128C204.038 177.794 204.095 177.46 204.151 177.125L202.686 176.877C202.81 176.144 202.933 175.411 203.054 174.677L204.521 174.919L204.61 174.376L204.686 173.915L203.219 173.675C203.339 172.94 203.458 172.205 203.575 171.469L205.043 171.704C205.097 171.368 205.15 171.033 205.203 170.698L203.735 170.466C203.851 169.729 203.966 168.993 204.079 168.255L205.549 168.482C205.582 168.267 205.615 168.053 205.647 167.839L205.703 167.475L204.233 167.251C204.345 166.516 204.456 165.78 204.565 165.045L206.036 165.263C206.086 164.928 206.135 164.593 206.184 164.257L204.713 164.041C204.822 163.305 204.928 162.569 205.034 161.832L206.506 162.043C206.549 161.742 206.592 161.441 206.635 161.139L206.649 161.036L205.177 160.827C205.282 160.09 205.385 159.353 205.487 158.616L206.96 158.82C207.006 158.484 207.052 158.148 207.098 157.812L205.625 157.611C205.726 156.873 205.825 156.136 205.924 155.398L207.398 155.595C207.442 155.259 207.487 154.923 207.531 154.587L206.057 154.393C206.154 153.655 206.25 152.918 206.345 152.18L207.82 152.37C207.851 152.127 207.882 151.883 207.913 151.64L207.948 151.362L206.473 151.174C206.567 150.437 206.659 149.7 206.75 148.962L208.226 149.145L208.302 148.534L208.35 148.138L206.874 147.957C206.964 147.218 207.054 146.48 207.142 145.741L208.619 145.917L208.657 145.595C208.684 145.366 208.711 145.136 208.738 144.907L207.261 144.733C207.348 143.994 207.434 143.255 207.519 142.517L208.997 142.687C209.035 142.35 209.074 142.014 209.112 141.678L207.634 141.51C207.717 140.772 207.8 140.034 207.881 139.297L209.36 139.46C209.397 139.124 209.434 138.789 209.47 138.453L207.991 138.292C208.072 137.552 208.152 136.814 208.23 136.075L209.71 136.232L209.767 135.692L209.816 135.22L208.337 135.065C208.414 134.324 208.491 133.584 208.566 132.845L210.047 132.996L210.097 132.502L210.149 131.986L208.668 131.837C208.743 131.098 208.816 130.359 208.888 129.622L210.37 129.767C210.403 129.431 210.435 129.096 210.468 128.76L208.986 128.617C209.058 127.878 209.128 127.14 209.197 126.403L210.68 126.542C210.712 126.204 210.743 125.865 210.775 125.527L209.292 125.39C209.361 124.647 209.429 123.905 209.496 123.165L210.979 123.299L211.069 122.288L209.586 122.156C209.652 121.416 209.717 120.677 209.78 119.94L211.264 120.068C211.293 119.732 211.322 119.397 211.351 119.061L209.867 118.935C209.93 118.197 209.991 117.46 210.052 116.724L211.537 116.847L211.565 116.504L211.621 115.83L210.136 115.708C210.196 114.964 210.256 114.221 210.315 113.479L211.8 113.597C211.827 113.259 211.853 112.922 211.88 112.585L210.394 112.469C210.452 111.728 210.508 110.989 210.564 110.252L212.05 110.364L212.126 109.358L210.639 109.247C210.694 108.51 210.748 107.774 210.801 107.04L212.288 107.147L212.328 106.597L212.361 106.128L210.874 106.022C210.927 105.276 210.979 104.531 211.03 103.789L212.517 103.891C212.541 103.553 212.564 103.215 212.586 102.878L211.099 102.777C211.149 102.036 211.198 101.297 211.246 100.56L212.734 100.657C212.756 100.321 212.778 99.986 212.799 99.6511L211.311 99.5553C211.358 98.8183 211.404 98.0833 211.45 97.3504L212.939 97.4428C212.96 97.1017 212.981 96.761 213.002 96.4207L211.513 96.3298C211.558 95.5823 211.603 94.8369 211.646 94.0938L213.136 94.1814C213.156 93.8431 213.176 93.5052 213.195 93.1678L211.705 93.0817C211.748 92.3404 211.79 91.6015 211.83 90.8649L213.321 90.9478C213.339 90.6125 213.358 90.2776 213.376 89.9433L211.886 89.8619C211.916 89.3012 211.946 88.7419 211.976 88.1841L212.004 87.654L213.495 87.7322C213.512 87.3904 213.53 87.0492 213.548 86.7085L212.057 86.6318C212.095 85.8834 212.132 85.1376 212.169 84.3945L213.661 84.4681C213.677 84.1298 213.694 83.7922 213.71 83.4551L212.218 83.3829C212.254 82.6424 212.289 81.9046 212.323 81.1696L213.815 81.2386L213.861 80.2367L212.368 80.1691C212.402 79.4264 212.435 78.6866 212.466 77.9499L213.959 78.0144C213.974 77.6725 213.988 77.3312 214.003 76.9905L212.51 76.9275C212.541 76.1791 212.572 75.434 212.602 74.6923L214.095 74.7523L214.135 73.7416L212.642 73.683C212.671 72.9443 212.699 72.209 212.726 71.4773L214.22 71.5329C214.232 71.1998 214.244 70.8675 214.256 70.5359L212.762 70.4816C212.79 69.73 212.816 68.9822 212.841 68.2383L214.336 68.2896L214.37 67.2678L212.876 67.2179C212.901 66.4714 212.925 65.7289 212.948 64.9905L214.443 65.0374C214.453 64.7014 214.463 64.3661 214.474 64.0318L212.979 63.9862C213.001 63.2516 213.022 62.5212 213.043 61.7951L214.538 61.8377L214.567 60.8174L213.071 60.7761C213.092 60.0201 213.112 59.269 213.131 58.5227L214.627 58.561L214.643 57.9384L214.653 57.5451L213.157 57.5081C213.175 56.7663 213.192 56.0295 213.209 55.2978L214.705 55.3318C214.713 54.9988 214.72 54.6668 214.727 54.3359L213.231 54.3032C213.247 53.5542 213.263 52.8107 213.277 52.0728L214.774 52.1026C214.781 51.7588 214.788 51.4162 214.794 51.0749L213.297 51.0464C213.311 50.2963 213.325 49.5523 213.337 48.8144L214.834 48.84C214.84 48.5041 214.846 48.1695 214.851 47.8362L213.354 47.812C213.365 47.0796 213.376 46.3535 213.386 45.6337L214.884 45.6551C214.889 45.3075 214.894 44.9613 214.899 44.6166L213.401 44.5965C213.411 43.8375 213.42 43.0858 213.428 42.3417L214.927 42.3587C214.93 42.02 214.934 41.6828 214.938 41.3472L213.439 41.3315C213.447 40.594 213.454 39.8642 213.46 39.1421L214.959 39.155C214.961 38.8221 214.964 38.4909 214.967 38.1614L213.468 38.1498C213.474 37.3818 213.479 36.6229 213.483 35.8733L214.982 35.8818L214.987 34.864L213.488 34.8568C213.491 34.1156 213.494 33.3838 213.496 32.6617L214.996 32.6659C214.997 32.3372 214.997 32.0104 214.998 31.6857L213.498 31.6828C213.499 30.9107 213.5 30.1501 213.5 29.4013L215 29.4011C215 29.0586 215 28.7187 214.999 28.3811L213.499 28.3827C213.498 27.6411 213.496 26.9114 213.494 26.1942L214.995 26.1895L214.992 25.4912L214.991 25.2059L213.49 25.2119C213.487 24.4329 213.483 23.6691 213.478 22.9209L214.98 22.9116C214.978 22.5709 214.975 22.2335 214.973 21.8992L213.471 21.91C213.466 21.1755 213.46 20.4569 213.453 19.7545L214.955 19.7407C214.952 19.3839 214.949 19.0313 214.945 18.6829L213.443 18.6983C213.435 17.9269 213.426 17.1762 213.417 16.4469L214.919 16.4281C214.915 16.0959 214.911 15.7682 214.906 15.4448L213.404 15.4652C213.393 14.6878 213.382 13.9362 213.37 13.2114L214.873 13.1874C214.867 12.8398 214.862 12.4982 214.856 12.1628L213.353 12.1885C213.34 11.4351 213.326 10.7132 213.313 10.0237L214.816 9.99419C214.809 9.62759 214.802 9.26995 214.794 8.9214L213.291 8.95287C213.275 8.19874 213.259 7.48831 213.243 6.82306L213.242 6.79016L214.746 6.75446C214.737 6.38149 214.728 6.02231 214.72 5.67717L213.215 5.71514C213.195 4.90786 213.175 4.1805 213.156 3.53644L214.661 3.49332C214.65 3.09939 214.639 2.73478 214.629 2.40022L213.123 2.44638C213.116 2.19991 213.108 1.97118 213.102 1.76052C213.083 1.18116 213.067 0.738407 213.056 0.438928L213.05 0.284155L214.556 0.229323L214.549 0.0273438H203.018ZM212.124 2.47703C212.116 2.23123 212.109 2.00314 212.102 1.7931C212.084 1.24226 212.069 0.815478 212.058 0.518524L211.995 0.521008C211.431 0.543049 210.304 0.587849 208.048 0.678871C205.793 0.769895 204.665 0.815579 204.102 0.838506L204.036 0.841192C204.046 1.12683 204.06 1.53282 204.077 2.05394C204.084 2.25925 204.091 2.48242 204.099 2.72316L212.124 2.47703ZM204.131 3.79506C204.149 4.42895 204.169 5.14603 204.189 5.94291L212.216 5.74037C212.195 4.93424 212.175 4.20802 212.156 3.56509L204.131 3.79506ZM212.242 6.81388L204.215 7.00435L204.216 7.03882C204.232 7.69535 204.248 8.39685 204.264 9.14183L212.291 8.9738C212.275 8.2207 212.259 7.51127 212.243 6.847L212.242 6.81388ZM212.313 10.0433L204.285 10.2009C204.299 10.883 204.312 11.5974 204.325 12.3432L212.353 12.2056C212.34 11.4531 212.327 10.732 212.313 10.0433ZM212.37 13.2274L204.342 13.3559C204.354 14.0735 204.365 14.8178 204.376 15.5879L212.404 15.4788C212.393 14.7022 212.382 13.9514 212.37 13.2274ZM212.417 16.4595L204.389 16.5604C204.398 17.2829 204.406 18.0267 204.414 18.7911L212.443 18.7086C212.435 17.9379 212.426 17.188 212.417 16.4595ZM212.453 19.7638L204.425 19.8379C204.431 20.5341 204.437 21.2464 204.443 21.9744L212.471 21.9171C212.466 21.1834 212.46 20.4655 212.453 19.7638ZM212.478 22.927L204.45 22.9766C204.454 23.7183 204.458 24.4757 204.461 25.2481L212.49 25.2159C212.487 24.4377 212.483 23.6746 212.478 22.927ZM212.494 26.1973L204.465 26.2221C204.467 26.9334 204.469 27.6569 204.47 28.3924L212.499 28.3838C212.498 27.6428 212.496 26.9139 212.494 26.1973ZM212.5 29.4014L204.471 29.4025C204.471 30.1452 204.47 30.8996 204.469 31.6654L212.498 31.6809C212.499 30.9095 212.5 30.1496 212.5 29.4014ZM212.496 32.6588L204.467 32.6363C204.465 33.3526 204.462 34.0784 204.459 34.8137L212.488 34.852C212.491 34.1115 212.494 33.3803 212.496 32.6588ZM212.483 35.8676L204.454 35.822C204.45 36.5656 204.445 37.3184 204.439 38.0803L212.468 38.1421C212.474 37.3748 212.479 36.6165 212.483 35.8676ZM212.46 39.1336L204.431 39.0647C204.425 39.781 204.418 40.5051 204.411 41.2366L212.439 41.321C212.447 40.5842 212.454 39.855 212.46 39.1336ZM212.428 42.3303L204.4 42.2388C204.392 42.9771 204.382 43.7228 204.372 44.4758L212.401 44.5832C212.411 43.8248 212.42 43.0738 212.428 42.3303ZM212.387 45.6195L204.358 45.5048C204.348 46.2189 204.337 46.9392 204.326 47.6658L212.354 47.7958C212.365 47.064 212.376 46.3386 212.387 45.6195ZM212.337 48.7973L204.309 48.6603C204.297 49.3924 204.284 50.1305 204.27 50.8746L212.297 51.0274C212.311 50.278 212.325 49.5346 212.337 48.7973ZM212.277 52.0529L204.25 51.8929C204.236 52.6249 204.22 53.3625 204.204 54.1056L212.231 54.2813C212.247 53.5329 212.263 52.7901 212.277 52.0529ZM212.209 55.275L204.182 55.0923C204.166 55.8182 204.148 56.5491 204.13 57.285L212.157 57.4834C212.175 56.7423 212.192 56.0061 212.209 55.275ZM212.132 58.4971L204.105 58.2915C204.086 59.0318 204.067 59.777 204.046 60.5269L212.072 60.7485C212.093 59.9932 212.112 59.2427 212.132 58.4971ZM212.043 61.7666L204.018 61.5377C203.997 62.258 203.976 62.9825 203.954 63.7112L211.979 63.9558C212.001 63.2218 212.023 62.492 212.043 61.7666ZM211.948 64.9592L203.923 64.7074C203.9 65.4398 203.877 66.1762 203.852 66.9167L211.876 67.1845C211.901 66.4387 211.925 65.6969 211.948 64.9592ZM211.842 68.204L203.818 67.9288C203.793 68.6666 203.766 69.4083 203.739 70.1537L211.763 70.4453C211.79 69.6944 211.817 68.9473 211.842 68.204ZM211.727 71.44L203.703 71.1412C203.676 71.8669 203.648 72.5961 203.62 73.3287L211.643 73.6437C211.672 72.9057 211.7 72.1711 211.727 71.44ZM211.603 74.6521L203.58 74.3297C203.551 75.0652 203.52 75.8041 203.489 76.5462L211.511 76.8852C211.542 76.1376 211.573 75.3932 211.603 74.6521ZM211.467 77.9067L203.446 77.5601C203.414 78.2906 203.382 79.0241 203.349 79.7606L211.369 80.1239C211.403 79.3818 211.436 78.6427 211.467 77.9067ZM211.324 81.1234L203.303 80.7525C203.27 81.4812 203.235 82.2128 203.2 82.947L211.219 83.3347C211.255 82.5948 211.29 81.8577 211.324 81.1234ZM211.17 84.3453L203.151 83.9499C203.115 84.6866 203.078 85.4259 203.039 86.1678L211.058 86.5804C211.096 85.8327 211.134 85.0876 211.17 84.3453ZM211.005 87.6016L202.987 87.1811L202.959 87.7085C202.93 88.2609 202.9 88.8146 202.87 89.3697L210.887 89.8074C210.918 89.2473 210.948 88.6886 210.977 88.1313L211.005 87.6016ZM210.832 90.8094L202.815 90.3639C202.775 91.0941 202.733 91.8265 202.691 92.5609L210.707 93.024C210.749 92.2835 210.791 91.5453 210.832 90.8094ZM210.648 94.0351L202.633 93.564C202.59 94.3005 202.545 95.0392 202.5 95.7798L210.514 96.2689C210.56 95.5221 210.604 94.7775 210.648 94.0351ZM210.452 97.2885L202.438 96.7911C202.393 97.5175 202.347 98.2458 202.3 98.9758L210.313 99.4911C210.36 98.7549 210.406 98.0207 210.452 97.2885ZM210.248 100.494L202.236 99.9709C202.188 100.702 202.139 101.434 202.09 102.168L210.101 102.71C210.151 101.97 210.2 101.231 210.248 100.494ZM210.032 103.72L202.022 103.17C201.971 103.906 201.92 104.643 201.867 105.382L209.876 105.951C209.929 105.206 209.981 104.462 210.032 103.72ZM209.804 106.968L201.795 106.39C201.743 107.117 201.689 107.846 201.635 108.576L209.642 109.173C209.697 108.436 209.751 107.701 209.804 106.968ZM209.567 110.176L201.56 109.571C201.505 110.301 201.449 111.033 201.392 111.766L209.397 112.391C209.455 111.651 209.511 110.913 209.567 110.176ZM209.318 113.401L201.313 112.767C201.255 113.501 201.196 114.237 201.136 114.973L209.139 115.627C209.2 114.884 209.259 114.141 209.318 113.401ZM209.056 116.642L201.053 115.979C200.993 116.707 200.932 117.436 200.87 118.167L208.87 118.85C208.933 118.112 208.995 117.376 209.056 116.642ZM208.784 119.854L200.784 119.162C200.721 119.892 200.657 120.623 200.592 121.354L208.59 122.067C208.656 121.328 208.72 120.59 208.784 119.854ZM208.5 123.075L200.502 122.353C200.436 123.086 200.369 123.82 200.301 124.554L208.296 125.297C208.365 124.555 208.433 123.815 208.5 123.075ZM208.202 126.309L200.207 125.556C200.139 126.286 200.069 127.016 199.998 127.747L207.991 128.52C208.062 127.782 208.133 127.045 208.202 126.309ZM207.893 129.524L199.902 128.741C199.83 129.47 199.758 130.2 199.684 130.931L207.673 131.736C207.748 130.998 207.821 130.261 207.893 129.524ZM207.571 132.743L199.583 131.927C199.508 132.659 199.433 133.39 199.356 134.123L207.342 134.96C207.419 134.221 207.496 133.481 207.571 132.743ZM207.235 135.97L199.251 135.121C199.173 135.851 199.095 136.582 199.015 137.312L206.997 138.183C207.078 137.445 207.157 136.707 207.235 135.97ZM206.887 139.187L198.906 138.306C198.825 139.034 198.744 139.763 198.661 140.492L206.64 141.397C206.723 140.66 206.806 139.923 206.887 139.187ZM206.525 142.403L198.548 141.487C198.464 142.217 198.379 142.947 198.293 143.676L206.268 144.616C206.355 143.878 206.441 143.14 206.525 142.403ZM206.149 145.623L198.175 144.672C198.089 145.401 198 146.131 197.911 146.86L205.881 147.836C205.972 147.098 206.061 146.36 206.149 145.623ZM205.758 148.84L197.789 147.853C197.699 148.581 197.608 149.309 197.516 150.037L205.481 151.048C205.574 150.312 205.667 149.576 205.758 148.84ZM205.353 152.053L197.389 151.029C197.295 151.757 197.201 152.485 197.105 153.213L205.065 154.262C205.162 153.526 205.258 152.789 205.353 152.053ZM204.932 155.266L196.973 154.205C196.876 154.933 196.778 155.661 196.679 156.388L204.634 157.475C204.735 156.739 204.834 156.003 204.932 155.266ZM204.496 158.479L196.543 157.38C196.442 158.107 196.34 158.834 196.237 159.56L204.187 160.687C204.291 159.951 204.394 159.215 204.496 158.479ZM204.044 161.69L196.096 160.551C195.992 161.277 195.887 162.003 195.78 162.728L203.724 163.896C203.832 163.161 203.939 162.426 204.044 161.69ZM203.576 164.898L195.634 163.717C195.527 164.442 195.418 165.167 195.307 165.891L203.245 167.1C203.356 166.367 203.467 165.632 203.576 164.898ZM203.091 168.103L195.156 166.881C195.044 167.607 194.931 168.333 194.816 169.058L202.747 170.31C202.863 169.575 202.978 168.839 203.091 168.103ZM202.588 171.312L194.66 170.046C194.544 170.771 194.427 171.494 194.309 172.218L202.232 173.514C202.352 172.78 202.471 172.046 202.588 171.312ZM202.068 174.513L194.147 173.203C194.027 173.926 193.906 174.647 193.784 175.368L201.7 176.71C201.824 175.978 201.946 175.246 202.068 174.513ZM201.53 177.708L193.617 176.352C193.492 177.077 193.367 177.801 193.24 178.525L201.147 179.913C201.276 179.179 201.403 178.444 201.53 177.708ZM200.97 180.914L193.066 179.51C192.938 180.233 192.808 180.954 192.677 181.675L200.575 183.112C200.635 182.781 200.695 182.449 200.755 182.118C200.827 181.717 200.899 181.316 200.97 180.914ZM200.393 184.109L192.497 182.657C192.365 183.376 192.231 184.095 192.096 184.812L199.985 186.299C200.122 185.57 200.258 184.84 200.393 184.109ZM199.796 187.292L191.911 185.789C191.773 186.512 191.634 187.234 191.493 187.954L199.372 189.493C199.515 188.761 199.656 188.027 199.796 187.292ZM199.175 190.493L191.3 188.937C191.158 189.657 191.014 190.376 190.869 191.093L198.737 192.686C198.884 191.956 199.031 191.225 199.175 190.493ZM198.534 193.68L190.67 192.071C190.523 192.787 190.375 193.502 190.226 194.215L198.082 195.863C198.234 195.137 198.385 194.409 198.534 193.68ZM197.873 196.852L190.021 195.186C189.868 195.906 189.714 196.623 189.558 197.339L197.402 199.045C197.561 198.315 197.718 197.584 197.873 196.852ZM197.184 200.042L189.344 198.318C189.187 199.035 189.027 199.75 188.866 200.464L196.697 202.229C196.861 201.502 197.023 200.773 197.184 200.042ZM196.472 203.22L188.646 201.436C188.484 202.148 188.32 202.858 188.154 203.567L195.971 205.393C196.139 204.671 196.307 203.946 196.472 203.22ZM195.739 206.378L187.927 204.531C187.758 205.246 187.588 205.959 187.415 206.669L195.216 208.56C195.392 207.835 195.567 207.107 195.739 206.378ZM194.974 209.555L187.178 207.643C187.003 208.356 186.826 209.067 186.648 209.776L194.432 211.734C194.615 211.01 194.795 210.283 194.974 209.555ZM194.183 212.72L186.404 210.741C186.224 211.448 186.042 212.152 185.859 212.854L193.625 214.882C193.813 214.164 193.999 213.443 194.183 212.72ZM193.368 215.86L185.607 213.811C185.42 214.52 185.23 215.228 185.039 215.933L192.787 218.033C192.983 217.311 193.176 216.587 193.368 215.86ZM192.517 219.023L184.776 216.899C184.581 217.607 184.385 218.312 184.187 219.014L191.914 221.19C192.117 220.47 192.318 219.748 192.517 219.023ZM191.636 222.171L183.916 219.97C183.717 220.67 183.515 221.367 183.312 222.062L191.016 224.317C191.225 223.604 191.431 222.889 191.636 222.171ZM190.73 225.287L183.033 223.007C182.824 223.712 182.613 224.413 182.401 225.112L190.08 227.449C190.299 226.731 190.515 226.011 190.73 225.287ZM189.779 228.433L182.107 226.069C181.891 226.769 181.673 227.466 181.453 228.16L189.106 230.584C189.333 229.87 189.557 229.153 189.779 228.433ZM188.796 231.556L181.152 229.104C180.93 229.795 180.706 230.482 180.48 231.167L188.104 233.681C188.337 232.976 188.568 232.267 188.796 231.556ZM187.786 234.641L180.171 232.098C179.937 232.797 179.702 233.492 179.463 234.184L187.055 236.793C187.301 236.079 187.544 235.362 187.786 234.641ZM186.718 237.767L179.137 235.127C178.896 235.817 178.654 236.503 178.409 237.185L185.966 239.895C186.219 239.189 186.47 238.48 186.718 237.767ZM185.619 240.855L178.073 238.113C177.826 238.792 177.577 239.467 177.326 240.138L184.845 242.951C185.105 242.256 185.363 241.557 185.619 240.855ZM184.483 243.912L176.974 241.071C176.71 241.768 176.445 242.461 176.18 243.148L183.669 246.038C183.941 245.334 184.212 244.626 184.483 243.912ZM183.298 246.995L175.817 244.082C175.551 244.765 175.284 245.442 175.017 246.115L182.478 249.078C182.752 248.388 183.025 247.694 183.298 246.995ZM182.104 250.015L174.652 247.029C174.384 247.698 174.115 248.361 173.846 249.02L181.277 252.055C181.554 251.38 181.829 250.7 182.104 250.015ZM180.9 252.975L173.478 249.916C173.193 250.606 172.908 251.29 172.622 251.97L180.021 255.082C180.315 254.385 180.608 253.682 180.9 252.975ZM179.62 256.029L172.231 252.893C171.945 253.567 171.657 254.236 171.369 254.9L178.735 258.091C179.031 257.409 179.326 256.722 179.62 256.029ZM178.331 259.018L170.976 255.803C170.687 256.462 170.398 257.117 170.108 257.766L177.439 261.036C177.737 260.369 178.034 259.696 178.331 259.018ZM177.03 261.947L169.71 258.652C169.404 259.331 169.098 260.004 168.79 260.672L176.083 264.025C176.4 263.338 176.715 262.645 177.03 261.947ZM175.651 264.958L168.371 261.579C168.063 262.242 167.754 262.9 167.444 263.552L174.698 266.989C175.016 266.317 175.334 265.641 175.651 264.958ZM174.263 267.901L167.022 264.438C166.712 265.086 166.401 265.728 166.089 266.365L173.302 269.887C173.623 269.23 173.943 268.568 174.263 267.901ZM172.85 270.806L165.651 267.257C165.323 267.921 164.995 268.579 164.665 269.232L171.834 272.842C172.173 272.169 172.512 271.49 172.85 270.806ZM171.37 273.757L164.216 270.119C163.886 270.767 163.555 271.41 163.223 272.047L170.346 275.746C170.688 275.089 171.029 274.426 171.37 273.757ZM169.879 276.64L162.771 272.913C162.435 273.553 162.098 274.187 161.76 274.817L168.835 278.606C169.184 277.956 169.532 277.301 169.879 276.64ZM168.342 279.52L161.283 275.701C160.933 276.347 160.582 276.988 160.23 277.623L167.255 281.505C167.618 280.849 167.981 280.187 168.342 279.52ZM166.759 282.397L159.75 278.485C159.398 279.115 159.045 279.74 158.691 280.36L165.663 284.335C166.029 283.694 166.394 283.048 166.759 282.397ZM165.164 285.205L158.208 281.201C157.84 281.839 157.471 282.472 157.102 283.099L164.019 287.168C164.402 286.52 164.783 285.865 165.164 285.205ZM163.494 288.055L156.594 283.955C156.222 284.581 155.849 285.201 155.475 285.815L162.335 289.98C162.722 289.344 163.109 288.702 163.494 288.055ZM161.807 290.845L154.964 286.65C154.587 287.265 154.208 287.874 153.829 288.478L160.632 292.737C161.024 292.112 161.416 291.481 161.807 290.845ZM160.079 293.615L153.295 289.325C152.903 289.944 152.51 290.557 152.116 291.165L158.858 295.521C159.266 294.891 159.673 294.256 160.079 293.615ZM158.301 296.376L151.579 291.991C151.185 292.594 150.79 293.192 150.394 293.785L157.073 298.235C157.483 297.621 157.893 297.001 158.301 296.376ZM156.509 299.076L149.849 294.598C149.438 295.207 149.026 295.812 148.613 296.412L155.229 300.956C155.656 300.335 156.083 299.708 156.509 299.076ZM154.645 301.8L148.049 297.226C147.636 297.821 147.222 298.411 146.807 298.996L153.358 303.633C153.787 303.027 154.217 302.416 154.645 301.8ZM152.771 304.456L146.24 299.79C145.815 300.384 145.39 300.972 144.963 301.556L151.448 306.284C151.89 305.68 152.331 305.07 152.771 304.456ZM150.84 307.113L144.375 302.357C143.943 302.942 143.511 303.522 143.078 304.098L149.497 308.916C149.945 308.32 150.393 307.719 150.84 307.113ZM148.885 309.725L142.487 304.88C142.048 305.458 141.609 306.03 141.169 306.599L147.523 311.503C147.978 310.915 148.432 310.322 148.885 309.725ZM146.891 312.316L140.558 307.385C140.11 307.96 139.661 308.53 139.211 309.096L145.498 314.084C145.963 313.499 146.428 312.91 146.891 312.316ZM144.864 314.878L138.597 309.865C138.144 310.429 137.691 310.989 137.238 311.545L143.461 316.612C143.93 316.039 144.397 315.461 144.864 314.878ZM142.809 317.408L136.606 312.316C136.142 312.88 135.677 313.439 135.212 313.995L141.373 319.139C141.852 318.566 142.331 317.989 142.809 317.408ZM140.719 319.918L134.577 314.751C134.111 315.304 133.645 315.853 133.177 316.399L139.278 321.613C139.759 321.052 140.239 320.487 140.719 319.918ZM138.609 322.391L132.527 317.155C132.05 317.708 131.572 318.258 131.093 318.805L137.135 324.086C137.627 323.525 138.118 322.96 138.609 322.391ZM136.465 324.849L130.439 319.548C129.96 320.092 129.48 320.633 128.999 321.171L134.988 326.513C135.48 325.962 135.973 325.407 136.465 324.849ZM134.307 327.272L128.335 321.912C127.846 322.456 127.356 322.997 126.866 323.535L132.804 328.933C133.306 328.382 133.807 327.829 134.307 327.272ZM132.121 329.682L126.197 324.268C125.706 324.804 125.214 325.338 124.722 325.87L130.615 331.317C131.117 330.774 131.619 330.229 132.121 329.682ZM129.925 332.06L124.045 326.599C123.546 327.135 123.047 327.669 122.548 328.201L128.401 333.691C128.909 333.15 129.418 332.606 129.925 332.06ZM127.708 334.427L121.866 328.926C121.365 329.456 120.864 329.985 120.363 330.512L126.182 336.038C126.691 335.503 127.199 334.966 127.708 334.427ZM125.485 336.77L119.676 331.234C119.17 331.764 118.664 332.293 118.157 332.821L123.948 338.376C124.46 337.842 124.973 337.307 125.485 336.77ZM123.249 339.103L117.465 333.54C116.958 334.067 116.45 334.593 115.942 335.118L121.711 340.696C122.224 340.166 122.736 339.635 123.249 339.103ZM121.011 341.419L115.247 335.836C114.736 336.362 114.225 336.888 113.714 337.414L119.468 343.007C119.982 342.479 120.497 341.949 121.011 341.419ZM118.767 343.728L113.016 338.131C112.506 338.655 111.995 339.179 111.484 339.704L111.479 339.708L117.226 345.31L117.235 345.3C117.484 345.045 117.733 344.79 117.982 344.534C118.244 344.266 118.505 343.997 118.767 343.728ZM116.525 346.028L110.78 340.425L110.224 340.995L109.241 342.003L114.986 347.606L116.003 346.564L116.004 346.563L116.525 346.028ZM114.287 348.323L108.54 342.722C108.026 343.249 107.512 343.776 106.998 344.305L112.749 349.902C113.262 349.375 113.774 348.849 114.287 348.323ZM112.053 350.618L106.298 345.024C105.786 345.552 105.273 346.08 104.76 346.61L110.524 352.193L111.023 351.679C111.366 351.325 111.71 350.971 112.053 350.618ZM109.83 352.911L104.06 347.333C103.547 347.864 103.034 348.397 102.52 348.931L108.304 354.494C108.812 353.965 109.321 353.438 109.83 352.911ZM107.615 355.212L101.824 349.656C101.314 350.187 100.805 350.72 100.295 351.256L106.105 356.793C106.608 356.264 107.111 355.737 107.615 355.212ZM105.419 357.514L99.5999 351.987C99.0899 352.524 98.5799 353.064 98.0699 353.605L103.911 359.109C104.061 358.949 104.212 358.79 104.362 358.631C104.714 358.258 105.066 357.885 105.419 357.514ZM103.233 359.831L97.3803 354.34C96.8763 354.877 96.3724 355.417 95.8685 355.96L101.747 361.424C102.242 360.891 102.737 360.36 103.233 359.831ZM101.073 362.152L95.1813 356.702C94.6773 357.247 94.1734 357.795 93.6696 358.347L99.5907 363.765C100.084 363.224 100.578 362.687 101.073 362.152ZM98.9242 364.496L92.9889 359.094C92.4932 359.639 91.9976 360.187 91.5021 360.739L97.47 366.106C97.9544 365.566 98.4391 365.03 98.9242 364.496ZM96.8098 366.843L90.8265 361.494C90.331 362.049 89.8358 362.607 89.3407 363.169L95.3596 368.479C95.8426 367.93 96.326 367.385 96.8098 366.843ZM94.7058 369.223L88.6703 363.933C88.1852 364.487 87.7004 365.045 87.2158 365.607L93.2887 370.854C93.7607 370.307 94.2331 369.764 94.7058 369.223ZM92.6456 371.603L86.5551 366.375C86.0707 366.941 85.5865 367.51 85.1026 368.084L91.2327 373.264C91.7032 372.707 92.1742 372.153 92.6456 371.603ZM90.5915 374.027L84.443 368.868C83.9707 369.432 83.4988 370 83.0272 370.572L89.2163 375.683C89.6743 375.127 90.1327 374.575 90.5915 374.027ZM88.5924 376.443L82.3845 371.355C81.9133 371.931 81.4425 372.512 80.972 373.097L87.222 378.132C87.6783 377.565 88.1351 377.002 88.5924 376.443ZM86.6002 378.909L80.3307 373.897C79.8704 374.475 79.4103 375.056 78.9507 375.643L85.2626 380.6C85.708 380.032 86.1538 379.468 86.6002 378.909ZM84.66 381.372L78.3288 376.439C77.8729 377.026 77.4174 377.617 76.9623 378.213L83.3366 383.09C83.7773 382.513 84.2184 381.94 84.66 381.372ZM82.7361 383.879L76.3421 379.028C75.8934 379.621 75.4451 380.219 74.9973 380.821L81.4345 385.615C81.8679 385.032 82.3017 384.453 82.7361 383.879ZM80.855 386.398L74.3984 381.631C73.9595 382.226 73.521 382.827 73.083 383.433L79.5823 388.142C80.006 387.555 80.4302 386.974 80.855 386.398ZM79.0049 388.944L72.4861 384.262C72.0486 384.873 71.6116 385.488 71.1752 386.109L77.7369 390.73C78.159 390.13 78.5817 389.534 79.0049 388.944ZM77.1807 391.525L70.6001 386.931C70.1795 387.535 69.7594 388.144 69.3398 388.758L75.9618 393.292C76.3675 392.698 76.7738 392.109 77.1807 391.525ZM75.4087 394.105L68.768 389.598C68.349 390.217 67.9305 390.841 67.5126 391.471L74.1945 395.916C74.5987 395.307 75.0034 394.703 75.4087 394.105ZM73.6436 396.749L66.9431 392.332C66.5397 392.945 66.1369 393.564 65.7346 394.187L72.4746 398.544C72.8637 397.94 73.2534 397.342 73.6436 396.749ZM71.947 399.365L65.1892 395.037C64.7896 395.662 64.3906 396.292 63.9921 396.928L70.7887 401.195C71.1743 400.58 71.5604 399.97 71.947 399.365ZM70.2633 402.038L63.4492 397.798C63.0542 398.435 62.6597 399.076 62.2659 399.723L69.1179 403.901C69.4991 403.275 69.8809 402.654 70.2633 402.038ZM68.6165 404.729L61.7479 400.578C61.3683 401.208 60.9893 401.842 60.6109 402.482L67.5155 406.572C67.8819 405.953 68.2489 405.338 68.6165 404.729ZM67.0161 407.421L60.0953 403.358C59.7175 404.003 59.3403 404.653 58.9637 405.308L65.9198 409.311C66.2846 408.675 66.6501 408.046 67.0161 407.421ZM65.4226 410.181L58.4507 406.206C58.0876 406.844 57.7251 407.487 57.3632 408.136L64.3684 412.051C64.7192 411.423 65.0706 410.799 65.4226 410.181ZM63.8954 412.903L56.8753 409.014C56.5178 409.66 56.161 410.312 55.8047 410.969L62.8569 414.799C63.2025 414.162 63.5486 413.53 63.8954 412.903ZM62.386 415.672L55.3193 411.868C54.9636 412.529 54.6086 413.197 54.2542 413.869L61.3522 417.615C61.6962 416.962 62.0408 416.314 62.386 415.672ZM60.8929 418.491L53.781 414.771C53.4439 415.417 53.1073 416.068 52.7712 416.724L59.9122 420.387C60.2385 419.75 60.5654 419.118 60.8929 418.491ZM59.4674 421.259L52.3134 417.621C51.978 418.282 51.6432 418.947 51.309 419.618L58.4913 423.201C58.8161 422.549 59.1415 421.901 59.4674 421.259ZM58.0486 424.094L50.8537 420.536C50.5201 421.212 50.1871 421.893 49.8548 422.579L57.0771 426.081C57.4004 425.413 57.7242 424.751 58.0486 424.094ZM56.6569 426.953L49.4228 423.475C49.1074 424.132 48.7925 424.794 48.4782 425.461L55.7375 428.887C56.0434 428.237 56.3499 427.593 56.6569 426.953ZM55.3206 429.775L48.05 426.374C47.7362 427.046 47.4231 427.722 47.1106 428.404L54.4057 431.753C54.7101 431.089 55.0151 430.43 55.3206 429.775ZM53.9909 432.662L46.6848 429.337C46.3729 430.023 46.0616 430.714 45.7509 431.411L53.0806 434.684C53.3834 434.005 53.6869 433.331 53.9909 432.662ZM52.6883 435.567L45.3485 432.317C45.0542 432.982 44.7604 433.652 44.4672 434.327L51.8286 437.529C52.1146 436.87 52.4012 436.217 52.6883 435.567ZM51.4388 438.43L44.0677 435.251C43.7751 435.93 43.483 436.614 43.1915 437.303L50.5835 440.434C50.8681 439.761 51.1532 439.093 51.4388 438.43ZM50.1957 441.355L42.7944 438.246C42.5034 438.939 42.2131 439.638 41.9234 440.341L49.3449 443.402C49.6279 442.714 49.9116 442.032 50.1957 441.355ZM48.9681 444.321L41.5361 441.286C41.2579 441.968 40.9818 442.654 40.7077 443.343L48.1652 446.315C48.4309 445.647 48.6986 444.982 48.9681 444.321ZM47.8039 447.228L40.3352 444.285C40.063 444.977 39.7928 445.672 39.5246 446.37L47.0172 449.252C47.2775 448.574 47.5398 447.9 47.8039 447.228ZM46.6632 450.179L39.1602 447.324C38.894 448.025 38.6297 448.729 38.3673 449.436L45.8925 452.232C46.1475 451.544 46.4044 450.86 46.6632 450.179ZM45.5458 453.172L38.0109 450.403C37.7569 451.095 37.5048 451.79 37.2545 452.488L44.8097 455.201C45.0533 454.522 45.2987 453.845 45.5458 453.172ZM44.4794 456.127L36.9154 453.438C36.6676 454.137 36.4216 454.838 36.1774 455.542L43.7603 458.176C43.9983 457.49 44.238 456.807 44.4794 456.127ZM43.4368 459.113L35.8457 456.503C35.6032 457.209 35.3626 457.918 35.1237 458.629L42.7326 461.187C42.9656 460.493 43.2003 459.802 43.4368 459.113ZM42.4158 462.136L34.7992 459.601C34.5646 460.307 34.3317 461.016 34.1006 461.727L41.7336 464.211C41.9593 463.517 42.1867 462.825 42.4158 462.136ZM41.431 465.146L33.7909 462.684C33.5645 463.387 33.3398 464.093 33.1168 464.801L40.7721 467.215C40.9901 466.523 41.2098 465.834 41.431 465.146ZM40.4758 468.161L32.8138 465.768C32.5924 466.478 32.3726 467.19 32.1545 467.904L39.8308 470.251C40.0442 469.552 40.2592 468.855 40.4758 468.161ZM39.5407 471.205L31.8581 468.879C31.6415 469.596 31.4266 470.314 31.2133 471.035L38.9093 473.315C39.1182 472.61 39.3286 471.906 39.5407 471.205ZM38.6296 474.265L30.9277 472.004C30.7203 472.711 30.5145 473.42 30.3103 474.131L38.0245 476.349C38.2247 475.653 38.4264 474.958 38.6296 474.265ZM37.7525 477.301L30.0327 475.102C29.8299 475.815 29.6286 476.53 29.4289 477.246L37.1603 479.404C37.3562 478.701 37.5536 478 37.7525 477.301ZM36.8941 480.363L29.1575 478.224C28.9592 478.942 28.7624 479.662 28.5671 480.384L36.3147 482.483C36.5064 481.774 36.6995 481.068 36.8941 480.363ZM36.0543 483.45L28.3017 481.369C28.11 482.084 27.9197 482.801 27.7309 483.52L35.4938 485.561C35.6792 484.856 35.866 484.152 36.0543 483.45ZM35.2435 486.518L27.4761 484.494C27.2898 485.209 27.105 485.926 26.9216 486.645L34.6988 488.631C34.8789 487.926 35.0605 487.221 35.2435 486.518ZM34.4539 489.595L26.6725 487.625C26.4904 488.345 26.3098 489.066 26.1306 489.788L33.9212 491.722C34.0974 491.012 34.2749 490.303 34.4539 489.595ZM33.6817 492.692L25.8871 490.775C25.7092 491.499 25.5326 492.224 25.3575 492.95L33.1609 494.832C33.3331 494.118 33.5068 493.404 33.6817 492.692ZM32.9291 495.799L25.1219 493.932C24.9505 494.65 24.7805 495.369 24.6118 496.089L32.427 497.921C32.5931 497.212 32.7604 496.505 32.9291 495.799ZM32.2014 498.889L24.3825 497.072C24.2151 497.793 24.0489 498.515 23.8841 499.239L31.7107 501.023C31.873 500.31 32.0366 499.599 32.2014 498.889ZM31.4902 501.995L23.6602 500.226C23.4966 500.951 23.3343 501.676 23.1733 502.403L31.0106 504.14C31.1692 503.424 31.3291 502.709 31.4902 501.995ZM30.7952 505.117L22.9546 503.395C22.7957 504.119 22.638 504.844 22.4816 505.57L30.329 507.261C30.4832 506.546 30.6385 505.831 30.7952 505.117ZM30.1208 508.233L22.2703 506.555C22.116 507.278 21.9629 508.002 21.811 508.727L29.668 510.374C29.8177 509.659 29.9686 508.945 30.1208 508.233ZM29.4646 511.349L21.6048 509.715C21.4541 510.441 21.3046 511.167 21.1564 511.894L29.0225 513.499C29.1686 512.781 29.316 512.065 29.4646 511.349ZM28.8239 514.477L20.9551 512.887C20.808 513.614 20.6621 514.343 20.5175 515.073L28.3922 516.635C28.5349 515.915 28.6788 515.196 28.8239 514.477ZM28.1984 517.617L20.3211 516.068C20.1786 516.792 20.0373 517.518 19.8973 518.244L27.7801 519.766C27.9183 519.049 28.0578 518.332 28.1984 517.617ZM27.5922 520.744L19.707 519.235C19.568 519.962 19.4301 520.689 19.2935 521.417L27.184 522.899C27.3189 522.18 27.455 521.461 27.5922 520.744ZM27.0007 523.88L19.1079 522.41C18.9723 523.139 18.8379 523.868 18.7047 524.597L26.6025 526.041C26.7341 525.32 26.8668 524.599 27.0007 523.88ZM26.4237 527.024L18.5237 525.593C18.3915 526.323 18.2605 527.053 18.1307 527.784L26.0355 529.189C26.1638 528.467 26.2932 527.745 26.4237 527.024ZM25.8618 530.171L17.9549 528.777C17.8265 529.506 17.6993 530.235 17.5732 530.964L25.4846 532.333C25.6092 531.611 25.735 530.891 25.8618 530.171ZM25.3153 533.316L17.4019 531.959C17.2768 532.688 17.1528 533.418 17.03 534.149L24.9476 535.482C25.0691 534.759 25.1917 534.038 25.3153 533.316ZM24.7827 536.466L16.8631 535.145C16.7413 535.875 16.6205 536.606 16.5008 537.337L24.4244 538.635C24.5428 537.912 24.6622 537.189 24.7827 536.466ZM24.2637 539.621L16.3383 538.334C16.2197 539.065 16.1021 539.796 15.9856 540.528L23.9149 541.791C24.0301 541.068 24.1464 540.344 24.2637 539.621ZM23.7584 542.778L15.8275 541.525C15.712 542.257 15.5975 542.988 15.4842 543.72L23.4188 544.95C23.5309 544.226 23.6441 543.502 23.7584 542.778ZM23.2665 545.937L15.3303 544.717C15.2179 545.449 15.1065 546.181 14.9962 546.913L22.9359 548.11C23.0451 547.386 23.1553 546.661 23.2665 545.937ZM22.7877 549.098L14.8465 547.91C14.7372 548.642 14.6289 549.374 14.5216 550.105L22.4661 551.271C22.5723 550.546 22.6795 549.822 22.7877 549.098ZM22.3219 552.259L14.3759 551.103C14.2693 551.837 14.1636 552.571 14.059 553.304L22.0081 554.438C22.1117 553.712 22.2163 552.985 22.3219 552.259ZM21.8675 555.429L13.917 554.305C13.8133 555.038 13.7107 555.771 13.609 556.504L21.5625 557.608C21.6632 556.882 21.7649 556.155 21.8675 555.429ZM21.4259 558.598L13.4711 557.504C13.3703 558.237 13.2706 558.969 13.1719 559.701L21.1295 560.775C21.2273 560.049 21.3261 559.324 21.4259 558.598ZM20.9968 561.764L13.0379 560.7C12.94 561.432 12.8431 562.164 12.7472 562.896L20.7088 563.94C20.8038 563.215 20.8998 562.49 20.9968 561.764ZM20.579 564.935L12.6162 563.9C12.5206 564.636 12.426 565.372 12.3324 566.107L20.2977 567.122C20.3905 566.393 20.4842 565.664 20.579 564.935ZM20.1717 568.115L12.2053 567.109C12.1126 567.843 12.0208 568.578 11.93 569.311L19.8989 570.298C19.9889 569.571 20.0798 568.843 20.1717 568.115ZM19.7767 571.289L11.8068 570.311C11.7169 571.044 11.6279 571.777 11.5399 572.509L19.5122 573.468C19.5994 572.742 19.6876 572.016 19.7767 571.289ZM19.3938 574.457L11.4205 573.506C11.3328 574.243 11.2459 574.979 11.1601 575.714L19.1355 576.646C19.2207 575.917 19.3067 575.187 19.3938 574.457ZM19.0196 577.643L11.0432 576.72C10.9579 577.457 10.8735 578.194 10.7901 578.929L18.7686 579.835C18.8513 579.105 18.935 578.375 19.0196 577.643ZM18.6564 580.829L10.677 579.932C10.5944 580.667 10.5128 581.401 10.4321 582.135L18.4135 583.013C18.4936 582.286 18.5745 581.558 18.6564 580.829ZM18.3049 584.005L10.3227 583.134C10.2428 583.867 10.1639 584.598 10.0859 585.329L18.07 586.182C18.1474 585.457 18.2257 584.731 18.3049 584.005ZM17.9641 587.178L9.9792 586.333C9.90087 587.074 9.82347 587.813 9.74701 588.552L17.7337 589.379C17.8096 588.647 17.8864 587.913 17.9641 587.178ZM17.6308 590.378L9.6433 589.558C9.56767 590.296 9.49295 591.032 9.41915 591.768L17.4083 592.57C17.4816 591.84 17.5558 591.11 17.6308 590.378ZM17.309 593.564L9.31906 592.77C9.24608 593.504 9.174 594.237 9.10281 594.969L17.0944 595.747C17.165 595.02 17.2366 594.293 17.309 593.564ZM16.9985 596.736L9.00628 595.966C8.93523 596.703 8.86509 597.44 8.79584 598.175L16.7896 598.929C16.8584 598.199 16.928 597.468 16.9985 596.736ZM16.6955 599.932L8.70105 599.186C8.63195 599.927 8.56376 600.666 8.49646 601.404L16.4924 602.134C16.5592 601.401 16.6269 600.667 16.6955 599.932ZM16.4018 603.132L8.40523 602.409C8.33874 603.146 8.27313 603.881 8.2084 604.615L16.2064 605.321C16.2707 604.593 16.3358 603.863 16.4018 603.132ZM16.1193 606.313L8.12067 605.614C8.05672 606.346 7.99365 607.077 7.93144 607.806L15.9314 608.489C15.9932 607.765 16.0558 607.04 16.1193 606.313ZM15.8465 609.489L7.84597 608.813C7.78308 609.558 7.72109 610.301 7.65998 611.042L15.6618 611.702C15.7225 610.966 15.784 610.228 15.8465 609.489ZM15.5796 612.704L7.5772 612.051C7.51688 612.791 7.45744 613.529 7.39888 614.264L15.4025 614.902C15.4607 614.171 15.5197 613.439 15.5796 612.704ZM15.3237 615.897L7.31954 615.267C7.26174 616.001 7.20481 616.733 7.14872 617.463L15.154 618.078C15.2098 617.353 15.2663 616.626 15.3237 615.897ZM15.0786 619.066L7.07276 618.457L7.03081 619.011C6.98872 619.569 6.94713 620.125 6.90602 620.68L14.913 621.273C14.9539 620.722 14.9952 620.168 15.0371 619.614L15.0786 619.066ZM14.8388 622.281L6.83134 621.694C6.77697 622.437 6.72347 623.178 6.67083 623.916L14.6794 624.488C14.7317 623.754 14.7848 623.019 14.8388 622.281ZM14.6086 625.486L6.59957 624.921C6.54769 625.657 6.49667 626.391 6.44649 627.123L14.4566 627.673C14.5064 626.946 14.5571 626.217 14.6086 625.486ZM14.3891 628.662L6.37856 628.119C6.32866 628.855 6.27959 629.589 6.23136 630.32L14.2429 630.849C14.2908 630.122 14.3395 629.393 14.3891 628.662ZM14.1765 631.861L6.16455 631.339C6.11594 632.086 6.0682 632.829 6.02131 633.57L14.0342 634.078C14.0808 633.342 14.1282 632.603 14.1765 631.861ZM13.9712 635.08L5.9579 634.578C5.91178 635.317 5.8665 636.052 5.82206 636.785L13.8363 637.271C13.8804 636.544 13.9254 635.813 13.9712 635.08ZM13.7766 638.262L5.76196 637.782C5.71824 638.512 5.67533 639.239 5.63323 639.964L13.6487 640.43C13.6905 639.71 13.7331 638.988 13.7766 638.262ZM13.5899 641.448L5.57412 640.988C5.53116 641.738 5.48906 642.484 5.44782 643.227L13.4644 643.673C13.5054 642.935 13.5472 642.193 13.5899 641.448ZM13.4091 644.678L5.3921 644.239C5.35162 644.979 5.31199 645.715 5.27318 646.448L13.2909 646.873C13.3295 646.145 13.3688 645.413 13.4091 644.678ZM13.2388 647.864L5.22076 647.445C5.1827 648.175 5.14545 648.901 5.109 649.623L13.1278 650.028C13.164 649.311 13.201 648.589 13.2388 647.864ZM13.0769 651.044L5.05786 650.645C5.02049 651.398 4.984 652.146 4.94835 652.891L12.9681 653.275C13.0035 652.535 13.0398 651.792 13.0769 651.044ZM12.9203 654.281L4.90026 653.903C4.86538 654.644 4.83134 655.38 4.79811 656.112L12.8188 656.476C12.8518 655.749 12.8857 655.017 12.9203 654.281ZM12.7743 657.466L4.75332 657.107C4.72076 657.837 4.68903 658.562 4.65808 659.283L12.6797 659.628C12.7104 658.912 12.742 658.191 12.7743 657.466ZM12.6361 660.653L4.61424 660.314C4.58248 661.068 4.5516 661.817 4.52156 662.561L12.544 662.885C12.5738 662.146 12.6045 661.402 12.6361 660.653ZM12.5038 663.89L4.48113 663.572C4.45186 664.311 4.42343 665.045 4.39581 665.773L12.419 666.078C12.4465 665.354 12.4747 664.624 12.5038 663.89ZM12.3821 667.062L4.35866 666.763C4.33114 667.504 4.30447 668.239 4.27862 668.969L12.3026 669.253C12.3283 668.529 12.3548 667.798 12.3821 667.062ZM12.2667 670.276L4.24255 669.998C4.21649 670.75 4.19131 671.496 4.16697 672.235L12.1916 672.5C12.2158 671.765 12.2408 671.024 12.2667 670.276ZM12.1591 673.498L4.13431 673.24C4.11073 673.973 4.08799 674.7 4.06606 675.421L12.0913 675.665C12.1131 674.949 12.1357 674.227 12.1591 673.498ZM12.0621 676.638L4.03664 676.399C4.01395 677.163 3.99216 677.92 3.97126 678.669L11.9971 678.894C12.0179 678.149 12.0395 677.397 12.0621 676.638ZM11.9692 679.907L3.94318 679.689C3.92299 680.434 3.90366 681.17 3.88517 681.899L11.9116 682.103C11.9299 681.379 11.9492 680.647 11.9692 679.907ZM11.887 683.085L3.86047 682.887C3.84223 683.628 3.82485 684.361 3.80831 685.085L11.8352 685.269C11.8516 684.55 11.8689 683.822 11.887 683.085ZM11.8121 686.299L3.78502 686.122C3.76836 686.878 3.75261 687.624 3.73772 688.359L11.7651 688.522C11.7799 687.792 11.7955 687.05 11.8121 686.299ZM11.7454 689.513L3.71794 689.356C3.70416 690.065 3.69118 690.765 3.67897 691.454L3.67808 691.504L11.7058 691.647L11.7067 691.596L11.7138 691.2C11.7238 690.644 11.7344 690.082 11.7454 689.513ZM11.6878 692.689L3.65998 692.554C3.64709 693.32 3.63516 694.073 3.62411 694.813L11.6522 694.934C11.6632 694.199 11.675 693.451 11.6878 692.689ZM11.6378 695.928L3.60959 695.814C3.59934 696.542 3.58995 697.256 3.58137 697.957L11.6098 698.056C11.6183 697.36 11.6276 696.651 11.6378 695.928ZM11.5975 699.098L3.56899 699.006C3.56024 699.778 3.55247 700.532 3.54561 701.268L11.5743 701.343C11.5811 700.613 11.5888 699.864 11.5975 699.098ZM11.5655 702.328L3.53679 702.26C3.5305 703.006 3.52514 703.731 3.52061 704.437L11.5494 704.489C11.5539 703.789 11.5593 703.068 11.5655 702.328ZM11.5433 705.536L3.51437 705.492C3.51025 706.254 3.5071 706.991 3.5048 707.702L11.5338 707.729C11.536 707.023 11.5392 706.292 11.5433 705.536ZM11.5312 708.675L3.50217 708.656C3.50035 709.459 3.49961 710.226 3.49975 710.957L11.5287 710.956C11.5286 710.232 11.5293 709.471 11.5312 708.675ZM11.5295 711.941L3.50048 711.951C3.50099 712.339 3.50174 712.715 3.5027 713.08C3.50369 713.455 3.50489 713.818 3.50629 714.169L11.5352 714.137C11.5339 713.79 11.5327 713.431 11.5317 713.059L11.5303 712.464L11.5295 711.941ZM11.54 715.157L3.51107 715.199C3.51544 716.02 3.52073 716.758 3.52634 717.412L11.5551 717.344C11.5495 716.699 11.5443 715.969 11.54 715.157Z" fill="black"/>
</svg>
