<svg width="497" height="488" viewBox="0 0 497 488" fill="none" xmlns="http://www.w3.org/2000/svg">
<path d="M243.38 340.596C244.547 339.429 246.032 338.845 247.834 338.845C249.636 338.845 251.121 339.429 252.288 340.596C253.455 341.763 254.039 343.248 254.039 345.05C254.039 346.852 253.455 348.337 252.288 349.504C251.121 350.671 249.636 351.255 247.834 351.255C246.032 351.255 244.547 350.671 243.38 349.504C242.213 348.337 241.629 346.852 241.629 345.05C241.629 343.248 242.213 341.763 243.38 340.596ZM251.098 341.718C250.248 340.845 249.16 340.409 247.834 340.409C246.508 340.409 245.42 340.845 244.57 341.718C243.72 342.579 243.295 343.69 243.295 345.05C243.295 346.41 243.72 347.526 244.57 348.399C245.42 349.26 246.508 349.691 247.834 349.691C249.16 349.691 250.248 349.26 251.098 348.399C251.948 347.526 252.373 346.41 252.373 345.05C252.373 343.69 251.948 342.579 251.098 341.718ZM259.461 351.255C258.078 351.255 256.996 350.807 256.214 349.912C255.443 349.017 255.058 347.736 255.058 346.07C255.058 343.497 255.766 341.78 257.183 340.919C257.466 340.76 257.795 340.619 258.169 340.494C258.554 340.358 259.03 340.216 259.597 340.069C260.175 339.922 260.515 339.837 260.617 339.814C261.206 339.655 261.518 339.389 261.552 339.015H262.963C262.963 339.57 262.844 340.001 262.606 340.307C262.368 340.602 261.971 340.828 261.416 340.987C261.223 341.044 260.872 341.129 260.362 341.242C259.863 341.355 259.404 341.474 258.985 341.599C258.577 341.712 258.243 341.837 257.982 341.973C256.928 342.54 256.367 343.82 256.299 345.815H256.367C256.548 344.908 256.945 344.217 257.557 343.741C258.18 343.254 258.94 343.004 259.835 342.993C261.014 342.993 261.954 343.361 262.657 344.098C263.371 344.823 263.728 345.787 263.728 346.988C263.728 348.257 263.331 349.289 262.538 350.082C261.756 350.864 260.73 351.255 259.461 351.255ZM259.478 349.827C260.283 349.827 260.934 349.572 261.433 349.062C261.943 348.552 262.198 347.883 262.198 347.056C262.198 346.229 261.943 345.566 261.433 345.067C260.923 344.568 260.266 344.319 259.461 344.319C258.656 344.319 257.993 344.574 257.472 345.084C256.951 345.594 256.69 346.257 256.69 347.073C256.69 347.9 256.951 348.569 257.472 349.079C257.993 349.578 258.662 349.827 259.478 349.827ZM266.06 344.081C266.876 343.288 267.902 342.891 269.137 342.891C270.372 342.891 271.392 343.288 272.197 344.081C273.002 344.863 273.404 345.86 273.404 347.073C273.404 348.286 273.002 349.289 272.197 350.082C271.392 350.864 270.372 351.255 269.137 351.255C267.902 351.255 266.876 350.864 266.06 350.082C265.255 349.289 264.853 348.286 264.853 347.073C264.853 345.86 265.255 344.863 266.06 344.081ZM271.126 345.067C270.616 344.557 269.953 344.302 269.137 344.302C268.321 344.302 267.658 344.557 267.148 345.067C266.638 345.577 266.383 346.246 266.383 347.073C266.383 347.9 266.638 348.569 267.148 349.079C267.658 349.589 268.321 349.844 269.137 349.844C269.953 349.844 270.616 349.589 271.126 349.079C271.636 348.569 271.891 347.9 271.891 347.073C271.891 346.246 271.636 345.577 271.126 345.067ZM275.126 351V343.146H280.192V344.489H276.979C276.753 344.489 276.594 344.466 276.503 344.421L276.486 344.438C276.543 344.551 276.571 344.699 276.571 344.88V351H275.126ZM284.031 342.891C285.153 342.891 285.975 343.146 286.496 343.656C287.029 344.166 287.295 344.965 287.295 346.053V351H285.833C285.833 350.558 285.901 350.116 286.037 349.674L285.986 349.64C285.397 350.717 284.479 351.255 283.232 351.255C282.359 351.255 281.657 351 281.124 350.49C280.591 349.98 280.325 349.311 280.325 348.484C280.325 347.634 280.591 346.96 281.124 346.461C281.657 345.962 282.365 345.713 283.249 345.713C284.518 345.713 285.425 346.189 285.969 347.141L286.02 347.107C285.952 346.88 285.907 346.489 285.884 345.934C285.839 344.801 285.187 344.234 283.929 344.234C283.272 344.234 282.484 344.381 281.566 344.676L281.158 343.367C282.144 343.05 283.102 342.891 284.031 342.891ZM283.725 346.92C283.17 346.92 282.716 347.067 282.365 347.362C282.025 347.657 281.855 348.036 281.855 348.501C281.855 348.977 282.025 349.357 282.365 349.64C282.705 349.912 283.158 350.048 283.725 350.048C284.303 350.048 284.785 349.901 285.17 349.606C285.555 349.311 285.748 348.937 285.748 348.484C285.748 348.031 285.555 347.657 285.17 347.362C284.785 347.067 284.303 346.92 283.725 346.92ZM300.418 353.38V351.391C300.418 351.21 300.446 351.062 300.503 350.949L300.486 350.932C300.395 350.977 300.236 351 300.01 351H289.487V343.146H290.932V349.266C290.932 349.447 290.903 349.595 290.847 349.708L290.864 349.725C290.954 349.68 291.113 349.657 291.34 349.657H293.992C294.218 349.657 294.377 349.68 294.468 349.725L294.485 349.708C294.428 349.595 294.4 349.447 294.4 349.266V343.146H295.845V349.266C295.845 349.447 295.816 349.595 295.76 349.708L295.777 349.725C295.867 349.68 296.026 349.657 296.253 349.657H298.905C299.131 349.657 299.29 349.68 299.381 349.725L299.398 349.708C299.341 349.595 299.313 349.447 299.313 349.266V343.146H300.758V349.266C300.758 349.447 300.729 349.595 300.673 349.708L300.69 349.725C300.78 349.68 300.939 349.657 301.166 349.657H301.727V353.38H300.418ZM306.401 342.891C307.557 342.891 308.469 343.265 309.138 344.013C309.807 344.75 310.141 345.758 310.141 347.039V347.328H304.769C304.304 347.328 303.993 347.288 303.834 347.209L303.8 347.243L303.868 347.43C303.936 348.201 304.202 348.801 304.667 349.232C305.132 349.663 305.744 349.878 306.503 349.878C307.002 349.878 307.449 349.782 307.846 349.589C308.243 349.396 308.639 349.073 309.036 348.62L309.937 349.555C309.042 350.688 307.891 351.255 306.486 351.255C305.251 351.255 304.259 350.875 303.511 350.116C302.763 349.357 302.389 348.354 302.389 347.107C302.389 345.826 302.752 344.806 303.477 344.047C304.214 343.276 305.188 342.891 306.401 342.891ZM306.35 344.2C305.659 344.2 305.092 344.393 304.65 344.778C304.219 345.163 303.964 345.69 303.885 346.359L303.902 346.376C304.129 346.274 304.423 346.223 304.786 346.223H307.489C308.067 346.223 308.441 346.268 308.611 346.359L308.628 346.342C308.583 345.662 308.356 345.135 307.948 344.761C307.551 344.387 307.019 344.2 306.35 344.2ZM317.595 343.146H319.04V351H317.595V347.855C317.595 347.674 317.623 347.526 317.68 347.413L317.663 347.396C317.572 347.441 317.413 347.464 317.187 347.464H313.702C313.486 347.464 313.333 347.441 313.243 347.396L313.226 347.413C313.282 347.526 313.311 347.674 313.311 347.855V351H311.866V343.146H313.311V345.73C313.311 345.923 313.282 346.076 313.226 346.189L313.243 346.206C313.333 346.161 313.486 346.138 313.702 346.138H317.187C317.413 346.138 317.572 346.161 317.663 346.206L317.68 346.189C317.623 346.076 317.595 345.923 317.595 345.73V343.146ZM321.312 351.119V343.146H322.757V346.546C322.757 347.294 322.729 347.951 322.672 348.518L322.723 348.535C322.893 348.184 323.188 347.787 323.607 347.345L327.772 343.027H328.197V351H326.769V347.6C326.769 346.852 326.797 346.195 326.854 345.628L326.786 345.611C326.65 345.917 326.361 346.314 325.919 346.801L321.754 351.119H321.312ZM333.91 342.891C335.066 342.891 335.978 343.265 336.647 344.013C337.316 344.75 337.65 345.758 337.65 347.039V347.328H332.278C331.813 347.328 331.502 347.288 331.343 347.209L331.309 347.243L331.377 347.43C331.445 348.201 331.711 348.801 332.176 349.232C332.641 349.663 333.253 349.878 334.012 349.878C334.511 349.878 334.958 349.782 335.355 349.589C335.752 349.396 336.148 349.073 336.545 348.62L337.446 349.555C336.551 350.688 335.4 351.255 333.995 351.255C332.76 351.255 331.768 350.875 331.02 350.116C330.272 349.357 329.898 348.354 329.898 347.107C329.898 345.826 330.261 344.806 330.986 344.047C331.723 343.276 332.697 342.891 333.91 342.891ZM333.859 344.2C333.168 344.2 332.601 344.393 332.159 344.778C331.728 345.163 331.473 345.69 331.394 346.359L331.411 346.376C331.638 346.274 331.932 346.223 332.295 346.223H334.998C335.576 346.223 335.95 346.268 336.12 346.359L336.137 346.342C336.092 345.662 335.865 345.135 335.457 344.761C335.06 344.387 334.528 344.2 333.859 344.2ZM344.554 351.119V343.146H345.999V346.546C345.999 347.294 345.971 347.951 345.914 348.518L345.965 348.535C346.135 348.184 346.43 347.787 346.849 347.345L351.014 343.027H351.439V351H350.011V347.6C350.011 346.852 350.039 346.195 350.096 345.628L350.028 345.611C349.892 345.917 349.603 346.314 349.161 346.801L344.996 351.119H344.554ZM364.287 347.073C365.069 347.311 365.46 347.9 365.46 348.841C365.46 349.498 365.227 350.025 364.763 350.422C364.298 350.807 363.692 351 362.944 351H358.898V343.146H362.91C363.646 343.146 364.213 343.316 364.61 343.656C365.018 343.996 365.222 344.472 365.222 345.084C365.222 345.855 364.916 346.382 364.304 346.665C364.043 346.79 363.709 346.863 363.301 346.886V346.954C363.686 346.965 364.015 347.005 364.287 347.073ZM360.258 344.404C360.314 344.517 360.343 344.676 360.343 344.88V346.019C360.343 346.178 360.314 346.331 360.258 346.478L360.275 346.495C360.365 346.45 360.518 346.427 360.734 346.427H362.383C362.779 346.427 363.085 346.336 363.301 346.155C363.516 345.962 363.624 345.707 363.624 345.39C363.624 344.767 363.238 344.455 362.468 344.455H360.751C360.524 344.455 360.365 344.432 360.275 344.387L360.258 344.404ZM362.672 349.691C363.465 349.691 363.862 349.334 363.862 348.62C363.862 347.906 363.437 347.549 362.587 347.549H360.734C360.518 347.549 360.365 347.521 360.275 347.464L360.258 347.481C360.314 347.628 360.343 347.781 360.343 347.94V349.3C360.343 349.447 360.314 349.595 360.258 349.742L360.275 349.759C360.365 349.714 360.524 349.691 360.751 349.691H362.672ZM370.718 345.968C371.546 345.968 372.203 346.195 372.69 346.648C373.178 347.09 373.421 347.702 373.421 348.484C373.421 349.243 373.166 349.855 372.656 350.32C372.158 350.773 371.506 351 370.701 351H367.165V343.146H368.61V345.577C368.61 345.724 368.582 345.872 368.525 346.019L368.542 346.036C368.633 345.991 368.786 345.968 369.001 345.968H370.718ZM374.118 343.146H375.563V351H374.118V343.146ZM370.599 349.657C371.007 349.657 371.325 349.555 371.551 349.351C371.789 349.147 371.908 348.864 371.908 348.501C371.908 348.127 371.795 347.838 371.568 347.634C371.342 347.419 371.019 347.311 370.599 347.311H369.001C368.786 347.311 368.633 347.288 368.542 347.243L368.525 347.26C368.582 347.407 368.61 347.555 368.61 347.702V349.266C368.61 349.413 368.582 349.561 368.525 349.708L368.542 349.725C368.633 349.68 368.792 349.657 369.018 349.657H370.599ZM384.623 343.146V351H383.178V344.88C383.178 344.699 383.207 344.551 383.263 344.438L383.246 344.421C383.156 344.466 382.997 344.489 382.77 344.489H379.608C379.382 344.489 379.223 344.466 379.132 344.421L379.115 344.438C379.172 344.551 379.2 344.699 379.2 344.88V351H377.755V343.146H384.623ZM393.588 343.146V351H392.143V344.88C392.143 344.733 392.171 344.585 392.228 344.438L392.211 344.421C392.12 344.466 391.961 344.489 391.735 344.489H389.321C389.105 344.489 388.947 344.466 388.845 344.421L388.828 344.438C388.884 344.551 388.913 344.699 388.913 344.88V348.518C388.913 350.207 388.125 351.051 386.55 351.051H385.87V349.742H386.533C386.873 349.742 387.116 349.646 387.264 349.453C387.411 349.249 387.485 348.92 387.485 348.467V343.146H393.588ZM398.88 342.891C400.002 342.891 400.824 343.146 401.345 343.656C401.878 344.166 402.144 344.965 402.144 346.053V351H400.682C400.682 350.558 400.75 350.116 400.886 349.674L400.835 349.64C400.246 350.717 399.328 351.255 398.081 351.255C397.209 351.255 396.506 351 395.973 350.49C395.441 349.98 395.174 349.311 395.174 348.484C395.174 347.634 395.441 346.96 395.973 346.461C396.506 345.962 397.214 345.713 398.098 345.713C399.368 345.713 400.274 346.189 400.818 347.141L400.869 347.107C400.801 346.88 400.756 346.489 400.733 345.934C400.688 344.801 400.036 344.234 398.778 344.234C398.121 344.234 397.333 344.381 396.415 344.676L396.007 343.367C396.993 343.05 397.951 342.891 398.88 342.891ZM398.574 346.92C398.019 346.92 397.566 347.067 397.214 347.362C396.874 347.657 396.704 348.036 396.704 348.501C396.704 348.977 396.874 349.357 397.214 349.64C397.554 349.912 398.008 350.048 398.574 350.048C399.152 350.048 399.634 349.901 400.019 349.606C400.405 349.311 400.597 348.937 400.597 348.484C400.597 348.031 400.405 347.657 400.019 347.362C399.634 347.067 399.152 346.92 398.574 346.92ZM409.725 347.073C410.507 347.311 410.898 347.9 410.898 348.841C410.898 349.498 410.666 350.025 410.201 350.422C409.737 350.807 409.13 351 408.382 351H404.336V343.146H408.348C409.085 343.146 409.652 343.316 410.048 343.656C410.456 343.996 410.66 344.472 410.66 345.084C410.66 345.855 410.354 346.382 409.742 346.665C409.482 346.79 409.147 346.863 408.739 346.886V346.954C409.125 346.965 409.453 347.005 409.725 347.073ZM405.696 344.404C405.753 344.517 405.781 344.676 405.781 344.88V346.019C405.781 346.178 405.753 346.331 405.696 346.478L405.713 346.495C405.804 346.45 405.957 346.427 406.172 346.427H407.821C408.218 346.427 408.524 346.336 408.739 346.155C408.955 345.962 409.062 345.707 409.062 345.39C409.062 344.767 408.677 344.455 407.906 344.455H406.189C405.963 344.455 405.804 344.432 405.713 344.387L405.696 344.404ZM408.11 349.691C408.904 349.691 409.3 349.334 409.3 348.62C409.3 347.906 408.875 347.549 408.025 347.549H406.172C405.957 347.549 405.804 347.521 405.713 347.464L405.696 347.481C405.753 347.628 405.781 347.781 405.781 347.94V349.3C405.781 349.447 405.753 349.595 405.696 349.742L405.713 349.759C405.804 349.714 405.963 349.691 406.189 349.691H408.11ZM418.486 351.051C417.625 351.051 417.092 350.694 416.888 349.98L416.497 348.569C416.384 348.172 416.236 347.895 416.055 347.736C415.885 347.566 415.636 347.481 415.307 347.481H414.508C414.27 347.481 414.094 347.47 413.981 347.447L413.964 347.464C414.021 347.713 414.049 347.951 414.049 348.178V351H412.604V343.146H414.049V345.662C414.049 345.866 414.021 346.093 413.964 346.342L413.981 346.359C414.094 346.336 414.27 346.325 414.508 346.325H415.307C415.647 346.325 415.896 346.257 416.055 346.121C416.214 345.985 416.367 345.719 416.514 345.322L417.092 343.945C417.307 343.378 417.806 343.095 418.588 343.095H419.37V344.387H418.979C418.73 344.387 418.543 344.432 418.418 344.523C418.293 344.614 418.18 344.778 418.078 345.016L417.772 345.849C417.523 346.518 416.962 346.858 416.089 346.869V346.937C416.588 346.948 416.956 347.033 417.194 347.192C417.443 347.339 417.625 347.594 417.738 347.957L418.095 349.164C418.163 349.402 418.248 349.561 418.35 349.64C418.463 349.719 418.656 349.759 418.928 349.759H419.387V351.051H418.486ZM423.75 342.891C424.872 342.891 425.693 343.146 426.215 343.656C426.747 344.166 427.014 344.965 427.014 346.053V351H425.552C425.552 350.558 425.62 350.116 425.756 349.674L425.705 349.64C425.115 350.717 424.197 351.255 422.951 351.255C422.078 351.255 421.375 351 420.843 350.49C420.31 349.98 420.044 349.311 420.044 348.484C420.044 347.634 420.31 346.96 420.843 346.461C421.375 345.962 422.084 345.713 422.968 345.713C424.237 345.713 425.144 346.189 425.688 347.141L425.739 347.107C425.671 346.88 425.625 346.489 425.603 345.934C425.557 344.801 424.906 344.234 423.648 344.234C422.99 344.234 422.203 344.381 421.285 344.676L420.877 343.367C421.863 343.05 422.82 342.891 423.75 342.891ZM423.444 346.92C422.888 346.92 422.435 347.067 422.084 347.362C421.744 347.657 421.574 348.036 421.574 348.501C421.574 348.977 421.744 349.357 422.084 349.64C422.424 349.912 422.877 350.048 423.444 350.048C424.022 350.048 424.503 349.901 424.889 349.606C425.274 349.311 425.467 348.937 425.467 348.484C425.467 348.031 425.274 347.657 424.889 347.362C424.503 347.067 424.022 346.92 423.444 346.92Z" fill="black"/>
<path d="M146 387.5L241 357H430" stroke="#ED7817" stroke-linecap="round" stroke-linejoin="round"/>
<path d="M63.007 0.0999756V1.54498H58.247C58.0657 1.54498 57.924 1.52231 57.822 1.47698L57.788 1.51098C57.822 1.59031 57.839 1.73198 57.839 1.93598V12H56.309V0.0999756H63.007ZM62.1967 5.08098C63.0127 4.28765 64.0384 3.89098 65.2737 3.89098C66.509 3.89098 67.529 4.28765 68.3337 5.08098C69.1384 5.86298 69.5407 6.86031 69.5407 8.07298C69.5407 9.28565 69.1384 10.2887 68.3337 11.082C67.529 11.864 66.509 12.255 65.2737 12.255C64.0384 12.255 63.0127 11.864 62.1967 11.082C61.392 10.2887 60.9897 9.28565 60.9897 8.07298C60.9897 6.86031 61.392 5.86298 62.1967 5.08098ZM67.2627 6.06698C66.7527 5.55698 66.0897 5.30198 65.2737 5.30198C64.4577 5.30198 63.7947 5.55698 63.2847 6.06698C62.7747 6.57698 62.5197 7.24565 62.5197 8.07298C62.5197 8.90031 62.7747 9.56898 63.2847 10.079C63.7947 10.589 64.4577 10.844 65.2737 10.844C66.0897 10.844 66.7527 10.589 67.2627 10.079C67.7727 9.56898 68.0277 8.90031 68.0277 8.07298C68.0277 7.24565 67.7727 6.57698 67.2627 6.06698ZM75.683 3.89098C76.8164 3.89098 77.74 4.28198 78.454 5.06398C79.168 5.84598 79.525 6.84898 79.525 8.07298C79.525 9.29698 79.168 10.3 78.454 11.082C77.74 11.864 76.8164 12.255 75.683 12.255C74.2324 12.255 73.2067 11.6033 72.606 10.3L72.538 10.317C72.6514 10.7023 72.708 11.2577 72.708 11.983V15.4H71.263V4.14598H72.657C72.657 4.93931 72.623 5.50598 72.555 5.84598L72.623 5.86298C73.2237 4.54831 74.2437 3.89098 75.683 3.89098ZM75.411 5.25098C74.595 5.25098 73.9264 5.51731 73.405 6.04998C72.895 6.57131 72.64 7.24565 72.64 8.07298C72.64 8.91165 72.895 9.59165 73.405 10.113C73.9264 10.6343 74.6007 10.895 75.428 10.895C76.2214 10.895 76.8504 10.6457 77.315 10.147C77.7797 9.63698 78.012 8.94565 78.012 8.07298C78.012 7.21165 77.7797 6.52598 77.315 6.01598C76.8504 5.50598 76.2157 5.25098 75.411 5.25098ZM81.853 5.08098C82.669 4.28765 83.6946 3.89098 84.93 3.89098C86.1653 3.89098 87.1853 4.28765 87.99 5.08098C88.7946 5.86298 89.197 6.86031 89.197 8.07298C89.197 9.28565 88.7946 10.2887 87.99 11.082C87.1853 11.864 86.1653 12.255 84.93 12.255C83.6946 12.255 82.669 11.864 81.853 11.082C81.0483 10.2887 80.646 9.28565 80.646 8.07298C80.646 6.86031 81.0483 5.86298 81.853 5.08098ZM86.919 6.06698C86.409 5.55698 85.746 5.30198 84.93 5.30198C84.114 5.30198 83.451 5.55698 82.941 6.06698C82.431 6.57698 82.176 7.24565 82.176 8.07298C82.176 8.90031 82.431 9.56898 82.941 10.079C83.451 10.589 84.114 10.844 84.93 10.844C85.746 10.844 86.409 10.589 86.919 10.079C87.429 9.56898 87.684 8.90031 87.684 8.07298C87.684 7.24565 87.429 6.57698 86.919 6.06698ZM89.5194 14.38V10.674H90.1484C90.3298 10.674 90.4658 10.6967 90.5564 10.742L90.5734 10.725C90.5621 10.6117 90.5961 10.47 90.6754 10.3C91.4348 8.88331 91.8144 7.37031 91.8144 5.76098V4.14598H97.0674V10.283C97.0674 10.4303 97.0391 10.5777 96.9824 10.725L96.9994 10.742C97.0901 10.6967 97.2488 10.674 97.4754 10.674H97.9684V14.38H96.6594V12.408C96.6594 12.2607 96.6878 12.1133 96.7444 11.966L96.7274 11.949C96.6254 11.9943 96.4668 12.017 96.2514 12.017H91.2534C91.0381 12.017 90.8794 11.9943 90.7774 11.949L90.7604 11.966C90.8171 12.0793 90.8454 12.2267 90.8454 12.408V14.38H89.5194ZM91.9504 10.759C92.0638 10.7023 92.2281 10.674 92.4434 10.674H95.2994C95.5261 10.674 95.6848 10.6967 95.7754 10.742L95.7924 10.725C95.7358 10.5777 95.7074 10.4303 95.7074 10.283V5.82898C95.7074 5.68165 95.7358 5.53431 95.7924 5.38698L95.7754 5.36998C95.6848 5.41531 95.5261 5.43798 95.2994 5.43798H93.5824C93.3671 5.43798 93.2084 5.41531 93.1064 5.36998L93.0894 5.38698C93.1461 5.50031 93.1744 5.64765 93.1744 5.82898V6.30498C93.1744 7.08698 93.0498 7.91431 92.8004 8.78698C92.5624 9.64831 92.2734 10.2943 91.9334 10.725L91.9504 10.759ZM110.071 8.07298C110.853 8.31098 111.244 8.90031 111.244 9.84098C111.244 10.4983 111.012 11.0253 110.547 11.422C110.082 11.8073 109.476 12 108.728 12H104.682V4.14598H108.694C109.431 4.14598 109.997 4.31598 110.394 4.65598C110.802 4.99598 111.006 5.47198 111.006 6.08398C111.006 6.85465 110.7 7.38165 110.088 7.66498C109.827 7.78965 109.493 7.86331 109.085 7.88598V7.95398C109.47 7.96531 109.799 8.00498 110.071 8.07298ZM106.042 5.40398C106.099 5.51731 106.127 5.67598 106.127 5.87998V7.01898C106.127 7.17765 106.099 7.33065 106.042 7.47798L106.059 7.49498C106.15 7.44965 106.303 7.42698 106.518 7.42698H108.167C108.564 7.42698 108.87 7.33631 109.085 7.15498C109.3 6.96231 109.408 6.70731 109.408 6.38998C109.408 5.76665 109.023 5.45498 108.252 5.45498H106.535C106.308 5.45498 106.15 5.43231 106.059 5.38698L106.042 5.40398ZM108.456 10.691C109.249 10.691 109.646 10.334 109.646 9.61998C109.646 8.90598 109.221 8.54898 108.371 8.54898H106.518C106.303 8.54898 106.15 8.52065 106.059 8.46398L106.042 8.48098C106.099 8.62831 106.127 8.78131 106.127 8.93998V10.3C106.127 10.4473 106.099 10.5947 106.042 10.742L106.059 10.759C106.15 10.7137 106.308 10.691 106.535 10.691H108.456ZM113.579 5.08098C114.395 4.28765 115.42 3.89098 116.656 3.89098C117.891 3.89098 118.911 4.28765 119.716 5.08098C120.52 5.86298 120.923 6.86031 120.923 8.07298C120.923 9.28565 120.52 10.2887 119.716 11.082C118.911 11.864 117.891 12.255 116.656 12.255C115.42 12.255 114.395 11.864 113.579 11.082C112.774 10.2887 112.372 9.28565 112.372 8.07298C112.372 6.86031 112.774 5.86298 113.579 5.08098ZM118.645 6.06698C118.135 5.55698 117.472 5.30198 116.656 5.30198C115.84 5.30198 115.177 5.55698 114.667 6.06698C114.157 6.57698 113.902 7.24565 113.902 8.07298C113.902 8.90031 114.157 9.56898 114.667 10.079C115.177 10.589 115.84 10.844 116.656 10.844C117.472 10.844 118.135 10.589 118.645 10.079C119.155 9.56898 119.41 8.90031 119.41 8.07298C119.41 7.24565 119.155 6.57698 118.645 6.06698ZM124.728 12.255C123.481 12.255 122.399 11.9943 121.481 11.473L122.076 10.215C122.937 10.691 123.838 10.929 124.779 10.929C125.425 10.929 125.901 10.8383 126.207 10.657C126.524 10.4643 126.683 10.1583 126.683 9.73898C126.683 9.29698 126.541 8.97965 126.258 8.78698C125.986 8.58298 125.538 8.48098 124.915 8.48098H123.844V7.17198H124.83C125.77 7.17198 126.241 6.84331 126.241 6.18598C126.241 5.55131 125.725 5.23398 124.694 5.23398C123.912 5.23398 123.067 5.44365 122.161 5.86298L121.617 4.60498C122.739 4.12898 123.804 3.89098 124.813 3.89098C125.753 3.89098 126.473 4.06665 126.972 4.41798C127.482 4.75798 127.737 5.25665 127.737 5.91398C127.737 7.02465 127.062 7.64231 125.714 7.76698V7.81798C127.312 7.90865 128.111 8.59431 128.111 9.87498C128.111 10.6457 127.816 11.235 127.227 11.643C126.649 12.051 125.816 12.255 124.728 12.255ZM134.1 12.102L132.502 8.39598C132.219 7.74998 132.043 7.27398 131.975 6.96798H131.924C131.902 7.26265 131.788 7.74431 131.584 8.41298L130.411 12H128.864L131.652 4.04398H132.009L133.913 8.44698C134.072 8.82098 134.191 9.17798 134.27 9.51798H134.321C134.367 9.23465 134.486 8.87765 134.678 8.44698L136.582 4.04398H136.939L139.727 12H138.18L137.007 8.41298C136.803 7.81231 136.69 7.33065 136.667 6.96798H136.599C136.543 7.26265 136.373 7.73865 136.089 8.39598L134.491 12.102H134.1ZM141.27 5.08098C142.086 4.28765 143.112 3.89098 144.347 3.89098C145.582 3.89098 146.602 4.28765 147.407 5.08098C148.212 5.86298 148.614 6.86031 148.614 8.07298C148.614 9.28565 148.212 10.2887 147.407 11.082C146.602 11.864 145.582 12.255 144.347 12.255C143.112 12.255 142.086 11.864 141.27 11.082C140.465 10.2887 140.063 9.28565 140.063 8.07298C140.063 6.86031 140.465 5.86298 141.27 5.08098ZM146.336 6.06698C145.826 5.55698 145.163 5.30198 144.347 5.30198C143.531 5.30198 142.868 5.55698 142.358 6.06698C141.848 6.57698 141.593 7.24565 141.593 8.07298C141.593 8.90031 141.848 9.56898 142.358 10.079C142.868 10.589 143.531 10.844 144.347 10.844C145.163 10.844 145.826 10.589 146.336 10.079C146.846 9.56898 147.101 8.90031 147.101 8.07298C147.101 7.24565 146.846 6.57698 146.336 6.06698ZM148.939 12.051V10.793H149.398C149.648 10.793 149.835 10.7477 149.959 10.657C150.084 10.5663 150.18 10.402 150.248 10.164L150.588 8.95698C150.77 8.28831 151.319 7.94831 152.237 7.93698V7.86898C151.331 7.83498 150.775 7.49498 150.571 6.84898L150.265 6.01598C150.163 5.76665 150.05 5.59665 149.925 5.50598C149.801 5.40398 149.614 5.35298 149.364 5.35298H148.956V4.09498H149.738C150.486 4.09498 150.979 4.37831 151.217 4.94498L151.778 6.32198C151.926 6.71865 152.079 6.98498 152.237 7.12098C152.407 7.25698 152.662 7.32498 153.002 7.32498H153.291C153.507 7.32498 153.682 7.33631 153.818 7.35898L153.835 7.34198C153.779 7.16065 153.75 6.93398 153.75 6.66198V4.14598H155.11V6.66198C155.11 6.93398 155.082 7.16065 155.025 7.34198L155.042 7.35898C155.178 7.33631 155.354 7.32498 155.569 7.32498H155.858C156.198 7.32498 156.448 7.25698 156.606 7.12098C156.776 6.98498 156.935 6.71865 157.082 6.32198L157.643 4.94498C157.881 4.37831 158.374 4.09498 159.122 4.09498H159.887V5.35298H159.496C159.247 5.35298 159.06 5.40398 158.935 5.50598C158.811 5.59665 158.697 5.76665 158.595 6.01598L158.289 6.84898C158.085 7.49498 157.53 7.83498 156.623 7.86898V7.93698C157.099 7.94831 157.462 8.03331 157.711 8.19198C157.972 8.33931 158.159 8.59431 158.272 8.95698L158.612 10.164C158.68 10.402 158.777 10.5663 158.901 10.657C159.026 10.7477 159.213 10.793 159.462 10.793H159.921V12.051H159.02C158.182 12.051 157.66 11.694 157.456 10.98L157.048 9.56898C156.935 9.17231 156.788 8.89465 156.606 8.73598C156.436 8.56598 156.187 8.48098 155.858 8.48098H155.569C155.354 8.48098 155.178 8.46965 155.042 8.44698L155.025 8.46398C155.082 8.64531 155.11 8.88331 155.11 9.17798V12H153.75V9.17798C153.75 8.88331 153.779 8.64531 153.835 8.46398L153.818 8.44698C153.682 8.46965 153.507 8.48098 153.291 8.48098H153.002C152.674 8.48098 152.419 8.56598 152.237 8.73598C152.067 8.89465 151.926 9.17231 151.812 9.56898L151.404 10.98C151.2 11.694 150.679 12.051 149.84 12.051H148.939ZM167.105 4.14598H168.55V12H167.105V8.85498C167.105 8.67365 167.134 8.52631 167.19 8.41298L167.173 8.39598C167.083 8.44131 166.924 8.46398 166.697 8.46398H163.212C162.997 8.46398 162.844 8.44131 162.753 8.39598L162.736 8.41298C162.793 8.52631 162.821 8.67365 162.821 8.85498V12H161.376V4.14598H162.821V6.72998C162.821 6.92265 162.793 7.07565 162.736 7.18898L162.753 7.20598C162.844 7.16065 162.997 7.13798 163.212 7.13798H166.697C166.924 7.13798 167.083 7.16065 167.173 7.20598L167.19 7.18898C167.134 7.07565 167.105 6.92265 167.105 6.72998V4.14598ZM171.452 5.08098C172.268 4.28765 173.293 3.89098 174.529 3.89098C175.764 3.89098 176.784 4.28765 177.589 5.08098C178.393 5.86298 178.796 6.86031 178.796 8.07298C178.796 9.28565 178.393 10.2887 177.589 11.082C176.784 11.864 175.764 12.255 174.529 12.255C173.293 12.255 172.268 11.864 171.452 11.082C170.647 10.2887 170.245 9.28565 170.245 8.07298C170.245 6.86031 170.647 5.86298 171.452 5.08098ZM176.518 6.06698C176.008 5.55698 175.345 5.30198 174.529 5.30198C173.713 5.30198 173.05 5.55698 172.54 6.06698C172.03 6.57698 171.775 7.24565 171.775 8.07298C171.775 8.90031 172.03 9.56898 172.54 10.079C173.05 10.589 173.713 10.844 174.529 10.844C175.345 10.844 176.008 10.589 176.518 10.079C177.028 9.56898 177.283 8.90031 177.283 8.07298C177.283 7.24565 177.028 6.57698 176.518 6.06698ZM184.241 12.255C182.96 12.255 181.923 11.8697 181.13 11.099C180.337 10.317 179.94 9.30831 179.94 8.07298C179.94 6.83765 180.337 5.83465 181.13 5.06398C181.923 4.28198 182.96 3.89098 184.241 3.89098C185.216 3.89098 186.111 4.15731 186.927 4.68998L186.23 5.91398C185.595 5.49465 184.915 5.28498 184.19 5.28498C183.397 5.28498 182.745 5.54565 182.235 6.06698C181.725 6.58831 181.47 7.25698 181.47 8.07298C181.47 8.88898 181.725 9.55765 182.235 10.079C182.745 10.6003 183.397 10.861 184.19 10.861C184.915 10.861 185.595 10.6513 186.23 10.232L186.927 11.456C186.111 11.9887 185.216 12.255 184.241 12.255ZM187.466 4.14598H194.878V5.48898H192.294C192.067 5.48898 191.909 5.46631 191.818 5.42098L191.801 5.43798C191.858 5.55131 191.886 5.69865 191.886 5.87998V12H190.458V5.87998C190.458 5.69865 190.486 5.55131 190.543 5.43798L190.526 5.42098C190.435 5.46631 190.277 5.48898 190.05 5.48898H187.466V4.14598ZM199.076 3.89098C200.232 3.89098 201.144 4.26498 201.813 5.01298C202.482 5.74965 202.816 6.75831 202.816 8.03898V8.32798H197.444C196.979 8.32798 196.668 8.28831 196.509 8.20898L196.475 8.24298L196.543 8.42998C196.611 9.20065 196.877 9.80131 197.342 10.232C197.807 10.6627 198.419 10.878 199.178 10.878C199.677 10.878 200.124 10.7817 200.521 10.589C200.918 10.3963 201.314 10.0733 201.711 9.61998L202.612 10.555C201.717 11.6883 200.566 12.255 199.161 12.255C197.926 12.255 196.934 11.8753 196.186 11.116C195.438 10.3567 195.064 9.35365 195.064 8.10698C195.064 6.82631 195.427 5.80631 196.152 5.04698C196.889 4.27631 197.863 3.89098 199.076 3.89098ZM199.025 5.19998C198.334 5.19998 197.767 5.39265 197.325 5.77798C196.894 6.16331 196.639 6.69031 196.56 7.35898L196.577 7.37598C196.804 7.27398 197.098 7.22298 197.461 7.22298H200.164C200.742 7.22298 201.116 7.26831 201.286 7.35898L201.303 7.34198C201.258 6.66198 201.031 6.13498 200.623 5.76098C200.226 5.38698 199.694 5.19998 199.025 5.19998ZM210.49 0.864975C210.49 1.63565 210.275 2.24198 209.844 2.68398C209.414 3.11465 208.853 3.32998 208.161 3.32998C207.459 3.32998 206.892 3.11465 206.461 2.68398C206.031 2.24198 205.815 1.63565 205.815 0.864975H206.852C206.886 1.83965 207.323 2.32698 208.161 2.32698C209 2.32698 209.436 1.83965 209.47 0.864975H210.49ZM204.54 12.119V4.14598H205.985V7.54598C205.985 8.29398 205.957 8.95131 205.9 9.51798L205.951 9.53498C206.121 9.18365 206.416 8.78698 206.835 8.34498L211 4.02698H211.425V12H209.997V8.59998C209.997 7.85198 210.026 7.19465 210.082 6.62798L210.014 6.61098C209.878 6.91698 209.589 7.31365 209.147 7.80098L204.982 12.119H204.54Z" fill="black"/>
<path d="M314.5 56.5L217.5 18H55" stroke="#ED7817" stroke-linecap="round" stroke-linejoin="round"/>
<path d="M11.557 223.1V235H10.027V224.936C10.027 224.732 10.044 224.59 10.078 224.511L10.044 224.477C9.95329 224.522 9.81163 224.545 9.61896 224.545H4.24696C4.06563 224.545 3.92396 224.522 3.82196 224.477L3.78796 224.511C3.82196 224.59 3.83896 224.732 3.83896 224.936V235H2.30896V223.1H11.557ZM18.4291 226.891C19.5625 226.891 20.4861 227.282 21.2001 228.064C21.9141 228.846 22.2711 229.849 22.2711 231.073C22.2711 232.297 21.9141 233.3 21.2001 234.082C20.4861 234.864 19.5625 235.255 18.4291 235.255C16.9785 235.255 15.9528 234.603 15.3521 233.3L15.2841 233.317C15.3975 233.702 15.4541 234.258 15.4541 234.983V238.4H14.0091V227.146H15.4031C15.4031 227.939 15.3691 228.506 15.3011 228.846L15.3691 228.863C15.9698 227.548 16.9898 226.891 18.4291 226.891ZM18.1571 228.251C17.3411 228.251 16.6725 228.517 16.1511 229.05C15.6411 229.571 15.3861 230.246 15.3861 231.073C15.3861 231.912 15.6411 232.592 16.1511 233.113C16.6725 233.634 17.3468 233.895 18.1741 233.895C18.9675 233.895 19.5965 233.646 20.0611 233.147C20.5258 232.637 20.7581 231.946 20.7581 231.073C20.7581 230.212 20.5258 229.526 20.0611 229.016C19.5965 228.506 18.9618 228.251 18.1571 228.251ZM24.5991 228.081C25.4151 227.288 26.4407 226.891 27.6761 226.891C28.9114 226.891 29.9314 227.288 30.7361 228.081C31.5407 228.863 31.9431 229.86 31.9431 231.073C31.9431 232.286 31.5407 233.289 30.7361 234.082C29.9314 234.864 28.9114 235.255 27.6761 235.255C26.4407 235.255 25.4151 234.864 24.5991 234.082C23.7944 233.289 23.3921 232.286 23.3921 231.073C23.3921 229.86 23.7944 228.863 24.5991 228.081ZM29.6651 229.067C29.1551 228.557 28.4921 228.302 27.6761 228.302C26.8601 228.302 26.1971 228.557 25.6871 229.067C25.1771 229.577 24.9221 230.246 24.9221 231.073C24.9221 231.9 25.1771 232.569 25.6871 233.079C26.1971 233.589 26.8601 233.844 27.6761 233.844C28.4921 233.844 29.1551 233.589 29.6651 233.079C30.1751 232.569 30.4301 231.9 30.4301 231.073C30.4301 230.246 30.1751 229.577 29.6651 229.067ZM33.6654 235.119V227.146H35.1104V230.546C35.1104 231.294 35.082 231.951 35.0254 232.518L35.0764 232.535C35.2464 232.184 35.541 231.787 35.9604 231.345L40.1254 227.027H40.5504V235H39.1224V231.6C39.1224 230.852 39.1507 230.195 39.2074 229.628L39.1394 229.611C39.0034 229.917 38.7144 230.314 38.2724 230.801L34.1074 235.119H33.6654ZM45.2774 235.255C44.0308 235.255 42.9484 234.994 42.0304 234.473L42.6254 233.215C43.4868 233.691 44.3878 233.929 45.3284 233.929C45.9744 233.929 46.4504 233.838 46.7564 233.657C47.0738 233.464 47.2324 233.158 47.2324 232.739C47.2324 232.297 47.0908 231.98 46.8074 231.787C46.5354 231.583 46.0878 231.481 45.4644 231.481H44.3934V230.172H45.3794C46.3201 230.172 46.7904 229.843 46.7904 229.186C46.7904 228.551 46.2748 228.234 45.2434 228.234C44.4614 228.234 43.6171 228.444 42.7104 228.863L42.1664 227.605C43.2884 227.129 44.3538 226.891 45.3624 226.891C46.3031 226.891 47.0228 227.067 47.5214 227.418C48.0314 227.758 48.2864 228.257 48.2864 228.914C48.2864 230.025 47.6121 230.642 46.2634 230.767V230.818C47.8614 230.909 48.6604 231.594 48.6604 232.875C48.6604 233.646 48.3658 234.235 47.7764 234.643C47.1984 235.051 46.3654 235.255 45.2774 235.255ZM55.7721 231.073C56.5541 231.311 56.9451 231.9 56.9451 232.841C56.9451 233.498 56.7128 234.025 56.2481 234.422C55.7835 234.807 55.1771 235 54.4291 235H50.3831V227.146H54.3951C55.1318 227.146 55.6985 227.316 56.0951 227.656C56.5031 227.996 56.7071 228.472 56.7071 229.084C56.7071 229.855 56.4011 230.382 55.7891 230.665C55.5285 230.79 55.1941 230.863 54.7861 230.886V230.954C55.1715 230.965 55.5001 231.005 55.7721 231.073ZM51.7431 228.404C51.7998 228.517 51.8281 228.676 51.8281 228.88V230.019C51.8281 230.178 51.7998 230.331 51.7431 230.478L51.7601 230.495C51.8508 230.45 52.0038 230.427 52.2191 230.427H53.8681C54.2648 230.427 54.5708 230.336 54.7861 230.155C55.0015 229.962 55.1091 229.707 55.1091 229.39C55.1091 228.767 54.7238 228.455 53.9531 228.455H52.2361C52.0095 228.455 51.8508 228.432 51.7601 228.387L51.7431 228.404ZM54.1571 233.691C54.9505 233.691 55.3471 233.334 55.3471 232.62C55.3471 231.906 54.9221 231.549 54.0721 231.549H52.2191C52.0038 231.549 51.8508 231.521 51.7601 231.464L51.7431 231.481C51.7998 231.628 51.8281 231.781 51.8281 231.94V233.3C51.8281 233.447 51.7998 233.595 51.7431 233.742L51.7601 233.759C51.8508 233.714 52.0095 233.691 52.2361 233.691H54.1571ZM59.2797 228.081C60.0957 227.288 61.1214 226.891 62.3567 226.891C63.5921 226.891 64.6121 227.288 65.4167 228.081C66.2214 228.863 66.6237 229.86 66.6237 231.073C66.6237 232.286 66.2214 233.289 65.4167 234.082C64.6121 234.864 63.5921 235.255 62.3567 235.255C61.1214 235.255 60.0957 234.864 59.2797 234.082C58.4751 233.289 58.0727 232.286 58.0727 231.073C58.0727 229.86 58.4751 228.863 59.2797 228.081ZM64.3457 229.067C63.8357 228.557 63.1727 228.302 62.3567 228.302C61.5407 228.302 60.8777 228.557 60.3677 229.067C59.8577 229.577 59.6027 230.246 59.6027 231.073C59.6027 231.9 59.8577 232.569 60.3677 233.079C60.8777 233.589 61.5407 233.844 62.3567 233.844C63.1727 233.844 63.8357 233.589 64.3457 233.079C64.8557 232.569 65.1107 231.9 65.1107 231.073C65.1107 230.246 64.8557 229.577 64.3457 229.067ZM66.9462 237.38V233.674H67.5752C67.7565 233.674 67.8925 233.697 67.9832 233.742L68.0002 233.725C67.9889 233.612 68.0229 233.47 68.1022 233.3C68.8615 231.883 69.2412 230.37 69.2412 228.761V227.146H74.4942V233.283C74.4942 233.43 74.4659 233.578 74.4092 233.725L74.4262 233.742C74.5169 233.697 74.6755 233.674 74.9022 233.674H75.3952V237.38H74.0862V235.408C74.0862 235.261 74.1145 235.113 74.1712 234.966L74.1542 234.949C74.0522 234.994 73.8935 235.017 73.6782 235.017H68.6802C68.4649 235.017 68.3062 234.994 68.2042 234.949L68.1872 234.966C68.2439 235.079 68.2722 235.227 68.2722 235.408V237.38H66.9462ZM69.3772 233.759C69.4905 233.702 69.6549 233.674 69.8702 233.674H72.7262C72.9529 233.674 73.1115 233.697 73.2022 233.742L73.2192 233.725C73.1625 233.578 73.1342 233.43 73.1342 233.283V228.829C73.1342 228.682 73.1625 228.534 73.2192 228.387L73.2022 228.37C73.1115 228.415 72.9529 228.438 72.7262 228.438H71.0092C70.7939 228.438 70.6352 228.415 70.5332 228.37L70.5162 228.387C70.5729 228.5 70.6012 228.648 70.6012 228.829V229.305C70.6012 230.087 70.4765 230.914 70.2272 231.787C69.9892 232.648 69.7002 233.294 69.3602 233.725L69.3772 233.759ZM80.3698 235.255C79.0891 235.255 78.0521 234.87 77.2588 234.099C76.4655 233.317 76.0688 232.308 76.0688 231.073C76.0688 229.838 76.4655 228.835 77.2588 228.064C78.0521 227.282 79.0891 226.891 80.3698 226.891C81.3445 226.891 82.2398 227.157 83.0558 227.69L82.3588 228.914C81.7241 228.495 81.0441 228.285 80.3188 228.285C79.5255 228.285 78.8738 228.546 78.3638 229.067C77.8538 229.588 77.5988 230.257 77.5988 231.073C77.5988 231.889 77.8538 232.558 78.3638 233.079C78.8738 233.6 79.5255 233.861 80.3188 233.861C81.0441 233.861 81.7241 233.651 82.3588 233.232L83.0558 234.456C82.2398 234.989 81.3445 235.255 80.3698 235.255ZM83.5948 227.146H91.0068V228.489H88.4228C88.1961 228.489 88.0374 228.466 87.9468 228.421L87.9298 228.438C87.9864 228.551 88.0148 228.699 88.0148 228.88V235H86.5868V228.88C86.5868 228.699 86.6151 228.551 86.6718 228.438L86.6548 228.421C86.5641 228.466 86.4054 228.489 86.1788 228.489H83.5948V227.146ZM97.6247 231.073C98.4067 231.311 98.7977 231.9 98.7977 232.841C98.7977 233.498 98.5653 234.025 98.1007 234.422C97.636 234.807 97.0297 235 96.2817 235H92.2357V227.146H96.2477C96.9843 227.146 97.551 227.316 97.9477 227.656C98.3557 227.996 98.5597 228.472 98.5597 229.084C98.5597 229.855 98.2537 230.382 97.6417 230.665C97.381 230.79 97.0467 230.863 96.6387 230.886V230.954C97.024 230.965 97.3527 231.005 97.6247 231.073ZM93.5957 228.404C93.6523 228.517 93.6807 228.676 93.6807 228.88V230.019C93.6807 230.178 93.6523 230.331 93.5957 230.478L93.6127 230.495C93.7033 230.45 93.8563 230.427 94.0717 230.427H95.7207C96.1173 230.427 96.4233 230.336 96.6387 230.155C96.854 229.962 96.9617 229.707 96.9617 229.39C96.9617 228.767 96.5763 228.455 95.8057 228.455H94.0887C93.862 228.455 93.7033 228.432 93.6127 228.387L93.5957 228.404ZM96.0097 233.691C96.803 233.691 97.1997 233.334 97.1997 232.62C97.1997 231.906 96.7747 231.549 95.9247 231.549H94.0717C93.8563 231.549 93.7033 231.521 93.6127 231.464L93.5957 231.481C93.6523 231.628 93.6807 231.781 93.6807 231.94V233.3C93.6807 233.447 93.6523 233.595 93.5957 233.742L93.6127 233.759C93.7033 233.714 93.862 233.691 94.0887 233.691H96.0097ZM101.132 228.081C101.948 227.288 102.974 226.891 104.209 226.891C105.445 226.891 106.465 227.288 107.269 228.081C108.074 228.863 108.476 229.86 108.476 231.073C108.476 232.286 108.074 233.289 107.269 234.082C106.465 234.864 105.445 235.255 104.209 235.255C102.974 235.255 101.948 234.864 101.132 234.082C100.328 233.289 99.9253 232.286 99.9253 231.073C99.9253 229.86 100.328 228.863 101.132 228.081ZM106.198 229.067C105.688 228.557 105.025 228.302 104.209 228.302C103.393 228.302 102.73 228.557 102.22 229.067C101.71 229.577 101.455 230.246 101.455 231.073C101.455 231.9 101.71 232.569 102.22 233.079C102.73 233.589 103.393 233.844 104.209 233.844C105.025 233.844 105.688 233.589 106.198 233.079C106.708 232.569 106.963 231.9 106.963 231.073C106.963 230.246 106.708 229.577 106.198 229.067Z" fill="black"/>
<path d="M169.5 283.5L115 240H1" stroke="#ED7817" stroke-linecap="round" stroke-linejoin="round"/>
<path d="M19.119 440.38V436.657H20.003C20.139 436.657 20.2863 436.68 20.445 436.725L20.479 436.708C20.479 436.561 20.5187 436.408 20.598 436.249C21.6067 434.232 22.111 431.789 22.111 428.922V426.1H28.707V436.266C28.707 436.47 28.69 436.612 28.656 436.691L28.69 436.725C28.7807 436.68 28.928 436.657 29.132 436.657H29.931V440.38H28.486V438.51C28.486 438.306 28.5087 438.159 28.554 438.068L28.52 438.051C28.4067 438.085 28.2593 438.102 28.078 438.102H20.989C20.7963 438.102 20.649 438.085 20.547 438.051L20.53 438.068C20.564 438.17 20.581 438.317 20.581 438.51V440.38H19.119ZM21.992 436.742C22.094 436.685 22.247 436.657 22.451 436.657H26.769C26.9503 436.657 27.092 436.68 27.194 436.725L27.228 436.691C27.194 436.612 27.177 436.47 27.177 436.266V427.953C27.177 427.738 27.194 427.59 27.228 427.511L27.194 427.477C27.092 427.522 26.9503 427.545 26.769 427.545H24.049C23.8677 427.545 23.726 427.522 23.624 427.477L23.59 427.511C23.624 427.602 23.641 427.749 23.641 427.953V429.058C23.641 430.565 23.4937 432.01 23.199 433.393C22.9043 434.764 22.4907 435.869 21.958 436.708L21.992 436.742ZM31.8412 431.081C32.6572 430.288 33.6829 429.891 34.9182 429.891C36.1536 429.891 37.1736 430.288 37.9782 431.081C38.7829 431.863 39.1852 432.86 39.1852 434.073C39.1852 435.286 38.7829 436.289 37.9782 437.082C37.1736 437.864 36.1536 438.255 34.9182 438.255C33.6829 438.255 32.6572 437.864 31.8412 437.082C31.0366 436.289 30.6342 435.286 30.6342 434.073C30.6342 432.86 31.0366 431.863 31.8412 431.081ZM36.9072 432.067C36.3972 431.557 35.7342 431.302 34.9182 431.302C34.1022 431.302 33.4392 431.557 32.9292 432.067C32.4192 432.577 32.1642 433.246 32.1642 434.073C32.1642 434.9 32.4192 435.569 32.9292 436.079C33.4392 436.589 34.1022 436.844 34.9182 436.844C35.7342 436.844 36.3972 436.589 36.9072 436.079C37.4172 435.569 37.6722 434.9 37.6722 434.073C37.6722 433.246 37.4172 432.577 36.9072 432.067ZM44.7326 438.255C43.3499 438.255 42.2676 437.807 41.4856 436.912C40.7149 436.017 40.3296 434.736 40.3296 433.07C40.3296 430.497 41.0379 428.78 42.4546 427.919C42.7379 427.76 43.0666 427.619 43.4406 427.494C43.8259 427.358 44.3019 427.216 44.8686 427.069C45.4466 426.922 45.7866 426.837 45.8886 426.814C46.4779 426.655 46.7896 426.389 46.8236 426.015H48.2346C48.2346 426.57 48.1156 427.001 47.8776 427.307C47.6396 427.602 47.2429 427.828 46.6876 427.987C46.4949 428.044 46.1436 428.129 45.6336 428.242C45.1349 428.355 44.6759 428.474 44.2566 428.599C43.8486 428.712 43.5142 428.837 43.2536 428.973C42.1996 429.54 41.6386 430.82 41.5706 432.815H41.6386C41.8199 431.908 42.2166 431.217 42.8286 430.741C43.4519 430.254 44.2112 430.004 45.1066 429.993C46.2852 429.993 47.2259 430.361 47.9286 431.098C48.6426 431.823 48.9996 432.787 48.9996 433.988C48.9996 435.257 48.6029 436.289 47.8096 437.082C47.0276 437.864 46.0019 438.255 44.7326 438.255ZM44.7496 436.827C45.5542 436.827 46.2059 436.572 46.7046 436.062C47.2146 435.552 47.4696 434.883 47.4696 434.056C47.4696 433.229 47.2146 432.566 46.7046 432.067C46.1946 431.568 45.5372 431.319 44.7326 431.319C43.9279 431.319 43.2649 431.574 42.7436 432.084C42.2222 432.594 41.9616 433.257 41.9616 434.073C41.9616 434.9 42.2222 435.569 42.7436 436.079C43.2649 436.578 43.9336 436.827 44.7496 436.827ZM54.2555 432.968C55.0828 432.968 55.7401 433.195 56.2275 433.648C56.7148 434.09 56.9585 434.702 56.9585 435.484C56.9585 436.243 56.7035 436.855 56.1935 437.32C55.6948 437.773 55.0431 438 54.2385 438H50.7025V430.146H52.1475V432.577C52.1475 432.724 52.1191 432.872 52.0625 433.019L52.0795 433.036C52.1701 432.991 52.3231 432.968 52.5385 432.968H54.2555ZM57.6555 430.146H59.1005V438H57.6555V430.146ZM54.1365 436.657C54.5445 436.657 54.8618 436.555 55.0885 436.351C55.3265 436.147 55.4455 435.864 55.4455 435.501C55.4455 435.127 55.3321 434.838 55.1055 434.634C54.8788 434.419 54.5558 434.311 54.1365 434.311H52.5385C52.3231 434.311 52.1701 434.288 52.0795 434.243L52.0625 434.26C52.1191 434.407 52.1475 434.555 52.1475 434.702V436.266C52.1475 436.413 52.1191 436.561 52.0625 436.708L52.0795 436.725C52.1701 436.68 52.3288 436.657 52.5555 436.657H54.1365ZM65.6783 430.146H67.1063V438H65.6783V435.348C65.6783 434.974 65.7123 434.719 65.7803 434.583L65.7463 434.566C64.8283 434.895 63.9953 435.059 63.2473 435.059C62.2953 435.059 61.5869 434.838 61.1223 434.396C60.6576 433.943 60.4253 433.246 60.4253 432.305V430.146H61.8703V432.152C61.8703 432.707 61.9949 433.104 62.2443 433.342C62.5049 433.58 62.9129 433.699 63.4683 433.699C64.1029 433.699 64.8396 433.546 65.6783 433.24V430.146ZM72.4068 429.891C73.5288 429.891 74.3505 430.146 74.8718 430.656C75.4045 431.166 75.6708 431.965 75.6708 433.053V438H74.2088C74.2088 437.558 74.2768 437.116 74.4128 436.674L74.3618 436.64C73.7725 437.717 72.8545 438.255 71.6078 438.255C70.7352 438.255 70.0325 438 69.4998 437.49C68.9672 436.98 68.7008 436.311 68.7008 435.484C68.7008 434.634 68.9672 433.96 69.4998 433.461C70.0325 432.962 70.7408 432.713 71.6248 432.713C72.8942 432.713 73.8008 433.189 74.3448 434.141L74.3958 434.107C74.3278 433.88 74.2825 433.489 74.2598 432.934C74.2145 431.801 73.5628 431.234 72.3048 431.234C71.6475 431.234 70.8598 431.381 69.9418 431.676L69.5338 430.367C70.5198 430.05 71.4775 429.891 72.4068 429.891ZM72.1008 433.92C71.5455 433.92 71.0922 434.067 70.7408 434.362C70.4008 434.657 70.2308 435.036 70.2308 435.501C70.2308 435.977 70.4008 436.357 70.7408 436.64C71.0808 436.912 71.5342 437.048 72.1008 437.048C72.6788 437.048 73.1605 436.901 73.5458 436.606C73.9312 436.311 74.1238 435.937 74.1238 435.484C74.1238 435.031 73.9312 434.657 73.5458 434.362C73.1605 434.067 72.6788 433.92 72.1008 433.92Z" fill="black"/>
<path d="M136.5 487.5L86 444H17" stroke="#ED7817" stroke-linecap="round" stroke-linejoin="round"/>
<path d="M224.5 193.5L337 129H496" stroke="#ED7817" stroke-linecap="round" stroke-linejoin="round"/>
<path d="M339.38 112.596C340.547 111.429 342.032 110.845 343.834 110.845C345.636 110.845 347.121 111.429 348.288 112.596C349.455 113.763 350.039 115.248 350.039 117.05C350.039 118.852 349.455 120.337 348.288 121.504C347.121 122.671 345.636 123.255 343.834 123.255C342.032 123.255 340.547 122.671 339.38 121.504C338.213 120.337 337.629 118.852 337.629 117.05C337.629 115.248 338.213 113.763 339.38 112.596ZM347.098 113.718C346.248 112.845 345.16 112.409 343.834 112.409C342.508 112.409 341.42 112.845 340.57 113.718C339.72 114.579 339.295 115.69 339.295 117.05C339.295 118.41 339.72 119.526 340.57 120.399C341.42 121.26 342.508 121.691 343.834 121.691C345.16 121.691 346.248 121.26 347.098 120.399C347.948 119.526 348.373 118.41 348.373 117.05C348.373 115.69 347.948 114.579 347.098 113.718ZM356.974 126.434V122.898C356.974 122.241 357.019 121.674 357.11 121.198L357.059 121.181C356.572 122.564 355.688 123.255 354.407 123.255C353.41 123.255 352.616 122.881 352.027 122.133C351.438 121.374 351.143 120.354 351.143 119.073C351.143 117.792 351.438 116.778 352.027 116.03C352.616 115.271 353.41 114.891 354.407 114.891C355.688 114.891 356.572 115.582 357.059 116.965L357.11 116.948C357.019 116.472 356.974 115.905 356.974 115.248V111.185H358.334V115.248C358.334 115.985 358.289 116.551 358.198 116.948L358.249 116.965C358.759 115.582 359.643 114.891 360.901 114.891C361.898 114.891 362.692 115.271 363.281 116.03C363.87 116.778 364.165 117.792 364.165 119.073C364.165 120.354 363.87 121.374 363.281 122.133C362.692 122.881 361.898 123.255 360.901 123.255C359.643 123.255 358.759 122.564 358.249 121.181L358.198 121.198C358.289 121.595 358.334 122.161 358.334 122.898V126.434H356.974ZM353.251 121.147C353.625 121.646 354.152 121.895 354.832 121.895C355.512 121.895 356.05 121.64 356.447 121.13C356.844 120.62 357.042 119.934 357.042 119.073C357.042 118.212 356.844 117.526 356.447 117.016C356.05 116.506 355.512 116.251 354.832 116.251C354.152 116.251 353.625 116.5 353.251 116.999C352.877 117.498 352.684 118.189 352.673 119.073C352.684 119.957 352.877 120.648 353.251 121.147ZM358.878 121.13C359.275 121.64 359.813 121.895 360.493 121.895C361.173 121.895 361.7 121.646 362.074 121.147C362.448 120.637 362.641 119.946 362.652 119.073C362.641 118.2 362.448 117.515 362.074 117.016C361.7 116.506 361.173 116.251 360.493 116.251C359.813 116.251 359.275 116.506 358.878 117.016C358.481 117.526 358.283 118.212 358.283 119.073C358.283 119.934 358.481 120.62 358.878 121.13ZM365.947 123.119V115.146H367.392V118.546C367.392 119.294 367.363 119.951 367.307 120.518L367.358 120.535C367.528 120.184 367.822 119.787 368.242 119.345L372.407 115.027H372.832V123H371.404V119.6C371.404 118.852 371.432 118.195 371.489 117.628L371.421 117.611C371.285 117.917 370.996 118.314 370.554 118.801L366.389 123.119H365.947ZM378.834 123.255C377.553 123.255 376.516 122.87 375.723 122.099C374.929 121.317 374.533 120.308 374.533 119.073C374.533 117.838 374.929 116.835 375.723 116.064C376.516 115.282 377.553 114.891 378.834 114.891C379.808 114.891 380.704 115.157 381.52 115.69L380.823 116.914C380.188 116.495 379.508 116.285 378.783 116.285C377.989 116.285 377.338 116.546 376.828 117.067C376.318 117.588 376.063 118.257 376.063 119.073C376.063 119.889 376.318 120.558 376.828 121.079C377.338 121.6 377.989 121.861 378.783 121.861C379.508 121.861 380.188 121.651 380.823 121.232L381.52 122.456C380.704 122.989 379.808 123.255 378.834 123.255ZM388.842 115.146H390.287V123H388.842V119.855C388.842 119.674 388.87 119.526 388.927 119.413L388.91 119.396C388.819 119.441 388.66 119.464 388.434 119.464H384.949C384.733 119.464 384.58 119.441 384.49 119.396L384.473 119.413C384.529 119.526 384.558 119.674 384.558 119.855V123H383.113V115.146H384.558V117.73C384.558 117.923 384.529 118.076 384.473 118.189L384.49 118.206C384.58 118.161 384.733 118.138 384.949 118.138H388.434C388.66 118.138 388.819 118.161 388.91 118.206L388.927 118.189C388.87 118.076 388.842 117.923 388.842 117.73V115.146ZM395.653 114.891C396.775 114.891 397.597 115.146 398.118 115.656C398.651 116.166 398.917 116.965 398.917 118.053V123H397.455C397.455 122.558 397.523 122.116 397.659 121.674L397.608 121.64C397.019 122.717 396.101 123.255 394.854 123.255C393.981 123.255 393.279 123 392.746 122.49C392.213 121.98 391.947 121.311 391.947 120.484C391.947 119.634 392.213 118.96 392.746 118.461C393.279 117.962 393.987 117.713 394.871 117.713C396.14 117.713 397.047 118.189 397.591 119.141L397.642 119.107C397.574 118.88 397.529 118.489 397.506 117.934C397.461 116.801 396.809 116.234 395.551 116.234C394.894 116.234 394.106 116.381 393.188 116.676L392.78 115.367C393.766 115.05 394.724 114.891 395.653 114.891ZM395.347 118.92C394.792 118.92 394.338 119.067 393.987 119.362C393.647 119.657 393.477 120.036 393.477 120.501C393.477 120.977 393.647 121.357 393.987 121.64C394.327 121.912 394.78 122.048 395.347 122.048C395.925 122.048 396.407 121.901 396.792 121.606C397.177 121.311 397.37 120.937 397.37 120.484C397.37 120.031 397.177 119.657 396.792 119.362C396.407 119.067 395.925 118.92 395.347 118.92ZM407.161 115.146V123H405.716V120.365C405.716 120.218 405.744 120.07 405.801 119.923L405.784 119.906C405.682 119.951 405.523 119.974 405.308 119.974H404.713L401.993 123H400.225V122.932L402.333 120.671C402.65 120.331 402.933 120.093 403.183 119.957V119.906C403.035 119.94 402.894 119.946 402.758 119.923C402.168 119.832 401.687 119.577 401.313 119.158C400.95 118.739 400.769 118.212 400.769 117.577C400.769 116.806 401.012 116.211 401.5 115.792C401.998 115.361 402.673 115.146 403.523 115.146H407.161ZM405.801 118.767C405.744 118.62 405.716 118.472 405.716 118.325V116.829C405.716 116.682 405.744 116.534 405.801 116.387L405.784 116.37C405.693 116.415 405.534 116.438 405.308 116.438H403.676C402.758 116.438 402.299 116.818 402.299 117.577C402.299 117.928 402.418 118.206 402.656 118.41C402.894 118.614 403.222 118.716 403.642 118.716H405.308C405.523 118.716 405.682 118.739 405.784 118.784L405.801 118.767ZM421.405 115.146V123H419.96V116.88C419.96 116.699 419.989 116.551 420.045 116.438L420.028 116.421C419.938 116.466 419.779 116.489 419.552 116.489H416.39C416.164 116.489 416.005 116.466 415.914 116.421L415.897 116.438C415.954 116.551 415.982 116.699 415.982 116.88V123H414.537V115.146H421.405ZM424.233 116.081C425.049 115.288 426.075 114.891 427.31 114.891C428.545 114.891 429.565 115.288 430.37 116.081C431.175 116.863 431.577 117.86 431.577 119.073C431.577 120.286 431.175 121.289 430.37 122.082C429.565 122.864 428.545 123.255 427.31 123.255C426.075 123.255 425.049 122.864 424.233 122.082C423.428 121.289 423.026 120.286 423.026 119.073C423.026 117.86 423.428 116.863 424.233 116.081ZM429.299 117.067C428.789 116.557 428.126 116.302 427.31 116.302C426.494 116.302 425.831 116.557 425.321 117.067C424.811 117.577 424.556 118.246 424.556 119.073C424.556 119.9 424.811 120.569 425.321 121.079C425.831 121.589 426.494 121.844 427.31 121.844C428.126 121.844 428.789 121.589 429.299 121.079C429.809 120.569 430.064 119.9 430.064 119.073C430.064 118.246 429.809 117.577 429.299 117.067ZM431.899 125.38V121.674H432.528C432.71 121.674 432.846 121.697 432.936 121.742L432.953 121.725C432.942 121.612 432.976 121.47 433.055 121.3C433.815 119.883 434.194 118.37 434.194 116.761V115.146H439.447V121.283C439.447 121.43 439.419 121.578 439.362 121.725L439.379 121.742C439.47 121.697 439.629 121.674 439.855 121.674H440.348V125.38H439.039V123.408C439.039 123.261 439.068 123.113 439.124 122.966L439.107 122.949C439.005 122.994 438.847 123.017 438.631 123.017H433.633C433.418 123.017 433.259 122.994 433.157 122.949L433.14 122.966C433.197 123.079 433.225 123.227 433.225 123.408V125.38H431.899ZM434.33 121.759C434.444 121.702 434.608 121.674 434.823 121.674H437.679C437.906 121.674 438.065 121.697 438.155 121.742L438.172 121.725C438.116 121.578 438.087 121.43 438.087 121.283V116.829C438.087 116.682 438.116 116.534 438.172 116.387L438.155 116.37C438.065 116.415 437.906 116.438 437.679 116.438H435.962C435.747 116.438 435.588 116.415 435.486 116.37L435.469 116.387C435.526 116.5 435.554 116.648 435.554 116.829V117.305C435.554 118.087 435.43 118.914 435.18 119.787C434.942 120.648 434.653 121.294 434.313 121.725L434.33 121.759ZM440.947 125.38V121.674H441.576C441.757 121.674 441.893 121.697 441.984 121.742L442.001 121.725C441.99 121.612 442.024 121.47 442.103 121.3C442.862 119.883 443.242 118.37 443.242 116.761V115.146H448.495V121.283C448.495 121.43 448.467 121.578 448.41 121.725L448.427 121.742C448.518 121.697 448.676 121.674 448.903 121.674H449.396V125.38H448.087V123.408C448.087 123.261 448.115 123.113 448.172 122.966L448.155 122.949C448.053 122.994 447.894 123.017 447.679 123.017H442.681C442.466 123.017 442.307 122.994 442.205 122.949L442.188 122.966C442.245 123.079 442.273 123.227 442.273 123.408V125.38H440.947ZM443.378 121.759C443.491 121.702 443.656 121.674 443.871 121.674H446.727C446.954 121.674 447.112 121.697 447.203 121.742L447.22 121.725C447.163 121.578 447.135 121.43 447.135 121.283V116.829C447.135 116.682 447.163 116.534 447.22 116.387L447.203 116.37C447.112 116.415 446.954 116.438 446.727 116.438H445.01C444.795 116.438 444.636 116.415 444.534 116.37L444.517 116.387C444.574 116.5 444.602 116.648 444.602 116.829V117.305C444.602 118.087 444.477 118.914 444.228 119.787C443.99 120.648 443.701 121.294 443.361 121.725L443.378 121.759ZM454.082 114.891C455.238 114.891 456.15 115.265 456.819 116.013C457.487 116.75 457.822 117.758 457.822 119.039V119.328H452.45C451.985 119.328 451.673 119.288 451.515 119.209L451.481 119.243L451.549 119.43C451.617 120.201 451.883 120.801 452.348 121.232C452.812 121.663 453.424 121.878 454.184 121.878C454.682 121.878 455.13 121.782 455.527 121.589C455.923 121.396 456.32 121.073 456.717 120.62L457.618 121.555C456.722 122.688 455.572 123.255 454.167 123.255C452.931 123.255 451.94 122.875 451.192 122.116C450.444 121.357 450.07 120.354 450.07 119.107C450.07 117.826 450.432 116.806 451.158 116.047C451.894 115.276 452.869 114.891 454.082 114.891ZM454.031 116.2C453.339 116.2 452.773 116.393 452.331 116.778C451.9 117.163 451.645 117.69 451.566 118.359L451.583 118.376C451.809 118.274 452.104 118.223 452.467 118.223H455.17C455.748 118.223 456.122 118.268 456.292 118.359L456.309 118.342C456.263 117.662 456.037 117.135 455.629 116.761C455.232 116.387 454.699 116.2 454.031 116.2ZM463.966 114.891C465.1 114.891 466.023 115.282 466.737 116.064C467.451 116.846 467.808 117.849 467.808 119.073C467.808 120.297 467.451 121.3 466.737 122.082C466.023 122.864 465.1 123.255 463.966 123.255C462.516 123.255 461.49 122.603 460.889 121.3L460.821 121.317C460.935 121.702 460.991 122.258 460.991 122.983V126.4H459.546V115.146H460.94C460.94 115.939 460.906 116.506 460.838 116.846L460.906 116.863C461.507 115.548 462.527 114.891 463.966 114.891ZM463.694 116.251C462.878 116.251 462.21 116.517 461.688 117.05C461.178 117.571 460.923 118.246 460.923 119.073C460.923 119.912 461.178 120.592 461.688 121.113C462.21 121.634 462.884 121.895 463.711 121.895C464.505 121.895 465.134 121.646 465.598 121.147C466.063 120.637 466.295 119.946 466.295 119.073C466.295 118.212 466.063 117.526 465.598 117.016C465.134 116.506 464.499 116.251 463.694 116.251ZM468.11 123.051V121.793H468.569C468.818 121.793 469.005 121.748 469.13 121.657C469.255 121.566 469.351 121.402 469.419 121.164L469.759 119.957C469.94 119.288 470.49 118.948 471.408 118.937V118.869C470.501 118.835 469.946 118.495 469.742 117.849L469.436 117.016C469.334 116.767 469.221 116.597 469.096 116.506C468.971 116.404 468.784 116.353 468.535 116.353H468.127V115.095H468.909C469.657 115.095 470.15 115.378 470.388 115.945L470.949 117.322C471.096 117.719 471.249 117.985 471.408 118.121C471.578 118.257 471.833 118.325 472.173 118.325H472.462C472.677 118.325 472.853 118.336 472.989 118.359L473.006 118.342C472.949 118.161 472.921 117.934 472.921 117.662V115.146H474.281V117.662C474.281 117.934 474.253 118.161 474.196 118.342L474.213 118.359C474.349 118.336 474.525 118.325 474.74 118.325H475.029C475.369 118.325 475.618 118.257 475.777 118.121C475.947 117.985 476.106 117.719 476.253 117.322L476.814 115.945C477.052 115.378 477.545 115.095 478.293 115.095H479.058V116.353H478.667C478.418 116.353 478.231 116.404 478.106 116.506C477.981 116.597 477.868 116.767 477.766 117.016L477.46 117.849C477.256 118.495 476.701 118.835 475.794 118.869V118.937C476.27 118.948 476.633 119.033 476.882 119.192C477.143 119.339 477.33 119.594 477.443 119.957L477.783 121.164C477.851 121.402 477.947 121.566 478.072 121.657C478.197 121.748 478.384 121.793 478.633 121.793H479.092V123.051H478.191C477.352 123.051 476.831 122.694 476.627 121.98L476.219 120.569C476.106 120.172 475.958 119.895 475.777 119.736C475.607 119.566 475.358 119.481 475.029 119.481H474.74C474.525 119.481 474.349 119.47 474.213 119.447L474.196 119.464C474.253 119.645 474.281 119.883 474.281 120.178V123H472.921V120.178C472.921 119.883 472.949 119.645 473.006 119.464L472.989 119.447C472.853 119.47 472.677 119.481 472.462 119.481H472.173C471.844 119.481 471.589 119.566 471.408 119.736C471.238 119.895 471.096 120.172 470.983 120.569L470.575 121.98C470.371 122.694 469.85 123.051 469.011 123.051H468.11ZM486.429 123.051C485.568 123.051 485.035 122.694 484.831 121.98L484.44 120.569C484.327 120.172 484.18 119.895 483.998 119.736C483.828 119.566 483.579 119.481 483.25 119.481H482.451C482.213 119.481 482.038 119.47 481.924 119.447L481.907 119.464C481.964 119.713 481.992 119.951 481.992 120.178V123H480.547V115.146H481.992V117.662C481.992 117.866 481.964 118.093 481.907 118.342L481.924 118.359C482.038 118.336 482.213 118.325 482.451 118.325H483.25C483.59 118.325 483.84 118.257 483.998 118.121C484.157 117.985 484.31 117.719 484.457 117.322L485.035 115.945C485.251 115.378 485.749 115.095 486.531 115.095H487.313V116.387H486.922C486.673 116.387 486.486 116.432 486.361 116.523C486.237 116.614 486.123 116.778 486.021 117.016L485.715 117.849C485.466 118.518 484.905 118.858 484.032 118.869V118.937C484.531 118.948 484.899 119.033 485.137 119.192C485.387 119.339 485.568 119.594 485.681 119.957L486.038 121.164C486.106 121.402 486.191 121.561 486.293 121.64C486.407 121.719 486.599 121.759 486.871 121.759H487.33V123.051H486.429ZM491.693 114.891C492.815 114.891 493.637 115.146 494.158 115.656C494.691 116.166 494.957 116.965 494.957 118.053V123H493.495C493.495 122.558 493.563 122.116 493.699 121.674L493.648 121.64C493.059 122.717 492.141 123.255 490.894 123.255C490.021 123.255 489.319 123 488.786 122.49C488.253 121.98 487.987 121.311 487.987 120.484C487.987 119.634 488.253 118.96 488.786 118.461C489.319 117.962 490.027 117.713 490.911 117.713C492.18 117.713 493.087 118.189 493.631 119.141L493.682 119.107C493.614 118.88 493.569 118.489 493.546 117.934C493.501 116.801 492.849 116.234 491.591 116.234C490.934 116.234 490.146 116.381 489.228 116.676L488.82 115.367C489.806 115.05 490.764 114.891 491.693 114.891ZM491.387 118.92C490.832 118.92 490.378 119.067 490.027 119.362C489.687 119.657 489.517 120.036 489.517 120.501C489.517 120.977 489.687 121.357 490.027 121.64C490.367 121.912 490.82 122.048 491.387 122.048C491.965 122.048 492.447 121.901 492.832 121.606C493.217 121.311 493.41 120.937 493.41 120.484C493.41 120.031 493.217 119.657 492.832 119.362C492.447 119.067 491.965 118.92 491.387 118.92Z" fill="black"/>
</svg>
